<?xml version="1.0" encoding="UTF-8"?>
<svg width="655px" height="657px" viewBox="0 0 655 657" version="1.1" xmlns="http://www.w3.org/2000/svg"
    xmlns:xlink="http://www.w3.org/1999/xlink">
    <g id="_PWA---Local" stroke="none" stroke-width="1" fill="none" fill-rule="evenodd">
        <g id="PWA-Icon-Sets-/-Assets" transform="translate(-8003.000000, -3088.000000)" fill="#000000"
            fill-rule="nonzero">
            <g id="apollo-watermark" transform="translate(8003.000000, 3088.000000)">
                <path
                    d="M327.515163,0 C327.515163,0 0.0758136951,600.104639 0,600 C83.4708783,561.358314 175.09931,537.037222 271.640469,530.220738 C284.437821,494.35946 291.01845,448.961084 291.01845,411.963725 C291.01845,411.963725 259.722557,413.129703 230.200704,416.642583 L254.521737,348.178783 C303.163804,348.178783 291.003287,250.625343 327.5,204.105835 C363.98155,250.625343 351.821033,348.178783 400.478263,348.178783 L424.799296,416.642583 C395.292606,413.144651 363.98155,411.963725 363.98155,411.963725 C363.98155,448.961084 370.562179,494.35946 383.359531,530.220738 C479.90069,537.037222 571.529122,561.358314 655,600 C654.954512,600.104639 327.515163,0 327.515163,0 Z"
                    id="container" opacity="0.0724988665"></path>
                <path
                    d="M424.07683,605.905041 C488.319869,614.698476 549.773027,632.135287 607.208153,657 C624.932985,639.278077 640.944466,619.875498 655,599.047362 C571.531054,560.25721 479.904743,535.827667 383.365819,529 C393.191046,556.655803 406.761383,582.285815 424.07683,605.905041 Z M271.634181,529 C175.095257,535.842673 83.468946,560.25721 0,599.047362 C14.0555337,619.860492 30.0670154,639.263072 47.791847,657 C105.226973,632.135287 166.680131,614.698476 230.92317,605.905041 C248.223454,582.285815 261.793792,556.655803 271.634181,529 Z"
                    id="container" opacity="0.114097959"></path>
            </g>
        </g>
    </g>
</svg>