<?xml version="1.0" encoding="UTF-8"?>
<svg width="1920px" height="180px" viewBox="0 0 1920 180" version="1.1" xmlns="http://www.w3.org/2000/svg" xmlns:xlink="http://www.w3.org/1999/xlink">
    <title>wave-short-top-2</title>
    <g id="_PWA---Local" stroke="none" stroke-width="1" fill="none" fill-rule="evenodd">
        <g id="PWA-Icon-Sets-/-Assets" transform="translate(-7894.000000, -2466.000000)" fill-rule="nonzero">
            <g id="wave-short-top-2" transform="translate(8854.000000, 2556.000000) scale(1, -1) rotate(-180.000000) translate(-8854.000000, -2556.000000) translate(7894.000000, 2466.000000)">
                <path d="M1920,9.09494702e-13 L1920,73.0405375 C1794.13024,150.469007 1654.84221,166.644978 1502.1359,121.568447 C1275.37984,200.620621 1063.91244,191.969699 840.426728,139.665332 L840.418551,139.656886 L838.188359,140.414087 L838.188359,140.414087 L833.746301,141.914353 C830.792885,142.908144 827.855125,143.889028 824.931504,144.856178 L820.556484,146.296501 C818.374086,147.01141 816.199213,147.718362 814.031224,148.41701 L809.704236,149.803129 C747.810178,169.509181 691.222079,182.200276 624.838675,179.682609 C571.605757,177.663689 526.377797,166.593591 485.211605,150.856093 L482.643971,149.866462 C481.789832,149.534586 480.937421,149.200723 480.086701,148.864914 C477.616597,149.47324 475.158804,150.068482 472.71238,150.650148 L469.051152,151.512405 C430.0865,160.599897 393.911758,166.149254 356.669674,166.149254 C270.845524,166.149254 183.493154,131.553822 101.000707,93.935456 L95.3838283,91.3662538 L95.3838283,91.3662538 L89.7824609,88.7899067 C88.8502173,88.3600437 87.9186388,87.9299756 86.9877347,87.4997489 L81.4104785,84.9168544 L81.4104785,84.9168544 L75.8498589,82.3323747 L75.8498589,82.3323747 L67.5411074,78.4575476 L67.5411074,78.4575476 L60.6476108,75.2350374 L43.541053,67.2344346 L43.541053,67.2344346 L36.7516102,64.0678639 C35.6226542,63.5421278 34.4950194,63.0174648 33.368724,62.4939654 L26.6271712,59.3676566 C17.6602556,55.2197934 8.78140718,51.1579849 0,47.2285611 L0,9.09494702e-13 L1920,9.09494702e-13 Z" id="bgd" fill="#FFFFFF"></path>
                <path d="M1920,9.09494702e-13 L1920,73.0405375 C1781.92115,157.9794 1627.69469,169.206746 1457.32062,106.722576 C1259.84161,34.2977486 989.964694,-13.7010741 692.896748,45.6941614 C581.64424,67.9377895 493.442364,9.15786505 481.800178,0.940333561 L481.167178,0.48978915 L480.740768,0.181071106 L480.495015,9.09494702e-13 L1920,9.09494702e-13 Z" id="Path" fill="#9E54B0" opacity="0.745062227"></path>
                <path d="M1754.33482,179.940299 C1274.24738,-114.354288 893.589991,1.26144244 397.332417,179.940299" id="Oval" fill="#DF216D" opacity="0.527252837" transform="translate(1075.833620, 89.970149) scale(-1, 1) rotate(-180.000000) translate(-1075.833620, -89.970149) "></path>
                <path d="M1555.00859,9.09494702e-13 C962.913412,21.1361374 850.443252,188.238924 624.838675,179.682609 C399.234098,171.126294 317.408127,9.09494702e-13 79.2024751,9.09494702e-13 C79.2024751,9.09494702e-13 1336.71144,9.09494702e-13 1555.00859,9.09494702e-13 Z" id="Rectangle" fill="#0768FD" opacity="0.612635934"></path>
                <path d="M1336.54177,1.8189894e-12 C945.365705,15.2589077 734.884197,75.464543 586.578652,119.01744 L572.416621,123.178183 C488.561286,147.805914 424.379521,166.149254 356.669674,166.149254 C259.142231,166.149254 159.641363,121.475401 67.5411074,78.4575476 L60.6476108,75.2350374 L60.6476108,75.2350374 L46.9473899,68.8260209 C31.0333389,61.3869724 15.3674626,54.1050528 0,47.2285611 L0,1.8189894e-12 L1336.54177,1.8189894e-12 Z" id="Path" fill="#00C221" opacity="0.504730225"></path>
            </g>
        </g>
    </g>
</svg>