<?xml version="1.0" encoding="UTF-8"?>
<svg width="710px" height="156px" viewBox="0 0 710 156" version="1.1" xmlns="http://www.w3.org/2000/svg" xmlns:xlink="http://www.w3.org/1999/xlink">
    <title>wave-short-top-1-mobile</title>
    <g id="_PWA---Local" stroke="none" stroke-width="1" fill="none" fill-rule="evenodd">
        <g id="PWA-Icon-Sets-/-Assets" transform="translate(-7894.000000, -1763.000000)">
            <g id="wave-short-top-1-mobile" transform="translate(7894.000000, 1763.000026)">
                <path d="M710,-2.56410258e-05 L710,155.999974 C698.083173,155.002551 686.355303,149.915816 673.80356,142.129544 L672.16162,141.098748 C671.063768,140.401497 669.959353,139.68429 668.84771,138.948042 L667.17474,137.829503 L667.17474,137.829503 L665.708414,136.832553 C664.973045,136.328867 664.234325,135.817421 663.49207,135.298469 L662.002789,134.250632 L660.127426,132.91338 L660.127426,132.91338 L658.236169,131.546447 L656.711288,130.432123 L655.175493,129.299822 L652.850614,127.568653 L651.286089,126.393389 L648.91657,124.599899 L646.518782,122.771053 L643.275831,120.280237 L638.307687,116.43918 L630.833898,110.643611 L627.61145,108.151184 L623.775095,105.196833 L622.308064,106.766497 L622.308064,106.766497 L620.836203,108.324207 L620.836203,108.324207 L619.359219,109.869284 C619.112612,110.125707 618.865779,110.381574 618.618715,110.636873 L617.133498,112.161727 L617.133498,112.161727 L615.642425,113.672249 L615.642425,113.672249 L614.145205,115.167762 C613.89514,115.415725 613.644806,115.663035 613.394198,115.909677 L611.887206,117.3814 C590.741842,137.870156 567.573596,153.446711 538.764734,155.724904 C518.239498,157.348031 499.96721,151.677379 481.364116,141.636084 L479.697215,140.725258 C479.419227,140.571532 479.141149,140.416852 478.862972,140.261228 L477.192644,139.316226 C476.914034,139.156862 476.635308,138.996574 476.356456,138.83537 L474.681774,137.857241 L474.681774,137.857241 L473.003675,136.857611 C472.723684,136.68924 472.443533,136.519993 472.163214,136.349879 L470.479214,135.318872 C470.198188,135.14533 469.916977,134.97094 469.635572,134.795713 L467.944744,133.734379 L467.944744,133.734379 L466.248849,132.653409 L466.248849,132.653409 C392.319452,163.17445 320.934424,167.037078 246.22263,124.513687 L246.218402,124.496883 C231.082481,130.84804 217.53373,134.666641 206.447716,134.666641 C196.040058,134.666641 185.891071,132.111408 175.896797,127.761022 C112.199489,177.41241 54.0968728,161.587624 1.58942223,80.2883286 L0,77.8046724 L0,-2.56410258e-05 L710,-2.56410258e-05 Z" id="BGD" fill="#FFFFFF" fill-rule="nonzero"></path>
                <path d="M598,-2.56410258e-05 L598,77.8046724 C540.639202,168.283779 476.570357,180.243443 405.793464,113.683664 C323.756616,36.5348366 211.644191,-14.5947694 88.2360515,48.6745947 C42.0194698,72.3690914 5.37859499,9.75517264 0.542191413,1.00164236 L0.279230251,0.52171062 L0.10209055,0.192856054 L0,-2.56410258e-05 L598,-2.56410258e-05 Z" id="Path" fill="#9E54B0" fill-rule="nonzero" opacity="0.56" transform="translate(299.000000, 77.999974) scale(1, -1) rotate(-180.000000) translate(-299.000000, -77.999974) "></path>
                <path d="M481,-2.56410258e-05 L481,19.2001688 C402.834515,19.2001688 344.56765,134.999974 274.610439,134.999974 C208.794517,134.999974 56.1522491,-2.56410258e-05 0,-2.56410258e-05 L481,-2.56410258e-05 Z" id="Path" fill="#FF9300" opacity="0.48" transform="translate(240.500000, 67.499974) scale(1, -1) rotate(-180.000000) translate(-240.500000, -67.499974) "></path>
                <path d="M676,155.999974 C476.465118,-99.1399576 318.255546,1.0935872 112,155.999974" id="Oval" fill="#DF216D" fill-rule="nonzero" opacity="0.445284075" transform="translate(394.000000, 77.999974) scale(-1, -1) rotate(-360.000000) translate(-394.000000, -77.999974) "></path>
                <path d="M710,-2.56410258e-05 L710,17.347854 C688.774794,31.1276182 670.472146,51.4975659 652.479641,72.4068571 L649.397763,75.9954614 L649.397763,75.9954614 L643.240543,83.1772736 C612.960227,118.436328 582.289331,152.280411 538.720884,155.724904 C502.140534,158.616922 472.714356,138.353686 435.823685,111.46982 L427.171294,105.155851 C371.449329,64.518378 297.380439,12.455498 159.325384,0.588049918 L152,-2.56410258e-05 L710,-2.56410258e-05 Z" id="Path" fill="#0768FD" fill-rule="nonzero" opacity="0.598414016"></path>
                <path d="M710,-2.56410258e-05 L710,155.999974 C696.03492,154.829086 682.329785,148.022832 667.248942,137.829503 L665.785156,136.832553 C665.051061,136.328867 664.313621,135.817421 663.572652,135.298469 L662.085952,134.250632 L662.085952,134.250632 L660.589509,133.183234 C660.339272,133.003729 660.088615,132.823428 659.837532,132.64234 L658.325859,131.546447 L658.325859,131.546447 L656.803619,130.432123 L656.803619,130.432123 L655.270485,129.299822 L655.270485,129.299822 L652.949634,127.568653 L652.949634,127.568653 L651.387821,126.393389 L651.387821,126.393389 L649.022407,124.599899 L649.022407,124.599899 L646.628773,122.771053 L646.628773,122.771053 L643.391441,120.280237 L643.391441,120.280237 L638.431905,116.43918 L638.431905,116.43918 L630.971066,110.643611 L630.971066,110.643611 L627.754201,108.151184 L627.754201,108.151184 L624.481266,105.625358 C572.755497,65.8069678 499.641811,14.7153439 370.151842,0.443829155 L366,-2.56410258e-05 L710,-2.56410258e-05 Z" id="Path" fill="#00C221" fill-rule="nonzero" opacity="0.4"></path>
            </g>
        </g>
    </g>
</svg>