<?xml version="1.0" encoding="UTF-8"?>
<svg width="711px" height="156px" viewBox="0 0 711 156" version="1.1" xmlns="http://www.w3.org/2000/svg" xmlns:xlink="http://www.w3.org/1999/xlink">
    <title>wave-short-top-2-mobile</title>
    <g id="_PWA---Local" stroke="none" stroke-width="1" fill="none" fill-rule="evenodd">
        <g id="PWA-Icon-Sets-/-Assets" transform="translate(-8924.000000, -1763.000000)" fill-rule="nonzero">
            <g id="wave-short-top-2-mobile" transform="translate(8924.897836, 1763.000026)">
                <path d="M710.102164,-2.56410258e-05 L710.102164,155.999974 C698.185337,155.002226 686.457467,149.915501 673.905724,142.129245 L672.263784,141.098452 C671.165932,140.401202 670.061518,139.683997 668.949874,138.94775 L667.276905,137.829213 L667.276905,137.829213 L665.810578,136.832266 C665.075209,136.328581 664.336489,135.817136 663.594234,135.298185 L662.104953,134.25035 L660.22959,132.913101 L660.22959,132.913101 L658.338333,131.54617 L656.813452,130.431849 L655.277657,129.299551 L652.952778,127.568385 L651.388254,126.393124 L649.018734,124.599638 L646.620946,122.770796 L643.377995,120.279984 L638.409851,116.438935 L630.936062,110.643379 L627.713614,108.150957 L624.434998,105.625136 C621.451466,103.332403 618.396899,101.002295 615.264609,98.6439915 L613.409682,100.38748 L613.409682,100.38748 L611.549706,102.120169 L611.549706,102.120169 L609.684243,103.8412 L609.684243,103.8412 L607.812853,105.549711 L607.812853,105.549711 L605.935097,107.244842 C605.621583,107.526201 605.307786,107.806967 604.993696,108.087121 L603.10557,109.760569 L603.10557,109.760569 L601.209981,111.418485 C574.300882,134.791559 545.013237,153.230045 507.733213,155.724577 C482.720569,157.398257 460.538947,151.316733 437.840514,140.684874 L435.806348,139.720688 C434.788485,139.232599 433.769385,138.735578 432.748749,138.229914 L430.705337,137.207146 C430.023458,136.862439 429.340806,136.513976 428.657293,136.161841 L426.604081,135.094509 C426.261419,134.914814 425.918519,134.734222 425.57537,134.552744 C342.406569,162.889399 261.867418,166.049953 177.806675,126.338469 C113.406533,177.700555 54.7063203,162.358582 1.70647519,80.311211 L0.102164109,77.8045091 L0.102164109,-2.56410258e-05 L710.102164,-2.56410258e-05 Z" id="BGD" fill="#FFFFFF"></path>
                <path d="M598.102164,-2.56410258e-05 L598.102164,77.8046724 C540.741366,168.283779 476.672521,180.243443 405.895628,113.683664 C323.85878,36.5348366 211.746355,-14.5947694 88.3382156,48.6745947 C42.1216339,72.3690914 5.4807591,9.75517264 0.644355522,1.00164236 L0.38139436,0.52171062 L0.204254659,0.192856054 L0.102164109,-2.56410258e-05 L598.102164,-2.56410258e-05 Z" id="Path" fill="#9E54B0" opacity="0.56" transform="translate(299.102164, 77.999974) scale(1, -1) rotate(-180.000000) translate(-299.102164, -77.999974) "></path>
                <path d="M676.102164,155.999974 C442.957683,-99.1399576 258.099336,1.0935872 17.1021641,155.999974" id="Oval" fill="#DF216D" opacity="0.445284075" transform="translate(346.602164, 77.999974) scale(-1, -1) rotate(-360.000000) translate(-346.602164, -77.999974) "></path>
                <path d="M710.102164,-2.56410258e-05 L710.102164,17.347854 C685.03512,31.1276182 663.419627,51.4975659 642.170414,72.4068571 L638.530705,75.9954614 L638.530705,75.9954614 L631.259006,83.1772736 C595.497844,118.436328 559.275407,152.280411 507.820914,155.724904 C464.61939,158.616922 429.866968,138.353686 386.298954,111.46982 L376.080449,105.155851 C310.272609,64.518378 222.796983,12.455498 59.7534692,0.588049918 L51.1021641,-2.56410258e-05 L710.102164,-2.56410258e-05 Z" id="Path" fill="#0768FD" opacity="0.598414016"></path>
                <path d="M709.102164,-2.56410258e-05 L709.102164,155.999974 C695.137084,154.829086 681.431949,148.022832 666.351106,137.829503 L664.88732,136.832553 C664.153225,136.328867 663.415786,135.817421 662.674816,135.298469 L661.188116,134.250632 L661.188116,134.250632 L659.691673,133.183234 C659.441436,133.003729 659.190779,132.823428 658.939696,132.64234 L657.428023,131.546447 L657.428023,131.546447 L655.905783,130.432123 L655.905783,130.432123 L654.372649,129.299822 L654.372649,129.299822 L652.051798,127.568653 L652.051798,127.568653 L650.489985,126.393389 L650.489985,126.393389 L648.124571,124.599899 L648.124571,124.599899 L645.730937,122.771053 L645.730937,122.771053 L642.493605,120.280237 L642.493605,120.280237 L637.534069,116.43918 L637.534069,116.43918 L630.07323,110.643611 L630.07323,110.643611 L626.856366,108.151184 L626.856366,108.151184 L623.58343,105.625358 C571.857661,65.8069678 498.743975,14.7153439 369.254006,0.443829155 L365.102164,-2.56410258e-05 L709.102164,-2.56410258e-05 Z" id="Path" fill="#00C221" opacity="0.4"></path>
            </g>
        </g>
    </g>
</svg>