<?xml version="1.0" encoding="UTF-8"?>
<svg width="1920px" height="182px" viewBox="0 0 1920 182" version="1.1" xmlns="http://www.w3.org/2000/svg" xmlns:xlink="http://www.w3.org/1999/xlink">
    <title>wave-short-top-1</title>
    <g id="_PWA---Local" stroke="none" stroke-width="1" fill="none" fill-rule="evenodd">
        <g id="PWA-Icon-Sets-/-Assets" transform="translate(-7894.000000, -2118.000000)">
            <g id="wave-short-top-1" transform="translate(8854.000000, 2209.000000) scale(1, -1) rotate(-180.000000) translate(-8854.000000, -2209.000000) translate(7894.000000, 2118.000000)">
                <path d="M1920,9.09494702e-13 L1920,73.0405375 C1814.32373,138.047034 1699.18925,159.878169 1574.59656,138.533942 C1573.69074,138.876592 1572.78469,139.217054 1571.8784,139.555269 L1569.1588,140.56311 L1569.1588,140.56311 L1566.43765,141.557107 C1565.98399,141.721599 1565.53026,141.8855 1565.07646,142.048801 L1562.35283,143.02136 C1523.30153,156.856575 1483.70385,166.149254 1442.34026,166.149254 C1432.71601,166.149254 1422.28955,165.48663 1411.16788,164.245116 L1408.85696,163.980019 C1407.69657,163.843368 1406.52883,163.700583 1405.35384,163.551758 L1402.99424,163.246082 C1402.20451,163.141523 1401.4116,163.034307 1400.61554,162.924462 L1398.21795,162.587063 L1398.21795,162.587063 L1395.80168,162.234052 L1395.80168,162.234052 L1393.36694,161.865591 C1392.95962,161.802902 1392.55154,161.739577 1392.14271,161.675619 L1389.68066,161.284294 L1389.68066,161.284294 L1387.20066,160.877932 C1386.78585,160.808961 1386.37029,160.73937 1385.954,160.669163 L1383.44748,160.240555 L1383.44748,160.240555 L1380.92355,159.797322 C1380.50146,159.72224 1380.07864,159.646556 1379.65512,159.570273 L1377.10545,159.105411 L1377.10545,159.105411 L1374.5389,158.626337 L1374.5389,158.626337 L1371.95566,158.133214 L1371.95566,158.133214 L1369.35596,157.626209 L1369.35596,157.626209 L1366.73999,157.105485 C1366.30266,157.017563 1365.86465,156.929077 1365.42598,156.84003 L1362.78602,156.299037 L1362.78602,156.299037 L1360.13034,155.744737 L1360.13034,155.744737 L1357.45912,155.177296 L1357.45912,155.177296 L1354.7726,154.596878 L1354.7726,154.596878 L1352.07098,154.003648 C1351.61946,153.903718 1351.16733,153.803261 1350.71457,153.70228 L1347.99069,153.090141 L1347.99069,153.090141 L1345.25224,152.465601 L1345.25224,152.465601 L1342.49943,151.828827 L1342.49943,151.828827 L1339.73246,151.179981 C1339.27013,151.070844 1338.80722,150.96121 1338.34373,150.851084 L1335.55593,150.184442 L1335.55593,150.184442 L1332.7545,149.506141 L1332.7545,149.506141 L1329.93966,148.816347 L1329.93966,148.816347 L1327.11161,148.115224 L1327.11161,148.115224 L1324.27057,147.402937 L1324.27057,147.402937 L1321.41674,146.67965 L1321.41674,146.67965 L1318.55034,145.945529 L1318.55034,145.945529 C1142.30465,192.44857 973.566753,187.665592 798.94807,153.180802 L798.942348,153.17279 C789.123826,156.192484 779.418767,159.020139 769.765198,161.622131 L766.360093,162.531056 C720.417318,174.67357 675.477996,181.603164 624.838675,179.682609 C556.600433,177.094595 501.516078,159.633525 451.279645,136.533426 L448.07844,137.583601 L448.07844,137.583601 L444.897238,138.619991 L444.897238,138.619991 L441.735533,139.642289 L441.735533,139.642289 L438.59282,140.650188 L438.59282,140.650188 L435.468595,141.643382 L435.468595,141.643382 L432.362351,142.621565 L432.362351,142.621565 L429.273584,143.58443 C428.760218,143.743614 428.247559,143.902147 427.735597,144.060023 L424.672098,144.999337 L424.672098,144.999337 L421.624813,145.922567 C421.118255,146.075082 420.612352,146.226913 420.107093,146.378055 L417.083182,147.276586 L417.083182,147.276586 L414.074221,148.158266 C413.573946,148.303792 413.074272,148.448603 412.57519,148.592692 L409.587709,149.448524 C409.090951,149.589703 408.594762,149.730148 408.099134,149.869853 L405.131996,150.699146 C404.638565,150.835864 404.145672,150.971828 403.653308,151.107033 L400.705376,151.909099 C367.855714,160.762577 337.28287,166.149254 305.821679,166.149254 C232.2329,166.149254 157.333769,131.553822 86.6017161,93.935456 L81.7855977,91.3662538 L81.7855977,91.3662538 L76.9827796,88.7899067 L76.9827796,88.7899067 L72.1936475,86.2086388 L72.1936475,86.2086388 L67.4185874,83.6246737 L67.4185874,83.6246737 L62.657985,81.0402353 L62.657985,81.0402353 L57.9122261,78.4575476 L57.9122261,78.4575476 L37.1092999,67.1122197 L37.1092999,67.1122197 L30.842202,63.7040653 C20.4231365,58.0476773 10.1358668,52.5181701 4.54747351e-13,47.2285611 L4.54747351e-13,9.09494702e-13 L1920,9.09494702e-13 Z" id="BGD" fill="#FFFFFF" fill-rule="nonzero"></path>
                <path d="M1920,2 L1920,75.0405375 C1781.92115,159.9794 1627.69469,171.206746 1457.32062,108.722576 C1259.84161,36.2977486 989.964694,-11.7010741 692.896748,47.6941614 C581.64424,69.9377895 493.442364,11.1578651 481.800178,2.94033356 L481.167178,2.48978915 L480.740768,2.18107111 L480.495015,2 L1920,2 Z" id="Path" fill="#9E54B0" fill-rule="nonzero" opacity="0.56"></path>
                <path d="M1919.99959,2.169 L1919.99959,25.7753196 C1739.09668,25.7753196 1604.24629,168.149254 1442.34026,168.149254 C1290.01866,168.149254 936.749802,2.169 806.793395,2.169 L1919.99959,2.169 Z" id="Path" fill="#FF9300" opacity="0.48"></path>
                <path d="M1650.33482,181.940299 C1170.24738,-112.354288 789.589991,3.26144244 293.332417,181.940299" id="Oval" fill="#DF216D" fill-rule="nonzero" opacity="0.445284075" transform="translate(971.833620, 91.970149) scale(-1, 1) rotate(-180.000000) translate(-971.833620, -91.970149) "></path>
                <path d="M1555.00859,2 C962.913412,23.1361374 850.443252,190.238924 624.838675,181.682609 C399.234098,173.126294 317.408127,2 79.2024751,2 C79.2024751,2 1336.71144,2 1555.00859,2 Z" id="Rectangle" fill="#0768FD" fill-rule="nonzero" opacity="0.598414016"></path>
                <path d="M1146,2 C810.591277,17.2589077 630.116702,77.464543 502.95408,121.01744 L490.811035,125.178183 C418.910391,149.805914 363.878588,168.149254 305.821679,168.149254 C222.198067,168.149254 136.882368,123.475401 57.9122261,80.4575476 L52.001489,77.2350374 L40.2544164,70.8260209 C26.6091245,63.3869724 13.1766268,56.1050528 4.54747351e-13,49.2285611 L4.54747351e-13,2 L1146,2 Z" id="Path" fill="#00C221" fill-rule="nonzero" opacity="0.4"></path>
            </g>
        </g>
    </g>
</svg>