<?xml version="1.0" encoding="UTF-8"?>
<svg width="142px" height="142px" viewBox="0 0 142 142" version="1.1" xmlns="http://www.w3.org/2000/svg" xmlns:xlink="http://www.w3.org/1999/xlink">
    <title>icon-charts-js</title>
    <g id="_PWA---Local" stroke="none" stroke-width="1" fill="none" fill-rule="evenodd">
        <g id="PWA-Icon-Sets" transform="translate(-7990.000000, -918.000000)">
            <g id="icon-charts-js" transform="translate(7990.000000, 918.000000)">
                <rect id="BASE_TRANS" opacity="0.288334438" x="0" y="0" width="142" height="142"></rect>
                <g id="chartjs-logo" transform="translate(31.000000, 10.000000)" fill-rule="nonzero">
                    <path d="M77.1428571,46.6836558 C64.3459835,46.9388675 67.0114267,55.1707531 57.9927431,57.2525598 C48.8310328,59.3675032 47.3847481,34.5154639 38.2253263,34.5154639 C29.0647602,34.5154639 27.0354992,58.6565148 15.56534,75.2295794 L15.2380952,75.6987271 L39.8300844,90.1237113 L77.1428571,68.2353834 L77.1428571,46.6836558 Z" id="Path" fill="#36A2EB"></path>
                    <path d="M78.0952381,45.6447243 C73.7851555,40.0214353 70.8616901,33.556701 64.5721238,33.556701 C53.4417731,33.556701 56.3704189,52.0152495 44.0693006,52.0152495 C31.767031,52.0152495 30.4736609,32.1605338 16.5372668,50.8244698 C12.0965233,56.7713466 8.52205584,63.4022634 5.71428571,69.676824 L40.5546953,90.1237113 L78.0952381,68.0922386 L78.0952381,45.6447243 Z" id="Path" fill="#FFCE56"></path>
                    <path d="M2.85714286,53.2087348 C7.08962097,41.2911998 8.91631192,31.6391753 16.9965499,31.6391753 C29.3231088,31.6391753 32.2572348,66.8498874 42.8245871,63.2677653 C53.3902091,59.6874026 52.2158666,40.5897888 68.6526244,40.5897888 C71.7811283,40.5897888 74.9753861,42.5386087 78.0952381,45.6908527 L78.0952381,68.0427552 L40.4770557,90.1237113 L2.85714286,68.0427552 L2.85714286,53.2087348 L2.85714286,53.2087348 Z" id="Path" fill="#FE6184" opacity="0.8"></path>
                    <path d="M40,93 L0,69.7505812 L0,23.25 L40,0 L80,23.25 L80,69.75 L40,93 Z M4.69953241,67.0187063 L40,87.5374125 L75.3004676,67.0187063 L75.3004676,25.981875 L40,5.46316875 L4.69953241,25.981875 L4.69953241,67.0187063 Z" id="Shape" fill="#E7E9ED"></path>
                </g>
                <g id="ChartsJs" transform="translate(35.000000, 109.000000)" fill="#656565" fill-rule="nonzero">
                    <path d="M6.98843112,14 C9.18006928,14 10.7927842,13.0666667 12.0126582,11.5855072 L11.0202183,10.9768116 C10.1518334,12.1536232 8.64249766,12.9449275 6.98843112,12.9449275 C3.74232554,12.9449275 1.2405499,10.4898551 1.2405499,7 C1.2405499,3.46956522 3.74232554,1.05507246 6.98843112,1.05507246 C8.64249766,1.05507246 10.1518334,1.84637681 11.0202183,3.02318841 L12.0126582,2.3942029 C10.8341358,0.953623188 9.18006928,0 6.98843112,0 C3.08069893,0 0,2.84057971 0,7 C0,11.1594203 3.08069893,14 6.98843112,14 Z" id="Path"></path>
                    <path d="M20.2362199,14 L21.2531646,14 L21.2531646,7.33933033 C21.2531646,5.203998 20.1971067,4.30284858 18.2805572,4.30284858 C16.9115933,4.30284858 15.5621861,5.14522739 14.8777041,5.96801599 L14.8777041,0.933333333 L13.8607595,0.933333333 L13.8607595,14 L14.8777041,14 L14.8777041,6.84957521 C15.4839595,5.9876062 16.7355837,5.22358821 17.9480946,5.22358821 C19.3170585,5.22358821 20.2362199,5.73293353 20.2362199,7.55482259 L20.2362199,14 Z" id="Path"></path>
                    <path d="M31.3433174,13.757002 L32.3417722,13.757002 L32.3417722,6.87205786 C32.3417722,4.68507561 30.8440901,3.73333333 28.962387,3.73333333 C27.4263028,3.73333333 26.3510439,4.2800789 25.3909913,5.37357002 L25.9478218,6.1025641 C26.7926681,5.09007232 27.6951175,4.66482577 28.8471807,4.66482577 C30.2296564,4.66482577 31.3433174,5.45456936 31.3433174,6.91255753 L31.3433174,8.89704142 C30.5368733,7.94529915 29.4808154,7.49980276 28.1943449,7.49980276 C26.5814565,7.49980276 24.9493671,8.61354372 24.9493671,10.7397765 C24.9493671,12.8457594 26.6006576,14 28.1943449,14 C29.4808154,14 30.5176722,13.5545036 31.3433174,12.6027613 L31.3433174,13.757002 Z M31.3433174,11.8332676 C30.6904817,12.7242604 29.6536249,13.1697567 28.5399638,13.1697567 C27.0038797,13.1697567 26.005425,12.1370151 26.005425,10.7600263 C26.005425,9.36278764 27.0038797,8.33004602 28.5399638,8.33004602 C29.6536249,8.33004602 30.6904817,8.79579224 31.3433174,9.68678501 L31.3433174,11.8332676 Z" id="Shape"></path>
                    <path d="M35.1139241,14 L36.2313806,14 L36.2313806,6.66964165 C36.7041507,5.79499662 38.122461,4.87870183 39.1754489,4.87870183 C39.3903444,4.87870183 39.5407713,4.87870183 39.7341772,4.92035159 L39.7341772,3.73333333 C38.2943774,3.73333333 37.1124522,4.54550372 36.2313806,5.67004733 L36.2313806,3.94158215 L35.1139241,3.94158215 L35.1139241,14 Z" id="Path"></path>
                    <path d="M44.433532,14 C45.2964587,14 45.7926415,13.7499203 46.2025316,13.3748006 L45.7710683,12.5412015 C45.5337635,12.7912812 45.1023002,13.020521 44.6061173,13.020521 C43.8726297,13.020521 43.527459,12.4578416 43.527459,11.6450824 L43.527459,4.64284955 L45.6416293,4.64284955 L45.6416293,3.68421053 L43.527459,3.68421053 L43.527459,0.933333333 L42.3840812,0.933333333 L42.3840812,3.68421053 L40.6582278,3.68421053 L40.6582278,4.64284955 L42.3840812,4.64284955 L42.3840812,11.8118022 C42.3840812,13.1872408 43.0528493,14 44.433532,14 Z" id="Path"></path>
                    <path d="M46.2025316,12.4610125 C47.1693857,13.5342538 48.3779533,14 49.9490912,14 C52.3863691,14 53.5949367,12.7040105 53.5949367,11.1245233 C53.5949367,9.03879027 51.721657,8.57304405 50.0498051,8.1477975 C48.700238,7.8035503 47.4513848,7.5200526 47.4513848,6.40631164 C47.4513848,5.39381986 48.3779533,4.6243261 49.8886628,4.6243261 C51.1778015,4.6243261 52.2252268,5.15082183 52.789225,5.92031558 L53.373366,5.17107166 C52.6683682,4.38132807 51.5605146,3.73333333 49.8886628,3.73333333 C47.6930983,3.73333333 46.4241024,4.94832347 46.4241024,6.44681131 C46.4241024,8.35029586 48.216811,8.77554241 49.8483772,9.18053912 C51.2382299,9.54503616 52.5676543,9.88928337 52.5676543,11.1245233 C52.5676543,12.2585141 51.6008002,13.1090072 49.969234,13.1090072 C48.599524,13.1090072 47.4513848,12.4610125 46.8269582,11.6712689 L46.2025316,12.4610125 Z" id="Path"></path>
                    <path d="M55.443038,12.3092784 C56.3150643,13.4845361 57.4050972,14 58.8320494,14 C61.031934,14 62.835443,12.6391753 62.835443,9.77319588 L62.835443,0 L61.6859538,0 L61.6859538,9.77319588 C61.6859538,11.628866 60.5761021,12.9278351 58.7725931,12.9278351 C57.5240099,12.9278351 56.7312587,12.2268041 56.1366953,11.4226804 L55.443038,12.3092784 Z" id="Path"></path>
                    <path d="M65.6075949,12.4610125 C66.574449,13.5342538 67.7830166,14 69.3541545,14 C71.7914324,14 73,12.7040105 73,11.1245233 C73,9.03879027 71.1267202,8.57304405 69.4548684,8.1477975 C68.1053013,7.8035503 66.8564481,7.5200526 66.8564481,6.40631164 C66.8564481,5.39381986 67.7830166,4.6243261 69.2937261,4.6243261 C70.5828648,4.6243261 71.6302901,5.15082183 72.1942883,5.92031558 L72.7784293,5.17107166 C72.0734315,4.38132807 70.9655779,3.73333333 69.2937261,3.73333333 C67.0981616,3.73333333 65.8291657,4.94832347 65.8291657,6.44681131 C65.8291657,8.35029586 67.6218742,8.77554241 69.2534405,9.18053912 C70.6432932,9.54503616 71.9727176,9.88928337 71.9727176,11.1245233 C71.9727176,12.2585141 71.0058635,13.1090072 69.3742972,13.1090072 C68.0045873,13.1090072 66.8564481,12.4610125 66.2320215,11.6712689 L65.6075949,12.4610125 Z" id="Path"></path>
                </g>
            </g>
        </g>
    </g>
</svg>