<?xml version="1.0" encoding="UTF-8"?>
<svg width="142px" height="142px" viewBox="0 0 142 142" version="1.1" xmlns="http://www.w3.org/2000/svg" xmlns:xlink="http://www.w3.org/1999/xlink">
    <title>icon-apollo-ds</title>
    <defs>
        <linearGradient x1="50%" y1="0.81070053%" x2="50%" y2="100%" id="linearGradient-1">
            <stop stop-color="#7B64A0" offset="0%"></stop>
            <stop stop-color="#5C9FC7" offset="100%"></stop>
        </linearGradient>
    </defs>
    <g id="_PWA---Local" stroke="none" stroke-width="1" fill="none" fill-rule="evenodd">
        <g id="PWA-Icon-Sets" transform="translate(-8060.000000, -1082.000000)">
            <g id="icon-apollo-ds" transform="translate(8060.000000, 1082.000000)">
                <rect id="BASE_TRANS" opacity="0.288334438" x="0" y="0" width="142" height="142"></rect>
                <g id="Group" transform="translate(30.000000, 13.000000)">
                    <path d="M40,0 L40,0 L40,0 C40,0 0.00925925926,74.8156818 0,74.8026364 C10.1944444,69.9851364 21.3851852,66.953 33.1759259,66.1031818 C34.7388889,61.6323182 35.5425926,55.9724545 35.5425926,51.3599545 C35.5425926,51.3599545 31.7203704,51.5053182 28.1148148,51.9432727 L31.0851852,43.4078182 C37.0259259,43.4078182 35.5407407,31.2457273 39.9981481,25.4460909 L39.9981481,25.4460909 C39.9981481,25.4460909 39.9981481,25.4460909 39.9981481,25.4460909 C39.9981481,25.4460909 39.9981481,25.4460909 39.9981481,25.4460909 L39.9981481,25.4460909 C44.4537037,31.2457273 42.9685185,43.4078182 48.9111111,43.4078182 L51.8814815,51.9432727 C48.2777778,51.5071818 44.4537037,51.3599545 44.4537037,51.3599545 C44.4537037,55.9724545 45.2574074,61.6323182 46.8203704,66.1031818 C58.6111111,66.953 69.8018519,69.9851364 79.9962963,74.8026364 C79.9907407,74.8156818 40,0 40,0 Z" id="A_Upper" fill="url(#linearGradient-1)"></path>
                    <path d="M51.7962963,75.6543182 C59.6425926,76.7464091 67.1481481,78.9119545 74.162963,82 C76.3277778,79.7990455 78.2833333,77.3893636 80,74.8026364 C69.8055556,69.9851364 58.6148148,66.9511364 46.8240741,66.1031818 C48.0240741,69.5378636 49.6814815,72.7209545 51.7962963,75.6543182 Z M33.1777778,66.1031818 C21.387037,66.953 10.1962963,69.9851364 0.00185185185,74.8026364 C1.71851852,77.3875 3.67407407,79.7971818 5.83888889,82 C12.8537037,78.9119545 20.3592593,76.7464091 28.2055556,75.6543182 C30.3185185,72.7209545 31.9759259,69.5378636 33.1777778,66.1031818 Z" id="Combined-Shape" fill="#4E76AD"></path>
                </g>
                <g id="Apollo-DS" transform="translate(30.100000, 106.460000)" fill="#4E76AD" fill-rule="nonzero">
                    <path d="M10.82,13.54 L13.1,13.54 L7.8,0.2 L5.3,0.2 L-1.8189894e-12,13.54 L2.28,13.54 L3.36,10.78 L9.74,10.78 L10.82,13.54 Z M6.54,2.24 L9.16,9 L3.94,9 L6.54,2.24 Z" id="Shape"></path>
                    <path d="M15.7933333,17.22 L15.7933333,12.14 C16.5733333,13.2 17.6933333,13.78 18.9533333,13.78 C21.4733333,13.78 23.2533333,11.86 23.2533333,8.7 C23.2533333,5.54 21.4733333,3.64 18.9533333,3.64 C17.6533333,3.64 16.4933333,4.3 15.7933333,5.26 L15.7933333,3.88 L13.9933333,3.88 L13.9933333,17.22 L15.7933333,17.22 Z M21.3733333,8.7 C21.3733333,10.72 20.2733333,12.18 18.4733333,12.18 C17.3733333,12.18 16.2733333,11.52 15.7933333,10.76 L15.7933333,6.66 C16.2733333,5.88 17.3733333,5.24 18.4733333,5.24 C20.2733333,5.24 21.3733333,6.7 21.3733333,8.7 Z" id="Shape"></path>
                    <path d="M29.1466667,13.78 C32.1666667,13.78 34.0266667,11.5 34.0266667,8.7 C34.0266667,5.92 32.1666667,3.64 29.1466667,3.64 C26.1466667,3.64 24.2666667,5.92 24.2666667,8.7 C24.2666667,11.5 26.1466667,13.78 29.1466667,13.78 Z M29.1466667,12.18 C27.2266667,12.18 26.1466667,10.54 26.1466667,8.7 C26.1466667,6.88 27.2266667,5.24 29.1466667,5.24 C31.0866667,5.24 32.1466667,6.88 32.1466667,8.7 C32.1466667,10.54 31.0866667,12.18 29.1466667,12.18 Z" id="Shape"></path>
                    <polygon id="Path" points="35.64 13.54 37.44 13.54 37.44 0.2 35.64 0.2"></polygon>
                    <polygon id="Path" points="39.6333333 13.54 41.4333333 13.54 41.4333333 0.2 39.6333333 0.2"></polygon>
                    <path d="M47.9066667,13.78 C50.9266667,13.78 52.7866667,11.5 52.7866667,8.7 C52.7866667,5.92 50.9266667,3.64 47.9066667,3.64 C44.9066667,3.64 43.0266667,5.92 43.0266667,8.7 C43.0266667,11.5 44.9066667,13.78 47.9066667,13.78 Z M47.9066667,12.18 C45.9866667,12.18 44.9066667,10.54 44.9066667,8.7 C44.9066667,6.88 45.9866667,5.24 47.9066667,5.24 C49.8466667,5.24 50.9066667,6.88 50.9066667,8.7 C50.9066667,10.54 49.8466667,12.18 47.9066667,12.18 Z" id="Shape"></path>
                    <path d="M58.9333333,13.54 L63.6933333,13.54 C67.8533333,13.54 70.6133333,10.74 70.6133333,6.88 C70.6133333,3.04 67.8533333,0.2 63.6933333,0.2 L58.9333333,0.2 L58.9333333,13.54 Z M60.9333333,11.78 L60.9333333,1.96 L63.6933333,1.96 C66.8333333,1.96 68.5533333,4.14 68.5533333,6.88 C68.5533333,9.58 66.7733333,11.78 63.6933333,11.78 L60.9333333,11.78 Z" id="Shape"></path>
                    <path d="M71.5466667,11.66 C72.6866667,12.92 74.4266667,13.78 76.8066667,13.78 C80.4066667,13.78 81.8466667,11.84 81.8466667,9.76 C81.8466667,6.92 79.3066667,6.24 77.1266667,5.66 C75.4666667,5.24 74.0266667,4.86 74.0266667,3.66 C74.0266667,2.54 75.0466667,1.78 76.5266667,1.78 C77.9666667,1.78 79.3666667,2.26 80.3866667,3.34 L81.5466667,1.86 C80.3666667,0.66 78.7466667,0 76.6866667,0 C73.9066667,0 71.9666667,1.6 71.9666667,3.8 C71.9666667,6.52 74.4466667,7.14 76.5866667,7.7 C78.2866667,8.14 79.8066667,8.54 79.8066667,9.94 C79.8066667,10.9 79.0466667,12 76.8866667,12 C75.0266667,12 73.5866667,11.12 72.6866667,10.12 L71.5466667,11.66 Z" id="Path"></path>
                </g>
            </g>
        </g>
    </g>
</svg>