<?xml version="1.0" encoding="UTF-8"?>
<svg width="142px" height="142px" viewBox="0 0 142 142" version="1.1" xmlns="http://www.w3.org/2000/svg" xmlns:xlink="http://www.w3.org/1999/xlink">
    <title>icon-redux</title>
    <g id="_PWA---Local" stroke="none" stroke-width="1" fill="none" fill-rule="evenodd">
        <g id="PWA-Icon-Sets" transform="translate(-8343.000000, -918.000000)">
            <g id="icon-redux" transform="translate(8343.000000, 918.000000)">
                <rect id="BASE_TRANS" opacity="0.288334438" x="0" y="0" width="142" height="142"></rect>
                <g id="Group" transform="translate(35.890000, 21.000000)" fill="#764ABC" fill-rule="nonzero">
                    <path d="M48.5397684,46.4177215 C51.1250081,46.1518987 53.0862244,43.9367089 52.9970782,41.278481 C52.907932,38.6202532 50.6792771,36.4936709 48.0048912,36.4936709 L47.8265988,36.4936709 C45.0630668,36.5822785 42.923558,38.8860759 43.0127042,41.6329114 C43.1018504,42.9620253 43.6367276,44.1139241 44.4390434,44.9113924 C41.4080727,50.8481013 36.7724705,55.1898734 29.8190672,58.8227848 C25.0943188,61.3037975 20.1912779,62.1898734 15.2882371,61.5696203 C11.2766583,61.0379747 8.15654143,59.2658228 6.19532511,56.3417722 C3.34264682,52 3.07520823,47.3037975 5.48215553,42.6075949 C7.17593327,39.2405063 9.85031916,36.7594937 11.5440969,35.5189873 C11.1875121,34.3670886 10.6526349,32.4177215 10.3851963,31 C-2.54100215,40.3037975 -1.2038092,52.8860759 2.71862344,58.8227848 C5.66044793,63.2531646 11.6332431,66 18.2300616,66 C20.0129856,66 21.7959095,65.8227848 23.5788334,65.3797468 C34.9895466,63.164557 43.6367276,56.4303797 48.5397684,46.4177215 L48.5397684,46.4177215 Z" id="Path"></path>
                    <path d="M65.1477347,35.9477756 C58.3399026,28.0290135 48.307308,23.6692456 36.8414856,23.6692456 L35.4082578,23.6692456 C34.6020672,22.0676983 32.9001091,21 31.0189976,21 L30.8398442,21 C28.0629653,21.0889749 25.9131236,23.4023211 26.0027003,26.1605416 C26.0922771,28.8297872 28.3316955,30.9651838 31.0189976,30.9651838 L31.1981511,30.9651838 C33.1688394,30.8762089 34.8707974,29.6305609 35.5874113,27.9400387 L37.1997925,27.9400387 C44.0076246,27.9400387 50.4571497,29.8974855 56.2796377,33.7234043 C60.7584745,36.6595745 63.9832371,40.4854932 65.7747718,45.1121857 C67.2975764,48.8491296 67.2079996,52.4970986 65.5956184,55.6112186 C63.0874697,60.3268859 58.877363,62.9071567 53.3236053,62.9071567 C49.7405358,62.9071567 46.3366198,61.8394584 44.545085,61.0386847 C43.5597409,61.9284333 41.7682062,63.3520309 40.5141318,64.2417795 C44.3659316,66.0212766 48.307308,67 52.069531,67 C60.6688978,67 67.0288462,62.2843327 69.4474181,57.5686654 C72.0451435,52.4081238 71.86599,43.5106383 65.1477347,35.9477756 Z" id="Path"></path>
                    <path d="M18.9609875,48.1655405 C19.0503287,50.8513514 21.2838597,53 23.9640969,53 L24.1427794,53 C26.9123579,52.910473 29.0565476,50.5827703 28.9672064,47.8074324 C28.8778651,45.1216216 26.6443341,42.972973 23.9640969,42.972973 L23.7854145,42.972973 C23.606732,42.972973 23.3387083,42.972973 23.1600258,43.0625 C19.4970349,36.9746622 17.9782338,30.3496622 18.5142813,23.1875 C18.8716462,17.8158784 20.658471,13.160473 23.7854145,9.31081081 C26.3763104,5.99831081 31.3794199,4.38682432 34.774387,4.2972973 C44.2445585,4.11824324 48.2649143,15.9358108 48.532938,20.6807432 C49.6943741,20.9493243 51.6598814,21.5760135 53,22.0236486 C51.9279051,7.52027027 42.9937811,0 34.417022,0 C26.3763104,0 18.9609875,5.81925676 16.0127266,14.4138514 C11.9030295,25.8733108 14.5832667,36.8851351 19.5863762,45.5692568 C19.13967,46.1959459 18.8716462,47.1807432 18.9609875,48.1655405 L18.9609875,48.1655405 Z" id="Path"></path>
                </g>
                <g id="REDUX-TOOLKIT" transform="translate(17.000000, 104.830000)" fill="#764ABC" fill-rule="nonzero">
                    <path d="M5.76,10.17 L7.5,10.17 L4.935,6.165 C6.21,6 7.425,5.04 7.425,3.24 C7.425,1.395 6.12,0.165 4.215,0.165 L0,0.165 L0,10.17 L1.5,10.17 L1.5,6.315 L3.375,6.315 L5.76,10.17 Z M5.88,3.24 C5.88,4.29 5.1,4.995 4.02,4.995 L1.5,4.995 L1.5,1.485 L4.02,1.485 C5.1,1.485 5.88,2.19 5.88,3.24 Z" id="Shape"></path>
                    <polygon id="Path" points="9.27 10.17 15.99 10.17 15.99 8.85 10.77 8.85 10.77 5.73 15.885 5.73 15.885 4.41 10.77 4.41 10.77 1.485 15.99 1.485 15.99 0.165 9.27 0.165"></polygon>
                    <path d="M17.865,10.17 L21.435,10.17 C24.555,10.17 26.625,8.07 26.625,5.175 C26.625,2.295 24.555,0.165 21.435,0.165 L17.865,0.165 L17.865,10.17 Z M19.365,8.85 L19.365,1.485 L21.435,1.485 C23.79,1.485 25.08,3.12 25.08,5.175 C25.08,7.2 23.745,8.85 21.435,8.85 L19.365,8.85 Z" id="Shape"></path>
                    <path d="M28.44,6.255 C28.44,8.715 29.85,10.35 32.655,10.35 C35.46,10.35 36.855,8.73 36.855,6.24 L36.855,0.165 L35.34,0.165 L35.34,6.21 C35.34,7.92 34.41,9.015 32.655,9.015 C30.9,9.015 29.955,7.92 29.955,6.21 L29.955,0.165 L28.44,0.165 L28.44,6.255 Z" id="Path"></path>
                    <polygon id="Path" points="45.9 10.17 47.7 10.17 43.89 5.025 47.475 0.165 45.66 0.165 42.9 4.005 40.125 0.165 38.31 0.165 41.925 5.04 38.085 10.17 39.9 10.17 42.9 6.09"></polygon>
                    <polygon id="Path" points="55.245 10.17 56.745 10.17 56.745 1.485 59.835 1.485 59.835 0.165 52.14 0.165 52.14 1.485 55.245 1.485"></polygon>
                    <path d="M60.585,5.175 C60.585,8.145 62.64,10.35 65.625,10.35 C68.61,10.35 70.665,8.145 70.665,5.175 C70.665,2.205 68.61,0 65.625,0 C62.64,0 60.585,2.205 60.585,5.175 Z M69.12,5.175 C69.12,7.365 67.74,9.015 65.625,9.015 C63.48,9.015 62.13,7.365 62.13,5.175 C62.13,2.97 63.48,1.335 65.625,1.335 C67.74,1.335 69.12,2.97 69.12,5.175 Z" id="Shape"></path>
                    <path d="M72.06,5.175 C72.06,8.145 74.115,10.35 77.1,10.35 C80.085,10.35 82.14,8.145 82.14,5.175 C82.14,2.205 80.085,0 77.1,0 C74.115,0 72.06,2.205 72.06,5.175 Z M80.595,5.175 C80.595,7.365 79.215,9.015 77.1,9.015 C74.955,9.015 73.605,7.365 73.605,5.175 C73.605,2.97 74.955,1.335 77.1,1.335 C79.215,1.335 80.595,2.97 80.595,5.175 Z" id="Shape"></path>
                    <polygon id="Path" points="83.955 10.17 90 10.17 90 8.85 85.455 8.85 85.455 0.165 83.955 0.165"></polygon>
                    <polygon id="Path" points="97.665 10.17 99.525 10.17 95.07 4.905 99.195 0.165 97.335 0.165 93.15 5.13 93.15 0.165 91.65 0.165 91.65 10.17 93.15 10.17 93.15 6.885 94.095 5.82"></polygon>
                    <polygon id="Path" points="100.815 10.17 102.315 10.17 102.315 0.165 100.815 0.165"></polygon>
                    <polygon id="Path" points="106.995 10.17 108.495 10.17 108.495 1.485 111.585 1.485 111.585 0.165 103.89 0.165 103.89 1.485 106.995 1.485"></polygon>
                </g>
            </g>
        </g>
    </g>
</svg>