<?xml version="1.0" encoding="UTF-8"?>
<svg width="142px" height="142px" viewBox="0 0 142 142" version="1.1" xmlns="http://www.w3.org/2000/svg" xmlns:xlink="http://www.w3.org/1999/xlink">
    <title>icon-react</title>
    <g id="_PWA---Local" stroke="none" stroke-width="1" fill="none" fill-rule="evenodd">
        <g id="PWA-Icon-Sets" transform="translate(-7894.000000, -744.000000)">
            <g id="icon-react" transform="translate(7894.000000, 744.000000)">
                <rect id="BASE_TRANS" opacity="0.288334438" x="0" y="0" width="142" height="142"></rect>
                <path d="M72.8394161,93.4525547 C41.5207871,93.4525547 17,82.6934307 17,69 C17,55.3065693 41.5207871,44.5474453 72.8394161,44.5474453 C104.158045,44.5474453 128.678832,55.3065693 128.678832,69 C128.678832,82.6934307 104.158045,93.4525547 72.8394161,93.4525547 Z M72.8394161,49.4379562 C42.2491273,49.4379562 21.8556014,59.4635036 21.8556014,69 C21.8556014,78.5364964 42.2491273,88.5620438 72.8394161,88.5620438 C103.429705,88.5620438 123.823231,78.5364964 123.823231,69 C123.823231,59.4635036 103.429705,49.4379562 72.8394161,49.4379562 Z" id="Shape" fill="#61DAFB" fill-rule="nonzero"></path>
                <path d="M50.9792091,119 C48.5507872,119 46.6080496,118.513913 44.665312,117.298695 C32.7660444,110.493475 35.922993,84.0017238 51.4648935,56.7808423 L51.4648935,56.7808423 C58.7501594,44.1425759 67.7353207,33.4486582 76.4776398,26.6434378 C85.9484854,19.3521303 94.4479623,17.164738 100.276175,20.5673482 C106.34723,23.9699584 108.53281,32.4764839 107.075757,44.3856195 C105.618703,55.5656244 100.761859,68.689978 93.4765935,81.3282444 C86.1913276,93.9665108 77.2061664,104.660429 68.4638473,111.465649 C62.1499502,116.326521 56.0788953,119 50.9792091,119 Z M94.2051201,23.7269148 C90.319645,23.7269148 85.2199588,25.9143071 79.6345883,30.2890916 C71.3779536,36.8512684 62.8784768,47.059099 55.8360531,59.2112782 L55.8360531,59.2112782 C40.5369947,85.7030289 39.0799415,108.549126 47.093734,113.166954 C51.2220513,115.59739 58.0216328,113.409998 65.5497409,107.576952 C73.8063756,101.014775 82.3058525,90.8069442 89.3482762,78.654765 C96.3906999,66.5025857 101.004702,54.1073629 102.461755,43.6564888 C103.675966,33.9347454 102.218913,27.129525 98.0905952,24.6990892 C96.8763843,24.213002 95.6621733,23.7269148 94.2051201,23.7269148 Z" id="Shape" fill="#61DAFB" fill-rule="nonzero"></path>
                <path d="M94.7629743,119 C82.5502041,119 64.9638151,104.175788 51.7740233,81.0889001 C35.8974221,53.8706746 32.7221019,27.3815086 44.6906166,20.5769522 L44.6906166,20.5769522 C56.6591314,13.7723958 78.1536069,29.5686874 94.0302081,56.786913 C101.35787,69.4239463 106.242978,82.5470193 107.708511,93.7259334 C109.418298,105.633907 106.975744,113.896583 100.869359,117.541881 C98.9153161,118.51396 96.9612729,119 94.7629743,119 Z M47.1331706,24.70829 C39.0727423,29.3256676 40.5382748,52.1695355 55.9263652,78.6587014 C71.3144556,105.147867 90.366377,117.784901 98.4268053,113.167523 C102.579147,110.737324 104.04468,103.932768 102.823403,94.2119732 C101.35787,83.7621187 96.7170175,71.3681053 89.6336108,59.2171117 C74.2455204,32.7279458 55.193599,20.0909125 47.1331706,24.70829 L47.1331706,24.70829 Z" id="Shape" fill="#61DAFB" fill-rule="nonzero"></path>
                <circle id="Oval" fill="#61DAFB" fill-rule="nonzero" cx="72.8394161" cy="69" r="9.8540146"></circle>
            </g>
        </g>
    </g>
</svg>