<?xml version="1.0" encoding="UTF-8"?>
<svg width="142px" height="142px" viewBox="0 0 142 142" version="1.1" xmlns="http://www.w3.org/2000/svg" xmlns:xlink="http://www.w3.org/1999/xlink">
    <title>icon-animatecss</title>
    <g id="_PWA---Local" stroke="none" stroke-width="1" fill="none" fill-rule="evenodd">
        <g id="PWA-Icon-Sets" transform="translate(-8262.000000, -1253.000000)">
            <g id="icon-animatecss" transform="translate(8262.000000, 1253.000000)">
                <rect id="BASE_TRANS" opacity="0.288334438" x="0" y="0" width="142" height="142"></rect>
                <rect id="Rectangle" fill="#FCE5CD" x="11" y="42" width="122" height="58"></rect>
                <rect id="Rectangle" fill="#E69137" x="19.9862415" y="76.9409781" width="102.925758" height="5.05902192"></rect>
                <g id="Animate.css" transform="translate(19.912000, 60.000000)" fill="#341C74" fill-rule="nonzero">
                    <path d="M13.088,13 L8.25996532,1 L4.91603468,1 L0.088,13 L3.11256647,13 L3.90158382,10.9670165 L9.27441618,10.9670165 L10.0634335,13 L13.088,13 Z M8.54175723,8.71814093 L4.63424277,8.71814093 L6.588,3.55472264 L8.54175723,8.71814093 Z" id="Shape"></path>
                    <path d="M22.088,13 L22.088,6.8 C22.088,5.09090909 21.1893216,4 19.303859,4 C17.9294097,4 16.872141,4.69090909 16.3258855,5.34545455 L16.3258855,4.21818182 L14.088,4.21818182 L14.088,13 L16.3258855,13 L16.3258855,7.07272727 C16.7135507,6.56363636 17.3831542,6.05454545 18.2642115,6.05454545 C19.2157533,6.05454545 19.8324934,6.47272727 19.8324934,7.69090909 L19.8324934,13 L22.088,13 Z" id="Path"></path>
                    <path d="M25.5780662,2.86151603 C26.4125033,2.86151603 27.088,2.21720117 27.088,1.4212828 C27.088,0.625364431 26.4125033,0 25.5780662,0 C24.7634967,0 24.088,0.625364431 24.088,1.4212828 C24.088,2.21720117 24.7634967,2.86151603 25.5780662,2.86151603 Z M26.8495894,13 L26.8495894,3.84693878 L24.3264106,3.84693878 L24.3264106,13 L26.8495894,13 Z" id="Shape"></path>
                    <path d="M43.088,13 L43.088,6.65454545 C43.088,4.85454545 42.1402696,4 40.5487978,4 C39.2255516,4 38.0811224,4.8 37.5804347,5.58181818 C37.2764457,4.6 36.4538872,4 35.1842861,4 C33.8610399,4 32.7344924,4.83636364 32.3589766,5.34545455 L32.3589766,4.21818182 L30.088,4.21818182 L30.088,13 L32.3589766,13 L32.3589766,7.07272727 C32.698729,6.6 33.3603521,6.05454545 34.1471472,6.05454545 C35.0769959,6.05454545 35.43463,6.63636364 35.43463,7.45454545 L35.43463,13 L37.7234883,13 L37.7234883,7.07272727 C38.045359,6.6 38.7069821,6.05454545 39.5116589,6.05454545 C40.4415076,6.05454545 40.7991417,6.63636364 40.7991417,7.45454545 L40.7991417,13 L43.088,13 Z" id="Path"></path>
                    <path d="M53.088,12.7869822 L53.088,7.24852071 C53.088,4.78106509 51.2844286,4 49.3022857,4 C47.9451429,4 46.588,4.40828402 45.5344286,5.34911243 L46.4272857,6.92899408 C47.1415714,6.27218935 47.9987143,5.91715976 48.9094286,5.91715976 C50.0522857,5.91715976 50.8022857,6.4852071 50.8022857,7.35502959 L50.8022857,8.43786982 C50.2308571,7.76331361 49.2308571,7.39053254 48.0701429,7.39053254 C46.6951429,7.39053254 45.088,8.13609467 45.088,10.1597633 C45.088,12.0769231 46.6951429,13 48.0701429,13 C49.1951429,13 50.213,12.591716 50.8022857,11.8816568 L50.8022857,12.7869822 L53.088,12.7869822 Z M48.9808571,11.4733728 C48.088,11.4733728 47.3558571,11.0118343 47.3558571,10.1952663 C47.3558571,9.37869822 48.088,8.89940828 48.9808571,8.89940828 C49.713,8.89940828 50.4272857,9.16568047 50.8022857,9.66272189 L50.8022857,10.7278107 C50.4272857,11.2248521 49.713,11.4733728 48.9808571,11.4733728 Z" id="Shape"></path>
                    <path d="M58.1128447,13 C59.1004224,13 59.7339627,12.7320574 60.088,12.4066986 L59.5848944,10.5502392 C59.4544596,10.7033493 59.1190559,10.8373206 58.7650186,10.8373206 C58.2432795,10.8373206 57.9451429,10.3971292 57.9451429,9.80382775 L57.9451429,5.6507177 L59.7712298,5.6507177 L59.7712298,3.52631579 L57.9451429,3.52631579 L57.9451429,1 L55.5786832,1 L55.5786832,3.52631579 L54.088,3.52631579 L54.088,5.6507177 L55.5786832,5.6507177 L55.5786832,10.4545455 C55.5786832,12.1196172 56.4544596,13 58.1128447,13 Z" id="Path"></path>
                    <path d="M65.8075122,13 C67.1794634,13 68.5697073,12.591716 69.4477561,11.8106509 L68.4050732,10.3195266 C67.838,10.852071 66.8136098,11.1538462 66.0636098,11.1538462 C64.5636098,11.1538462 63.685561,10.2840237 63.5209268,9.23668639 L70.088,9.23668639 L70.088,8.70414201 C70.088,5.91715976 68.3136098,4 65.6611707,4 C62.990439,4 61.088,6.00591716 61.088,8.49112426 C61.088,11.2426036 63.1184878,13 65.8075122,13 Z M67.8562927,7.67455621 L63.5026341,7.67455621 C63.5940976,6.82248521 64.2160488,5.84615385 65.6611707,5.84615385 C67.1977561,5.84615385 67.783122,6.85798817 67.8562927,7.67455621 Z" id="Shape"></path>
                    <path d="M72.588,13 C73.4028148,13 74.088,12.3148148 74.088,11.5 C74.088,10.6851852 73.4028148,10 72.588,10 C71.7731852,10 71.088,10.6851852 71.088,11.5 C71.088,12.3148148 71.7731852,13 72.588,13 Z" id="Path"></path>
                    <path d="M80.6696555,13 C82.4414676,13 83.5152931,12.2189349 84.088,11.4378698 L82.6025414,10.0532544 C82.1909083,10.6390533 81.5645101,10.9940828 80.777038,10.9940828 C79.398962,10.9940828 78.432519,9.98224852 78.432519,8.49112426 C78.432519,7 79.398962,6.00591716 80.777038,6.00591716 C81.5645101,6.00591716 82.1909083,6.32544379 82.6025414,6.92899408 L84.088,5.5443787 C83.5152931,4.76331361 82.4414676,4 80.6696555,4 C78.0208859,4 76.088,5.86390533 76.088,8.49112426 C76.088,11.1360947 78.0208859,13 80.6696555,13 Z" id="Path"></path>
                    <path d="M89.144338,13 C91.66077,13 93.088,11.8461538 93.088,10.2662722 C93.088,6.80473373 87.6983286,7.86982249 87.6983286,6.60946746 C87.6983286,6.13017751 88.2617089,5.77514793 89.1255587,5.77514793 C90.2335399,5.77514793 91.2664038,6.23668639 91.8110047,6.76923077 L92.7687512,5.17159763 C91.8673427,4.49704142 90.6466854,4 89.1255587,4 C86.7218028,4 85.4072488,5.26035503 85.4072488,6.69822485 C85.4072488,10.0710059 90.7781408,8.91715976 90.7781408,10.3195266 C90.7781408,10.852071 90.2898779,11.2248521 89.2570141,11.2248521 C88.1302535,11.2248521 86.7969202,10.6390533 86.1208638,10.035503 L85.088,11.6686391 C86.0457465,12.5029586 87.5668732,13 89.144338,13 Z" id="Path"></path>
                    <path d="M98.144338,13 C100.66077,13 102.088,11.8461538 102.088,10.2662722 C102.088,6.80473373 96.6983286,7.86982249 96.6983286,6.60946746 C96.6983286,6.13017751 97.2617089,5.77514793 98.1255587,5.77514793 C99.2335399,5.77514793 100.266404,6.23668639 100.811005,6.76923077 L101.768751,5.17159763 C100.867343,4.49704142 99.6466854,4 98.1255587,4 C95.7218028,4 94.4072488,5.26035503 94.4072488,6.69822485 C94.4072488,10.0710059 99.7781408,8.91715976 99.7781408,10.3195266 C99.7781408,10.852071 99.2898779,11.2248521 98.2570141,11.2248521 C97.1302535,11.2248521 95.7969202,10.6390533 95.1208638,10.035503 L94.088,11.6686391 C95.0457465,12.5029586 96.5668732,13 98.144338,13 Z" id="Path"></path>
                </g>
            </g>
        </g>
    </g>
</svg>