<?xml version="1.0" encoding="UTF-8"?>
<svg width="142px" height="142px" viewBox="0 0 142 142" version="1.1" xmlns="http://www.w3.org/2000/svg" xmlns:xlink="http://www.w3.org/1999/xlink">
    <title>icon-prettier</title>
    <g id="_PWA---Local" stroke="none" stroke-width="1" fill="none" fill-rule="evenodd">
        <g id="PWA-Icon-Sets" transform="translate(-8678.000000, -1082.000000)">
            <g id="icon-prettier" transform="translate(8678.000000, 1082.000000)">
                <rect id="BASE_TRANS" opacity="0.288334438" x="0" y="0" width="142" height="142"></rect>
                <g id="cdnlogo.com_prettier" transform="translate(37.000000, 24.000000)" fill-rule="nonzero">
                    <path d="M50.75,13 L54.25,13 C55.23,13 56,13.66 56,14.5 C56,15.34 55.23,16 54.25,16 L50.75,16 C49.77,16 49,15.34 49,14.5 C49,13.66 49.77,13 50.75,13 Z" id="Rectangle" fill="#56B3B4"></path>
                    <path d="M1.66666667,66 L18.3333333,66 C19.2666667,66 20,66.66 20,67.5 C20,68.34 19.2666667,69 18.3333333,69 L1.66666667,69 C0.733333333,69 0,68.34 0,67.5 C0,66.66 0.733333333,66 1.66666667,66 Z" id="Rectangle_1_" fill="#EA5E5E"></path>
                    <path d="M41.625,39 L51.375,39 C52.285,39 53,39.66 53,40.5 C53,41.34 52.285,42 51.375,42 L41.625,42 C40.715,42 40,41.34 40,40.5 C40,39.66 40.715,39 41.625,39 Z" id="Rectangle_2_" fill="#BF85BF"></path>
                    <path d="M21.6,39 L34.4,39 C35.296,39 36,39.66 36,40.5 C36,41.34 35.296,42 34.4,42 L21.6,42 C20.704,42 20,41.34 20,40.5 C20,39.66 20.704,39 21.6,39 Z" id="Rectangle_3_" fill="#EA5E5E"></path>
                    <path d="M1.6,39 L14.4,39 C15.296,39 16,39.66 16,40.5 C16,41.34 15.296,42 14.4,42 L1.6,42 C0.704,42 0,41.34 0,40.5 C0,39.66 0.704,39 1.6,39 Z" id="Rectangle_4_" fill="#56B3B4"></path>
                    <path d="M1.66666667,53 L18.3333333,53 C19.2666667,53 20,53.66 20,54.5 C20,55.34 19.2666667,56 18.3333333,56 L1.66666667,56 C0.733333333,56 0,55.34 0,54.5 C0,53.66 0.733333333,53 1.66666667,53 Z" id="Rectangle_5_" fill="#BF85BF"></path>
                    <path d="M1.66666667,27 L18.3333333,27 C19.2666667,27 20,27.66 20,28.5 C20,29.34 19.2666667,30 18.3333333,30 L1.66666667,30 C0.733333333,30 0,29.34 0,28.5 C0,27.66 0.733333333,27 1.66666667,27 Z" id="Rectangle_6_" fill="#BF85BF"></path>
                    <path d="M18.6363636,7 L51.3636364,7 C52.28,7 53,7.66 53,8.5 C53,9.34 52.28,10 51.3636364,10 L18.6363636,10 C17.72,10 17,9.34 17,8.5 C17,7.66 17.72,7 18.6363636,7 Z" id="Rectangle_7_" fill="#F7BA3E"></path>
                    <path d="M1.625,7 L11.375,7 C12.285,7 13,7.66 13,8.5 C13,9.34 12.285,10 11.375,10 L1.625,10 C0.715,10 0,9.34 0,8.5 C0,7.66 0.715,7 1.625,7 Z" id="Rectangle_8_" fill="#EA5E5E"></path>
                    <path d="M14.75,59 L18.25,59 C19.23,59 20,59.66 20,60.5 C20,61.34 19.23,62 18.25,62 L14.75,62 C13.77,62 13,61.34 13,60.5 C13,59.66 13.77,59 14.75,59 Z" id="Rectangle_9_" fill="#F7BA3E"></path>
                    <path d="M14.75,20 L18.25,20 C19.23,20 20,20.66 20,21.5 C20,22.34 19.23,23 18.25,23 L14.75,23 C13.77,23 13,22.34 13,21.5 C13,20.66 13.77,20 14.75,20 Z" id="Rectangle_10_" fill="#56B3B4"></path>
                    <path d="M1.66666667,59 L8.33333333,59 C9.26666667,59 10,59.66 10,60.5 C10,61.34 9.26666667,62 8.33333333,62 L1.66666667,62 C0.733333333,62 0,61.34 0,60.5 C0,59.66 0.733333333,59 1.66666667,59 Z" id="Rectangle_11_" fill="#56B3B4"></path>
                    <path d="M1.66666667,20 L8.33333333,20 C9.26666667,20 10,20.66 10,21.5 C10,22.34 9.26666667,23 8.33333333,23 L1.66666667,23 C0.733333333,23 0,22.34 0,21.5 C0,20.66 0.733333333,20 1.66666667,20 Z" id="Rectangle_12_" fill="#F7BA3E"></path>
                    <path d="M43.75,59 L47.25,59 C48.23,59 49,59.66 49,60.5 C49,61.34 48.23,62 47.25,62 L43.75,62 C42.77,62 42,61.34 42,60.5 C42,59.66 42.77,59 43.75,59 Z" id="Rectangle_13_" fill="#4D616E" opacity="0.5"></path>
                    <path d="M24.6,59 L37.4,59 C38.296,59 39,59.66 39,60.5 C39,61.34 38.296,62 37.4,62 L24.6,62 C23.704,62 23,61.34 23,60.5 C23,59.66 23.704,59 24.6,59 Z" id="Rectangle_14_" fill="#4D616E" opacity="0.5"></path>
                    <path d="M54.6,59 L67.4,59 C68.296,59 69,59.66 69,60.5 C69,61.34 68.296,62 67.4,62 L54.6,62 C53.704,62 53,61.34 53,60.5 C53,59.66 53.704,59 54.6,59 Z" id="Rectangle_15_" fill="#4D616E" opacity="0.5"></path>
                    <path d="M27.6666667,32 L54.3333333,32 C55.2666667,32 56,32.66 56,33.5 C56,34.34 55.2666667,35 54.3333333,35 L27.6666667,35 C26.7333333,35 26,34.34 26,33.5 C26,32.66 26.7333333,32 27.6666667,32 Z" id="Rectangle_16_" fill="#56B3B4"></path>
                    <path d="M11.625,32 L21.375,32 C22.285,32 23,32.66 23,33.5 C23,34.34 22.285,35 21.375,35 L11.625,35 C10.715,35 10,34.34 10,33.5 C10,32.66 10.715,32 11.625,32 Z" id="Rectangle_17_" fill="#F7BA3E"></path>
                    <path d="M1.75,32 L5.25,32 C6.23,32 7,32.66 7,33.5 C7,34.34 6.23,35 5.25,35 L1.75,35 C0.77,35 0,34.34 0,33.5 C0,32.66 0.77,32 1.75,32 Z" id="Rectangle_18_" fill="#EA5E5E"></path>
                    <path d="M31.6,13 L44.4,13 C45.296,13 46,13.66 46,14.5 C46,15.34 45.296,16 44.4,16 L31.6,16 C30.704,16 30,15.34 30,14.5 C30,13.66 30.704,13 31.6,13 Z" id="Rectangle_19_" fill="#BF85BF"></path>
                    <path d="M1.625,13 L24.375,13 C25.285,13 26,13.66 26,14.5 C26,15.34 25.285,16 24.375,16 L1.625,16 C0.715,16 0,15.34 0,14.5 C0,13.66 0.715,13 1.625,13 Z" id="Rectangle_20_" fill="#56B3B4"></path>
                    <path d="M10.65,46 L40.35,46 C41.274,46 42,46.66 42,47.5 C42,48.34 41.274,49 40.35,49 L10.65,49 C9.726,49 9,48.34 9,47.5 C9,46.66 9.726,46 10.65,46 Z" id="Rectangle_21_" fill="#F7BA3E"></path>
                    <path d="M1.75,46 L5.25,46 C6.23,46 7,46.66 7,47.5 C7,48.34 6.23,49 5.25,49 L1.75,49 C0.77,49 0,48.34 0,47.5 C0,46.66 0.77,46 1.75,46 Z" id="Rectangle_22_" fill="#BF85BF"></path>
                    <path d="M40.6666667,20 L57.3333333,20 C58.2666667,20 59,20.66 59,21.5 C59,22.34 58.2666667,23 57.3333333,23 L40.6666667,23 C39.7333333,23 39,22.34 39,21.5 C39,20.66 39.7333333,20 40.6666667,20 Z" id="Rectangle_23_" fill="#EA5E5E"></path>
                    <path d="M40.6666667,27 L57.3333333,27 C58.2666667,27 59,27.66 59,28.5 C59,29.34 58.2666667,30 57.3333333,30 L40.6666667,30 C39.7333333,30 39,29.34 39,28.5 C39,27.66 39.7333333,27 40.6666667,27 Z" id="Rectangle_24_" fill="#F7BA3E"></path>
                    <path d="M1.61538462,0 L40.3846154,0 C41.2892308,0 42,0.66 42,1.5 C42,2.34 41.2892308,3 40.3846154,3 L1.61538462,3 C0.710769231,3 0,2.34 0,1.5 C0,0.66 0.710769231,0 1.61538462,0 Z" id="Rectangle_25_" fill="#56B3B4"></path>
                    <path d="M47.6428571,0 L67.3571429,0 C68.2771429,0 69,0.66 69,1.5 C69,2.34 68.2771429,3 67.3571429,3 L47.6428571,3 C46.7228571,3 46,2.34 46,1.5 C46,0.66 46.7228571,0 47.6428571,0 Z" id="Rectangle_26_" fill="#4D616E" opacity="0.5"></path>
                    <path d="M47.6666667,46 L54.3333333,46 C55.2666667,46 56,46.66 56,47.5 C56,48.34 55.2666667,49 54.3333333,49 L47.6666667,49 C46.7333333,49 46,48.34 46,47.5 C46,46.66 46.7333333,46 47.6666667,46 Z" id="Rectangle_27_" fill="#4D616E" opacity="0.5"></path>
                    <path d="M60.6666667,46 L67.3333333,46 C68.2666667,46 69,46.66 69,47.5 C69,48.34 68.2666667,49 67.3333333,49 L60.6666667,49 C59.7333333,49 59,48.34 59,47.5 C59,46.66 59.7333333,46 60.6666667,46 Z" id="Rectangle_28_" fill="#4D616E" opacity="0.5"></path>
                    <path d="M57.625,39 L67.375,39 C68.285,39 69,39.66 69,40.5 C69,41.34 68.285,42 67.375,42 L57.625,42 C56.715,42 56,41.34 56,40.5 C56,39.66 56.715,39 57.625,39 Z" id="Rectangle_29_" fill="#4D616E" opacity="0.5"></path>
                    <path d="M57.625,7 L67.375,7 C68.285,7 69,7.66 69,8.5 C69,9.34 68.285,10 67.375,10 L57.625,10 C56.715,10 56,9.34 56,8.5 C56,7.66 56.715,7 57.625,7 Z" id="Rectangle_30_" fill="#4D616E" opacity="0.5"></path>
                    <path d="M60.6666667,32 L67.3333333,32 C68.2666667,32 69,32.66 69,33.5 C69,34.34 68.2666667,35 67.3333333,35 L60.6666667,35 C59.7333333,35 59,34.34 59,33.5 C59,32.66 59.7333333,32 60.6666667,32 Z" id="Rectangle_31_" fill="#4D616E" opacity="0.5"></path>
                    <path d="M60.6666667,13 L67.3333333,13 C68.2666667,13 69,13.66 69,14.5 C69,15.34 68.2666667,16 67.3333333,16 L60.6666667,16 C59.7333333,16 59,15.34 59,14.5 C59,13.66 59.7333333,13 60.6666667,13 Z" id="Rectangle_32_" fill="#4D616E" opacity="0.5"></path>
                    <path d="M63.75,20 L67.25,20 C68.23,20 69,20.66 69,21.5 C69,22.34 68.23,23 67.25,23 L63.75,23 C62.77,23 62,22.34 62,21.5 C62,20.66 62.77,20 63.75,20 Z" id="Rectangle_33_" fill="#4D616E" opacity="0.5"></path>
                    <path d="M63.75,27 L67.25,27 C68.23,27 69,27.66 69,28.5 C69,29.34 68.23,30 67.25,30 L63.75,30 C62.77,30 62,29.34 62,28.5 C62,27.66 62.77,27 63.75,27 Z" id="Rectangle_34_" fill="#4D616E" opacity="0.5"></path>
                    <path d="M37.65,53 L67.35,53 C68.274,53 69,53.66 69,54.5 C69,55.34 68.274,56 67.35,56 L37.65,56 C36.726,56 36,55.34 36,54.5 C36,53.66 36.726,53 37.65,53 Z" id="Rectangle_35_" fill="#4D616E" opacity="0.5"></path>
                    <path d="M24.6666667,53 L31.3333333,53 C32.2666667,53 33,53.66 33,54.5 C33,55.34 32.2666667,56 31.3333333,56 L24.6666667,56 C23.7333333,56 23,55.34 23,54.5 C23,53.66 23.7333333,53 24.6666667,53 Z" id="Rectangle_36_" fill="#4D616E" opacity="0.5"></path>
                    <path d="M50.6666667,66 L67.3333333,66 C68.2666667,66 69,66.66 69,67.5 C69,68.34 68.2666667,69 67.3333333,69 L50.6666667,69 C49.7333333,69 49,68.34 49,67.5 C49,66.66 49.7333333,66 50.6666667,66 Z" id="Rectangle_37_" fill="#4D616E" opacity="0.5"></path>
                    <path d="M24.6428571,66 L44.3571429,66 C45.2771429,66 46,66.66 46,67.5 C46,68.34 45.2771429,69 44.3571429,69 L24.6428571,69 C23.7228571,69 23,68.34 23,67.5 C23,66.66 23.7228571,66 24.6428571,66 Z" id="Rectangle_38_" fill="#4D616E" opacity="0.5"></path>
                    <path d="M24.625,20 L34.375,20 C35.285,20 36,20.66 36,21.5 C36,22.34 35.285,23 34.375,23 L24.625,23 C23.715,23 23,22.34 23,21.5 C23,20.66 23.715,20 24.625,20 Z" id="Rectangle_39_" fill="#4D616E" opacity="0.5"></path>
                    <path d="M24.625,27 L34.375,27 C35.285,27 36,27.66 36,28.5 C36,29.34 35.285,30 34.375,30 L24.625,30 C23.715,30 23,29.34 23,28.5 C23,27.66 23.715,27 24.625,27 Z" id="Rectangle_40_" fill="#4D616E" opacity="0.5"></path>
                </g>
                <g id="PRETTIER" transform="translate(38.000000, 104.000000)" fill="#A6B0B6" fill-rule="nonzero">
                    <path d="M0,0 L4.21786691,0 C5.05165603,0 5.72379216,0.250737463 6.2342753,0.752212389 C6.74475843,1.25368732 7,1.95824824 7,2.86589517 C7,3.64647152 6.7724096,4.32607216 6.31722881,4.90469707 C5.86204801,5.48332199 5.16226071,5.77263445 4.21786691,5.77263445 L1.2698268,5.77263445 L1.2698268,10 L0,10 L0,0 Z M5.71741112,2.87270252 C5.71741112,2.13750851 5.46216955,1.6383027 4.95168642,1.37508509 C4.67092069,1.23439982 4.28593133,1.16405718 3.79671832,1.16405718 L1.2698268,1.16405718 L1.2698268,4.62899932 L3.79671832,4.62899932 C4.36675782,4.62899932 4.82938317,4.49965963 5.18459435,4.24098026 C5.53980553,3.98230088 5.71741112,3.5262083 5.71741112,2.87270252 Z" id="Shape"></path>
                    <path d="M13.3213115,4.58134786 C13.9333333,4.58134786 14.4174863,4.45427729 14.7737705,4.20013615 C15.1300546,3.94599501 15.3081967,3.48763331 15.3081967,2.82505106 C15.3081967,2.11254822 15.0590164,1.62695711 14.5606557,1.36827774 C14.2939891,1.2321307 13.9377049,1.16405718 13.4918033,1.16405718 L10.304918,1.16405718 L10.304918,4.58134786 L13.3213115,4.58134786 Z M9,0 L13.4590164,0 C14.1934426,0 14.7989071,0.111186748 15.2754098,0.333560245 C16.1803279,0.7601543 16.6327869,1.54753801 16.6327869,2.69571137 C16.6327869,3.29475834 16.5136612,3.78488768 16.2754098,4.16609939 C16.0371585,4.5473111 15.7038251,4.85364193 15.2754098,5.0850919 C15.6513661,5.24393011 15.9344262,5.4526889 16.1245902,5.71136828 C16.3147541,5.97004765 16.420765,6.38983435 16.442623,6.97072839 L16.4885246,8.31177672 C16.5016393,8.69298843 16.5322404,8.97662809 16.5803279,9.16269571 C16.6590164,9.48037214 16.7989071,9.68459269 17,9.77535739 L17,10 L15.4,10 C15.3562842,9.91377354 15.3213115,9.80258679 15.295082,9.66643975 C15.2688525,9.53029272 15.2469945,9.26707511 15.2295082,8.87678693 L15.1508197,7.2089857 C15.1202186,6.55547992 14.8863388,6.11754028 14.4491803,5.89516678 C14.2,5.77263445 13.8087432,5.71136828 13.2754098,5.71136828 L10.304918,5.71136828 L10.304918,10 L9,10 L9,0 Z" id="Shape"></path>
                    <polygon id="Path" points="19 0 25.9033149 0 25.9033149 1.22532335 20.2504604 1.22532335 20.2504604 4.26140231 25.4779006 4.26140231 25.4779006 5.41865214 20.2504604 5.41865214 20.2504604 8.80871341 26 8.80871341 26 10 19 10"></polygon>
                    <polygon id="Path" points="36 0 36 1.19128659 32.6778523 1.19128659 32.6778523 10 31.3221477 10 31.3221477 1.19128659 28 1.19128659 28 0"></polygon>
                    <polygon id="Path" points="45 0 45 1.19128659 41.6778523 1.19128659 41.6778523 10 40.3221477 10 40.3221477 1.19128659 37 1.19128659 37 0"></polygon>
                    <polygon id="Path" points="47 0 48.3 0 48.3 10 47 10"></polygon>
                    <polygon id="Path" points="50 0 56.9033149 0 56.9033149 1.22532335 51.2504604 1.22532335 51.2504604 4.26140231 56.4779006 4.26140231 56.4779006 5.41865214 51.2504604 5.41865214 51.2504604 8.80871341 57 8.80871341 57 10 50 10"></polygon>
                    <path d="M63.3213115,4.58134786 C63.9333333,4.58134786 64.4174863,4.45427729 64.7737705,4.20013615 C65.1300546,3.94599501 65.3081967,3.48763331 65.3081967,2.82505106 C65.3081967,2.11254822 65.0590164,1.62695711 64.5606557,1.36827774 C64.2939891,1.2321307 63.9377049,1.16405718 63.4918033,1.16405718 L60.304918,1.16405718 L60.304918,4.58134786 L63.3213115,4.58134786 Z M59,0 L63.4590164,0 C64.1934426,0 64.7989071,0.111186748 65.2754098,0.333560245 C66.1803279,0.7601543 66.6327869,1.54753801 66.6327869,2.69571137 C66.6327869,3.29475834 66.5136612,3.78488768 66.2754098,4.16609939 C66.0371585,4.5473111 65.7038251,4.85364193 65.2754098,5.0850919 C65.6513661,5.24393011 65.9344262,5.4526889 66.1245902,5.71136828 C66.3147541,5.97004765 66.420765,6.38983435 66.442623,6.97072839 L66.4885246,8.31177672 C66.5016393,8.69298843 66.5322404,8.97662809 66.5803279,9.16269571 C66.6590164,9.48037214 66.7989071,9.68459269 67,9.77535739 L67,10 L65.4,10 C65.3562842,9.91377354 65.3213115,9.80258679 65.295082,9.66643975 C65.2688525,9.53029272 65.2469945,9.26707511 65.2295082,8.87678693 L65.1508197,7.2089857 C65.1202186,6.55547992 64.8863388,6.11754028 64.4491803,5.89516678 C64.2,5.77263445 63.8087432,5.71136828 63.2754098,5.71136828 L60.304918,5.71136828 L60.304918,10 L59,10 L59,0 Z" id="Shape"></path>
                </g>
            </g>
        </g>
    </g>
</svg>