<?xml version="1.0" encoding="UTF-8"?>
<svg width="142px" height="142px" viewBox="0 0 142 142" version="1.1" xmlns="http://www.w3.org/2000/svg" xmlns:xlink="http://www.w3.org/1999/xlink">
    <title>icon-cra</title>
    <g id="_PWA---Local" stroke="none" stroke-width="1" fill="none" fill-rule="evenodd">
        <g id="PWA-Icon-Sets" transform="translate(-8459.000000, -1082.000000)">
            <g id="icon-cra" transform="translate(8459.000000, 1082.000000)">
                <rect id="BASE_TRANS" opacity="0.288334438" x="0" y="0" width="142" height="142"></rect>
                <g id="Group" transform="translate(32.000000, 24.000000)" fill="#09D3AC" fill-rule="nonzero">
                    <path d="M70.6968166,31.4243225 C70.6968166,27.5154295 66.0527928,24.0490527 58.9121051,21.9329176 C60.6299931,14.7448662 59.8798487,9.02619553 56.4612516,7.09160554 C55.6230065,6.63035838 54.6770863,6.39557832 53.7183651,6.41081141 C50.5288118,6.41081141 46.4975013,8.61771905 42.4261068,12.4358395 C38.3547123,8.64608547 34.3348544,6.4505244 31.1510354,6.4505244 C30.1774449,6.42921135 29.2160585,6.66831297 28.3680568,7.1426651 C24.9666386,9.08292838 24.2623046,14.7675594 25.9572874,21.921571 C18.8509574,24.0263596 14.2298388,27.4643699 14.2183651,31.3562431 C14.2069336,35.2481162 18.8681363,38.7315128 26.008824,40.8419746 C24.290936,48.0356993 25.0353542,53.7486967 28.4596775,55.6832867 C29.2948188,56.1471042 30.2396122,56.3820951 31.1968457,56.3640808 C34.3921173,56.3640808 38.4234278,54.1571732 42.4948223,50.3390528 C46.5604905,54.1288068 50.5803484,56.3243678 53.7698938,56.3243678 C54.7430726,56.3420826 55.7035181,56.1032149 56.5528723,55.6322271 C59.9542905,53.6919639 60.6528983,48.0073329 58.9636417,40.8816876 C66.0699717,38.7485327 70.6910904,35.3105223 70.6968166,31.4243225 Z M45.0487491,13.7180018 C49.7385833,9.55948427 52.6704454,9.1112948 53.7126308,9.1112948 L53.7126308,9.1112948 C54.1959738,9.09590986 54.6746015,9.20956038 55.0983938,9.44034529 C56.7361137,10.3650907 57.3889111,13.6272292 56.8678184,17.9502719 C56.7343419,19.0542807 56.5432092,20.1506948 56.2951891,21.2351036 C53.9223318,20.6886777 51.5159841,20.296386 49.0915122,20.0607338 C47.6477464,18.0534706 46.0714801,16.1430725 44.3730465,14.342063 C44.5849194,14.1321515 44.8139711,13.92224 45.0487491,13.7180018 Z M30.8532681,34.6410747 C31.299919,35.4920674 31.7752013,36.3430601 32.2676625,37.199726 C32.7601238,38.056392 33.2754902,38.9244045 33.8481195,39.7810704 C32.296294,39.5598123 30.7902789,39.2818214 29.3587056,38.9527709 C29.7595461,37.5117567 30.2691862,36.0934356 30.8532681,34.6410747 Z M29.2670849,23.8391412 C30.7158371,23.5044174 32.2333048,23.2264265 33.8080354,23.0108417 C33.2354061,23.8504878 32.7429449,24.712827 32.2275785,25.6148792 C31.7122121,26.5169314 31.2598349,27.3168645 30.8189104,28.1792038 C30.2348284,26.7041498 29.7175533,25.2574623 29.2670849,23.8391412 Z M32.2504837,31.4073026 C32.960544,29.9209021 33.7412287,28.4345016 34.5925376,26.9481011 C35.4514816,25.4617005 36.3734148,24.015013 37.3239795,22.6307316 C38.9903308,22.5059193 40.7082188,22.4378399 42.4776434,22.4435132 C44.2470681,22.4491865 45.9134194,22.5115926 47.5683182,22.6420782 C48.5188828,24.015013 49.4293635,25.4787204 50.2883075,26.9254079 C51.1472514,28.3720954 51.9374799,29.8868624 52.6475403,31.3675896 C51.9432062,32.8539901 51.158704,34.346064 50.3112126,35.8211179 C49.4637212,37.2961719 48.5303354,38.7598792 47.5797707,40.1441606 C45.9134194,40.2746462 44.1955314,40.3370523 42.4261068,40.3370523 C40.6566822,40.3370523 38.9903308,40.2632996 37.3354321,40.1328141 C36.3848674,38.7598792 35.4686605,37.3302116 34.6097165,35.8494843 C33.7507725,34.3687571 32.9891755,32.8880299 32.2733888,31.4073026 L32.2504837,31.4073026 Z M51.0670833,23.0278615 C52.6246351,23.2434463 54.1306502,23.5214373 55.5564973,23.8504878 C55.1327516,25.251789 54.6288377,26.68713 54.0447558,28.1338175 C53.5923787,27.2828248 53.1228226,26.4318322 52.6246351,25.5751662 C52.1264476,24.7185003 51.5996286,23.856161 51.0899885,23.0278615 L51.0670833,23.0278615 Z M52.6475403,37.1656863 C53.1400015,36.3071293 53.6095575,35.4504633 54.0562084,34.5956885 C54.6288377,36.0707424 55.2014671,37.5231032 55.6023076,38.9414243 C54.1592817,39.2761481 52.641814,39.5484658 51.0670833,39.7640506 C51.620625,38.9244045 52.1550791,38.0582831 52.6704454,37.1656863 L52.6475403,37.1656863 Z M42.4375594,16.2709798 C43.4682922,17.3602504 44.4818461,18.5402935 45.4724948,19.805436 C44.4932987,19.765723 43.4911973,19.7373565 42.4776434,19.7373565 C41.4640895,19.7373565 40.4276304,19.7373565 39.4255291,19.805436 C40.4047253,18.5459668 41.4068266,17.3602504 42.4375594,16.2709798 Z M29.7366409,9.46303843 C30.1710913,9.23411663 30.6594146,9.12442852 31.1510354,9.1453345 C32.1827317,9.18793184 33.1944656,9.44093807 34.1229816,9.88853476 C36.2215059,10.8687778 38.1533629,12.1664519 39.8492748,13.7350216 L40.5192511,14.342063 C38.8381714,16.1299036 37.2772689,18.0250667 35.8465958,20.0153475 C33.4090395,20.2493015 30.989371,20.6396869 28.6028349,21.1840441 C28.350878,20.0834269 28.1447314,19.0055028 28.0302055,17.9672918 C27.434671,13.683962 28.1218262,10.4161502 29.7309146,9.48573157 L29.7366409,9.46303843 Z M26.7074318,38.2265905 C25.6314931,37.9011592 24.5727074,37.5224644 23.5350653,37.0919336 C19.4693971,35.3899483 16.9498281,33.2057338 16.9498281,31.3392232 C16.9498281,29.4727126 19.4808497,27.2998447 23.5407916,25.6262258 C24.5599398,25.2080016 25.5996129,24.840668 26.6558951,24.5256086 C27.3717395,26.8760354 28.2440482,29.1768679 29.2670849,31.4129759 C28.2658204,33.6268603 27.4108017,35.9028592 26.7074318,38.2265905 L26.7074318,38.2265905 Z M39.8779063,49.0625638 C35.1880721,53.2210813 32.25621,53.6635974 31.2082983,53.6635974 C30.7248977,53.6795443 30.2461219,53.5658586 29.8225353,53.3345469 C28.1848154,52.4098016 27.532018,49.147663 28.0531107,44.8246203 C28.1861068,43.7224174 28.3772447,42.6278672 28.62574,41.5454619 C30.9992865,42.0871622 33.4054479,42.4775285 35.829417,42.7141585 C37.2714288,44.7227481 38.8477881,46.6332589 40.5478826,48.4328292 L39.8779063,49.0625638 Z M42.4948223,46.5039125 C41.4640895,45.4146419 40.4505356,44.2345987 39.4541606,42.9694563 C40.439083,43.0148426 41.4411844,43.0375357 42.4547383,43.0375357 C43.4682922,43.0375357 44.5047513,43.0375357 45.5068526,42.9751296 C44.5162038,44.2345987 43.5083762,45.4146419 42.489096,46.5039125 L42.4948223,46.5039125 Z M55.1957408,53.3118538 C54.7612658,53.5476747 54.2707356,53.6632932 53.77562,53.6465776 C52.7334347,53.6465776 49.7672148,53.1927148 45.0945595,49.0512172 L44.4245831,48.4441758 C46.1037584,46.6562131 47.6627481,44.7610499 49.0915122,42.7708913 C51.531387,42.5402159 53.9531759,42.149797 56.3409994,41.6021947 C56.5929563,42.7028119 56.7933766,43.780736 56.9136288,44.818947 C57.4805318,49.0966035 56.8220081,52.3644153 55.1900145,53.2891607 L55.1957408,53.3118538 Z M61.3801375,37.1770329 C60.4009414,37.5741628 59.3644823,37.9429263 58.265034,38.2719768 C57.5463602,35.9217347 56.6721613,33.6209619 55.6481179,31.3846095 C56.6539755,29.1732286 57.5128421,26.8990657 58.2192236,24.5766682 C59.2951623,24.9020995 60.353948,25.2807943 61.3915901,25.711325 C65.451532,27.4133104 67.9768273,29.5975249 67.9711108,31.4640355 C67.9653748,33.330546 65.4400794,35.4807208 61.3744112,37.1543397 L61.3801375,37.1770329 Z M42.4375594,36.598361 C45.3407727,36.6014894 47.6968547,34.272296 47.7000198,31.3959581 C47.7031786,28.5196202 45.3522231,26.1853477 42.4490099,26.1822107 C39.5457966,26.17908 37.1897127,28.5082715 37.186536,31.3846095 C37.1835067,32.7663371 37.7353935,34.0925052 38.720479,35.0706002 C39.7055644,36.0486953 41.0429181,36.598361 42.4375594,36.598361 L42.4375594,36.598361 Z M7.50717047,0 L7.50717047,62.7748922 L77.4080324,62.7748922 L77.4080324,0 L7.50717047,0 Z M74.6765905,60.0744089 L10.2443387,60.0744089 L10.2443387,2.70615667 L74.6765905,2.70615667 L74.6765905,60.0744089 Z M26.0030977,40.8419746 C24.2852097,48.0356993 25.0296279,53.7486967 28.4539512,55.6832867 C29.2890925,56.1471042 30.2338859,56.3820951 31.1911194,56.3640808 C34.3863911,56.3640808 38.4177015,54.1571732 42.489096,50.3390528 C46.5547642,54.1288068 50.5746221,56.3243678 53.7641675,56.3243678 C54.7373463,56.3420826 55.6977918,56.1032149 56.547146,55.6322271 C59.9485642,53.6919639 60.647172,48.0073329 58.9579155,40.8816876 C66.0642454,38.7712258 70.6853641,35.3332154 70.6910956,31.4470156 C70.6968166,27.5608158 66.0470665,24.0717458 58.9063788,21.9556108 C60.6242668,14.7675594 59.8741224,9.04888867 56.4555253,7.11429868 C55.6172802,6.65305152 54.67136,6.41827146 53.7126389,6.43350455 C50.5230855,6.43350455 46.491775,8.64041219 42.4203805,12.4585326 C38.348986,8.66877861 34.3291281,6.47321754 31.1453091,6.47321754 C30.1717186,6.45190449 29.2103322,6.6910061 28.3623305,7.16535824 C24.9609123,9.10562151 24.2565783,14.7902525 25.9515611,21.9442642 C18.8452311,24.0490527 14.2241125,27.4870631 14.2126389,31.3789362 C14.2012073,35.2708093 18.8681363,38.7201662 26.008824,40.8419746 L26.0030977,40.8419746 Z M39.8664537,49.0625638 C35.1766195,53.2210813 32.2447574,53.6635974 31.1968457,53.6635974 C30.7134451,53.6795443 30.2346693,53.5658586 29.8110827,53.3345469 C28.1733629,52.4098016 27.5205654,49.147663 28.0416581,44.8246203 C28.1746542,43.7224174 28.3657921,42.6278672 28.6142874,41.5454619 C30.9878339,42.0871622 33.3939953,42.4775285 35.8179644,42.7141585 C37.2599763,44.7227481 38.8363355,46.6332589 40.53643,48.4328292 L39.8664537,49.0625638 Z M54.0619347,28.1338175 C53.6095575,27.2828248 53.1400015,26.4318322 52.641814,25.5751662 C52.1436265,24.7185003 51.6110812,23.8731809 51.0842622,23.0278615 C52.641814,23.2434463 54.1478291,23.5214373 55.5736761,23.8504878 C55.1556567,25.251789 54.6517429,26.68713 54.067661,28.1338175 L54.0619347,28.1338175 Z M55.6194865,38.9130579 C54.1764606,39.2477817 52.6589929,39.5200994 51.0842622,39.7356842 C51.6225338,38.8960381 52.1493528,38.0299166 52.6647192,37.1373199 C53.1800855,36.2447231 53.6496416,35.3880572 54.0733873,34.567322 C54.6746481,36.0707424 55.1957408,37.5117567 55.6080339,38.9414243 L55.6194865,38.9130579 Z M52.6360877,31.3392232 C51.9317536,32.8256237 51.1472514,34.3176975 50.29976,35.7927515 C49.4522686,37.2678054 48.5188828,38.7315128 47.5683182,40.1157942 C45.9019668,40.2462798 44.1840788,40.3086859 42.4146542,40.3086859 C40.6452296,40.3086859 38.9788783,40.2349332 37.3239795,40.1044476 C36.3734148,38.7315128 35.4572079,37.3018451 34.5982639,35.8211179 C33.7393199,34.3403907 32.9548177,32.8596634 32.2390311,31.3789362 C32.9490914,29.8925357 33.7297761,28.4061352 34.581085,26.9197346 C35.440029,25.4333341 36.3619622,23.9866466 37.3125269,22.6023652 C38.9788783,22.4775529 40.6967662,22.4094735 42.4661909,22.4151468 C44.2356155,22.4208201 45.9019668,22.4832262 47.5568656,22.6137117 C48.5074302,23.9866466 49.4179109,25.450354 50.2768549,26.8970415 C51.1357989,28.343729 51.9317536,29.8868624 52.641814,31.3675896 L52.6360877,31.3392232 Z M33.8481195,39.7810704 C32.296294,39.5598123 30.7902789,39.2818214 29.3587056,38.9527709 C29.7824513,37.5571429 30.2920914,36.1161287 30.8761733,34.6694412 C31.3228242,35.5204338 31.7981065,36.3714265 32.2905677,37.2280924 C32.7830289,38.0847584 33.2754902,38.9244045 33.8481195,39.7810704 Z M32.2504837,25.5978594 C31.7522962,26.448852 31.2827401,27.2998447 30.8418155,28.1621839 C30.2424635,26.6984765 29.7175533,25.2574623 29.2670849,23.8391412 C30.7158371,23.5044174 32.2333048,23.2264265 33.8080354,23.0108417 C33.2754902,23.8504878 32.7658501,24.7185003 32.2504837,25.5978594 Z M42.489096,46.5039125 C41.4583632,45.4146419 40.4448093,44.2345987 39.4484343,42.9694563 C40.4333567,43.0148426 41.4354581,43.0375357 42.449012,43.0375357 C43.4625659,43.0375357 44.499025,43.0375357 45.5011263,42.9751296 C44.5162038,44.2345987 43.5083762,45.4146419 42.489096,46.5039125 Z M55.1900145,53.3118538 C54.7555395,53.5476747 54.2650093,53.6632932 53.7698938,53.6465776 C52.7277084,53.6465776 49.7614885,53.1927148 45.0888332,49.0512172 L44.4188569,48.4441758 C46.0980321,46.6562131 47.6570218,44.7610499 49.0857859,42.7708913 C51.5256607,42.5402159 53.9474496,42.149797 56.3352731,41.6021947 C56.58723,42.7028119 56.7876503,43.780736 56.9079025,44.818947 C57.4805318,49.0966035 56.8220081,52.3644153 55.1900145,53.2891607 L55.1900145,53.3118538 Z M58.2134973,24.5709949 C59.289436,24.8964262 60.3482217,25.275121 61.3858638,25.7056518 C65.4458057,27.4076371 67.9711011,29.5918516 67.9653845,31.4583622 C67.9596485,33.3248728 65.4400794,35.5204338 61.3744112,37.1940527 C60.3952151,37.5911826 59.358756,37.9599461 58.2593077,38.2889966 C57.5406339,35.9387545 56.666435,33.6379817 55.6423917,31.4016293 C56.6501205,29.17549 57.5090086,26.8861086 58.2134973,24.5483017 L58.2134973,24.5709949 Z M45.0430228,13.7406949 C49.732857,9.58217741 52.6647192,9.13398794 53.7069045,9.13398794 L53.7069045,9.13398794 C54.1902475,9.118603 54.6688752,9.23225351 55.0926675,9.46303843 C56.7303874,10.3877838 57.3831848,13.6499223 56.8620921,17.9729651 C56.7286156,19.0769738 56.5374829,20.1733879 56.2894628,21.2577968 C53.9166055,20.7113708 51.5102578,20.3190792 49.0857859,20.0834269 C47.6420201,18.0761637 46.0657538,16.1657656 44.3673202,14.3647562 C44.5849194,14.1321515 44.8139711,13.92224 45.0487491,13.7180018 L45.0430228,13.7406949 Z M42.4375594,16.2709798 C43.4682922,17.3602504 44.4818461,18.5402935 45.4724948,19.805436 C44.4932987,19.765723 43.4911973,19.7373565 42.4776434,19.7373565 C41.4640895,19.7373565 40.4276304,19.7373565 39.4255291,19.805436 C40.4047253,18.5459668 41.4068266,17.3602504 42.4375594,16.2709798 Z M29.7366409,9.46303843 C30.1710913,9.23411663 30.6594146,9.12442852 31.1510354,9.1453345 C32.1827317,9.18793184 33.1944656,9.44093807 34.1229816,9.88853476 C36.2215059,10.8687778 38.1533629,12.1664519 39.8492748,13.7350216 L40.5192511,14.342063 C38.8381714,16.1299036 37.2772689,18.0250667 35.8465958,20.0153475 C33.4090395,20.2493015 30.989371,20.6396869 28.6028349,21.1840441 C28.350878,20.0834269 28.1447314,19.0055028 28.0302055,17.9672918 C27.434671,13.683962 28.1218262,10.4161502 29.7309146,9.48573157 L29.7366409,9.46303843 Z M23.5407916,25.6262258 C24.5599398,25.2080016 25.5996129,24.840668 26.6558951,24.5256086 C27.3717395,26.8760354 28.2440482,29.1768679 29.2670849,31.4129759 C28.2621582,33.6247366 27.4033146,35.8988386 26.6959792,38.2209172 C25.6200405,37.8954859 24.5612548,37.5167911 23.5236127,37.0862603 C19.4579445,35.384275 16.9383755,33.2000605 16.9383755,31.3335499 C16.9383755,29.4670393 19.4808497,27.2998447 23.5407916,25.6262258 Z M42.4375594,26.1935542 C39.5343461,26.1904227 37.1782641,28.519616 37.1750989,31.395954 C37.1719401,34.2722919 39.5228956,36.6065644 42.4261089,36.6097014 C45.3293221,36.6128321 47.685406,34.2836406 47.6885703,31.4073026 C47.6992545,30.0206719 47.1507448,28.6871954 46.1648288,27.7029498 C45.1789129,26.7187041 43.837187,26.1651878 42.4375594,26.1651878 L42.4375594,26.1935542 Z M42.4375594,26.1935542 C39.5343461,26.1904227 37.1782641,28.519616 37.1750989,31.395954 C37.1719401,34.2722919 39.5228956,36.6065644 42.4261089,36.6097014 C45.3293221,36.6128321 47.685406,34.2836406 47.6885703,31.4073026 C47.6992545,30.0206719 47.1507448,28.6871954 46.1648288,27.7029498 C45.1789129,26.7187041 43.837187,26.1651878 42.4375594,26.1651878 L42.4375594,26.1935542 Z M42.4375594,26.1935542 C39.5343461,26.1904227 37.1782641,28.519616 37.1750989,31.395954 C37.1719401,34.2722919 39.5228956,36.6065644 42.4261089,36.6097014 C45.3293221,36.6128321 47.685406,34.2836406 47.6885703,31.4073026 C47.6992545,30.0206719 47.1507448,28.6871954 46.1648288,27.7029498 C45.1789129,26.7187041 43.837187,26.1651878 42.4375594,26.1651878 L42.4375594,26.1935542 Z M70.6968166,31.435669 C70.6968166,27.5267761 66.0527928,24.0603993 58.9121051,21.9442642 C60.6299931,14.7562128 59.8798487,9.0375421 56.4612516,7.10295211 C55.6230065,6.64170495 54.6770863,6.40692489 53.7183651,6.42215798 C50.5288118,6.42215798 46.4975013,8.62906562 42.4261068,12.447186 C38.3547123,8.65743204 34.3348544,6.46187097 31.1510354,6.46187097 C30.1774449,6.44055792 29.2160585,6.67965953 28.3680568,7.15401167 C24.9666386,9.09427494 24.2623046,14.7789059 25.9572874,21.9329176 C18.8509574,24.0377061 14.2298388,27.4757165 14.2183651,31.3675896 C14.2069336,35.2594627 18.8681363,38.7428594 26.008824,40.8533212 C24.290936,48.0470459 25.0353542,53.7600433 28.4596775,55.6946333 C29.2948188,56.1584507 30.2396122,56.3934417 31.1968457,56.3754274 C34.3921173,56.3754274 38.4234278,54.1685198 42.4948223,50.3503993 C46.5604905,54.1401533 50.5803484,56.3357144 53.7698938,56.3357144 C54.7430726,56.3534291 55.7035181,56.1145615 56.5528723,55.6435737 C59.9542905,53.7033104 60.6528983,48.0186794 58.9636417,40.8930342 C66.0699717,38.7485327 70.6910904,35.3105223 70.6968166,31.4243225 L70.6968166,31.435669 Z M45.0487491,13.7180018 C49.7385833,9.55948427 52.6704454,9.1112948 53.7126308,9.1112948 L53.7126308,9.1112948 C54.1959738,9.09590986 54.6746015,9.20956038 55.0983938,9.44034529 C56.7361137,10.3650907 57.3889111,13.6272292 56.8678184,17.9502719 C56.7343419,19.0542807 56.5432092,20.1506948 56.2951891,21.2351036 C53.9223318,20.6886777 51.5159841,20.296386 49.0915122,20.0607338 C47.6477464,18.0534706 46.0714801,16.1430725 44.3730465,14.342063 C44.5849194,14.1321515 44.8139711,13.92224 45.0487491,13.7180018 Z M30.8532681,34.6410747 C31.299919,35.4920674 31.7752013,36.3430601 32.2676625,37.199726 C32.7601238,38.056392 33.2754902,38.9244045 33.8481195,39.7810704 C32.296294,39.5598123 30.7902789,39.2818214 29.3587056,38.9527709 C29.7595461,37.5117567 30.2691862,36.0934356 30.8532681,34.6410747 Z M29.2670849,23.8391412 C30.7158371,23.5044174 32.2333048,23.2264265 33.8080354,23.0108417 C33.2354061,23.8504878 32.7429449,24.712827 32.2275785,25.6148792 C31.7122121,26.5169314 31.2598349,27.3168645 30.8189104,28.1792038 C30.2348284,26.7041498 29.7175533,25.2574623 29.2670849,23.8391412 Z M32.2504837,31.4073026 C32.960544,29.9209021 33.7412287,28.4345016 34.5925376,26.9481011 C35.4514816,25.4617005 36.3734148,24.015013 37.3239795,22.6307316 C38.9903308,22.5059193 40.7082188,22.4378399 42.4776434,22.4435132 C44.2470681,22.4491865 45.9134194,22.5115926 47.5683182,22.6420782 C48.5188828,24.015013 49.4293635,25.4787204 50.2883075,26.9254079 C51.1472514,28.3720954 51.9374799,29.8868624 52.6475403,31.3675896 C51.9432062,32.8539901 51.158704,34.346064 50.3112126,35.8211179 C49.4637212,37.2961719 48.5303354,38.7598792 47.5797707,40.1441606 C45.9134194,40.2746462 44.1955314,40.3370523 42.4261068,40.3370523 C40.6566822,40.3370523 38.9903308,40.2632996 37.3354321,40.1328141 C36.3848674,38.7598792 35.4686605,37.3302116 34.6097165,35.8494843 C33.7507725,34.3687571 32.9891755,32.8880299 32.2733888,31.4073026 L32.2504837,31.4073026 Z M51.0670833,23.0278615 C52.6246351,23.2434463 54.1306502,23.5214373 55.5564973,23.8504878 C55.1327516,25.251789 54.6288377,26.68713 54.0447558,28.1338175 C53.5923787,27.2828248 53.1228226,26.4318322 52.6246351,25.5751662 C52.1264476,24.7185003 51.5996286,23.856161 51.0899885,23.0278615 L51.0670833,23.0278615 Z M52.6475403,37.1656863 C53.1400015,36.3071293 53.6095575,35.4504633 54.0562084,34.5956885 C54.6288377,36.0707424 55.2014671,37.5231032 55.6023076,38.9414243 C54.1592817,39.2761481 52.641814,39.5484658 51.0670833,39.7640506 C51.620625,38.9244045 52.1550791,38.0582831 52.6704454,37.1656863 L52.6475403,37.1656863 Z M42.4375594,16.2709798 C43.4682922,17.3602504 44.4818461,18.5402935 45.4724948,19.805436 C44.4932987,19.765723 43.4911973,19.7373565 42.4776434,19.7373565 C41.4640895,19.7373565 40.4276304,19.7373565 39.4255291,19.805436 C40.4047253,18.5459668 41.4068266,17.3602504 42.4375594,16.2709798 Z M29.7366409,9.46303843 C30.1710913,9.23411663 30.6594146,9.12442852 31.1510354,9.1453345 C32.1827317,9.18793184 33.1944656,9.44093807 34.1229816,9.88853476 C36.2215059,10.8687778 38.1533629,12.1664519 39.8492748,13.7350216 L40.5192511,14.342063 C38.8381714,16.1299036 37.2772689,18.0250667 35.8465958,20.0153475 C33.4090395,20.2493015 30.989371,20.6396869 28.6028349,21.1840441 C28.350878,20.0834269 28.1447314,19.0055028 28.0302055,17.9672918 C27.434671,13.683962 28.1218262,10.4161502 29.7309146,9.48573157 L29.7366409,9.46303843 Z M26.7074318,38.2265905 C25.6314931,37.9011592 24.5727074,37.5224644 23.5350653,37.0919336 C19.4693971,35.3899483 16.9498281,33.2057338 16.9498281,31.3392232 C16.9498281,29.4727126 19.4808497,27.2998447 23.5407916,25.6262258 C24.5599398,25.2080016 25.5996129,24.840668 26.6558951,24.5256086 C27.3717395,26.8760354 28.2440482,29.1768679 29.2670849,31.4129759 C28.2658204,33.6268603 27.4108017,35.9028592 26.7074318,38.2265905 L26.7074318,38.2265905 Z M39.8779063,49.0625638 C35.1880721,53.2210813 32.25621,53.6635974 31.2082983,53.6635974 C30.7248977,53.6795443 30.2461219,53.5658586 29.8225353,53.3345469 C28.1848154,52.4098016 27.532018,49.147663 28.0531107,44.8246203 C28.1861068,43.7224174 28.3772447,42.6278672 28.62574,41.5454619 C30.9992865,42.0871622 33.4054479,42.4775285 35.829417,42.7141585 C37.2714288,44.7227481 38.8477881,46.6332589 40.5478826,48.4328292 L39.8779063,49.0625638 Z M42.4948223,46.5039125 C41.4640895,45.4146419 40.4505356,44.2345987 39.4541606,42.9694563 C40.439083,43.0148426 41.4411844,43.0375357 42.4547383,43.0375357 C43.4682922,43.0375357 44.5047513,43.0375357 45.5068526,42.9751296 C44.5162038,44.2345987 43.5083762,45.4146419 42.489096,46.5039125 L42.4948223,46.5039125 Z M55.1957408,53.3118538 C54.7612658,53.5476747 54.2707356,53.6632932 53.77562,53.6465776 C52.7334347,53.6465776 49.7672148,53.1927148 45.0945595,49.0512172 L44.4245831,48.4441758 C46.1037584,46.6562131 47.6627481,44.7610499 49.0915122,42.7708913 C51.531387,42.5402159 53.9531759,42.149797 56.3409994,41.6021947 C56.5929563,42.7028119 56.7933766,43.780736 56.9136288,44.818947 C57.4805318,49.0966035 56.8220081,52.3644153 55.1900145,53.2891607 L55.1957408,53.3118538 Z M61.3801375,37.1770329 C60.4009414,37.5741628 59.3644823,37.9429263 58.265034,38.2719768 C57.5463602,35.9217347 56.6721613,33.6209619 55.6481179,31.3846095 C56.6539755,29.1732286 57.5128421,26.8990657 58.2192236,24.5766682 C59.2951623,24.9020995 60.353948,25.2807943 61.3915901,25.711325 C65.451532,27.4133104 67.9768273,29.5975249 67.9711108,31.4640355 C67.9653748,33.330546 65.4400794,35.4807208 61.3744112,37.1543397 L61.3801375,37.1770329 Z M42.4375594,36.598361 C45.3407727,36.6014894 47.6968547,34.272296 47.7000198,31.3959581 C47.7031786,28.5196202 45.3522231,26.1853477 42.4490099,26.1822107 C39.5457966,26.17908 37.1897127,28.5082715 37.186536,31.3846095 C37.1835067,32.7663371 37.7353935,34.0925052 38.720479,35.0706002 C39.7055644,36.0486953 41.0429181,36.598361 42.4375594,36.598361 L42.4375594,36.598361 Z M2.74289447,67.517758 L2.74289447,4.72017265 L0,7.44334917 L0,70.2239147 L69.8894093,70.2239147 L72.6265775,67.517758 L2.74289447,67.517758 Z" id="Shape"></path>
                </g>
                <g id="CRA" transform="translate(52.000000, 105.000000)" fill="#09D3AC" fill-rule="nonzero">
                    <path d="M7.37149236,14 C10.6590554,14 12.4355647,12.1130435 13.3136095,10.3681159 L10.2915018,8.94782609 C9.84226958,10.0231884 8.67834973,10.915942 7.37149236,10.915942 C5.1457509,10.915942 3.57343812,9.2115942 3.57343812,7 C3.57343812,4.7884058 5.1457509,3.08405797 7.37149236,3.08405797 C8.67834973,3.08405797 9.84226958,3.97681159 10.2915018,5.05217391 L13.3136095,3.63188406 C12.415145,1.84637681 10.6590554,0 7.37149236,0 C3.18546484,0 0,2.82028986 0,7 C0,11.1594203 3.18546484,14 7.37149236,14 Z" id="Path"></path>
                    <path d="M23.2674592,14 L27.7025722,14 L24.6407683,8.92644303 C26.0365906,8.47085832 27.6350324,7.18693778 27.6350324,4.78476387 C27.6350324,2.21692279 25.7439182,0.1875 22.4119552,0.1875 L14.8925251,0.1875 L14.8925251,14 L18.7648064,14 L18.7648064,9.36131934 L20.7459736,9.36131934 L23.2674592,14 Z M23.4325565,4.9576049 C23.4325565,6.00524476 22.6916405,6.5625 21.81424,6.5625 L19.1625408,6.5625 L19.1625408,3.375 L21.81424,3.375 C22.6916405,3.375 23.4325565,3.95454545 23.4325565,4.9576049 Z" id="Shape"></path>
                    <path d="M40.5829984,14 L45,14 L39.2918748,0.1875 L34.3991961,0.1875 L28.7137222,14 L33.1307238,14 L33.8782164,12.011994 L39.8355058,12.011994 L40.5829984,14 Z M37.399737,3.375 L39.5712407,8.6875 L35.2282333,8.6875 L37.399737,3.375 Z" id="Shape"></path>
                </g>
            </g>
        </g>
    </g>
</svg>