<?xml version="1.0" encoding="UTF-8"?>
<svg width="142px" height="142px" viewBox="0 0 142 142" version="1.1" xmlns="http://www.w3.org/2000/svg" xmlns:xlink="http://www.w3.org/1999/xlink">
    <title>icon-sass</title>
    <g id="_PWA---Local" stroke="none" stroke-width="1" fill="none" fill-rule="evenodd">
        <g id="PWA-Icon-Sets" transform="translate(-8262.000000, -744.000000)">
            <g id="icon-sass" transform="translate(8262.000000, 744.000000)">
                <path d="M120.132731,76.303501 C115.903307,76.325574 112.240373,77.3436917 109.171429,78.8639706 C108.049449,76.6152823 106.910969,74.6369884 106.721223,73.1663738 C106.498477,71.450197 106.239982,70.4238018 106.509477,68.3792889 C106.778972,66.334776 107.958701,63.4376929 107.942201,63.2197219 C107.925701,63.0017509 107.678206,61.9615601 105.239,61.9422462 C102.799794,61.9256914 100.712581,62.4140569 100.467836,63.0596925 C100.22309,63.7053282 99.7528487,65.159388 99.461354,66.6769077 C99.0351117,68.8952456 94.5911919,76.8111803 92.0694874,80.9498704 C91.2445023,79.3330221 90.543265,77.9093127 90.3975176,76.783589 C90.1747716,75.0674122 89.9162763,74.041017 90.1857715,71.9965041 C90.4552666,69.9519912 91.6349953,67.0549081 91.6184956,66.8369371 C91.6019959,66.618966 91.3545003,65.5787753 88.9152944,65.5594614 C86.4760884,65.5429066 84.3888761,66.031272 84.1441305,66.6769077 C83.899385,67.3225434 83.6353897,68.8317857 83.1376487,70.2941229 C82.6371577,71.7537009 76.7330143,84.9561224 75.1847923,88.3801987 C74.3955565,90.1239669 73.7108189,91.5256032 73.2268276,92.4802611 C73.2240777,92.477502 73.2240777,92.4747429 73.2240777,92.4747429 C73.2240777,92.4747429 73.1938282,92.5382028 73.1443291,92.6458087 C72.7290866,93.4597511 72.484341,93.9094888 72.484341,93.9094888 C72.484341,93.9094888 72.487091,93.915007 72.4925909,93.9260435 C72.1625969,94.524774 71.8106032,95.0793585 71.6373563,95.0793585 C71.5163585,95.0793585 71.2716129,93.4873424 71.6896054,91.302114 C72.5695895,86.7219636 74.6788014,79.5813435 74.6595518,79.3330221 C74.648552,79.2061023 75.0527947,77.9617361 73.2818267,77.3105822 C71.5603577,76.6787422 70.9471188,77.7327286 70.7903716,77.7354877 C70.6391244,77.7382469 70.5263764,78.1079698 70.5263764,78.1079698 C70.5263764,78.1079698 72.4430918,70.0761519 66.8689424,70.0761519 C63.3820054,70.0761519 58.5530926,73.9030607 56.1743855,77.371283 C54.6729126,78.1935028 51.4582207,79.9538256 48.0510322,81.832791 C46.7420558,82.5556822 45.40558,83.292369 44.1378528,83.9931872 C44.0526044,83.8966178 43.964606,83.8028075 43.8766076,83.706238 C37.1144797,76.4690486 24.6187053,71.3508684 25.1466957,61.6194284 C25.3391923,58.0822279 26.5656701,48.767416 49.1620121,37.471551 C67.6719279,28.2174399 82.4914104,30.7641139 85.0516141,36.4065281 C88.7090481,44.4714556 77.1317571,59.456273 57.9096042,61.6194284 C50.5864864,62.4444073 46.7283061,59.5942293 45.7685734,58.5347247 C44.7593416,57.4172783 44.6080944,57.367614 44.2313512,57.5773077 C43.6181122,57.9194394 44.0058552,58.9044476 44.2313512,59.4921416 C44.8060908,60.9903475 47.1600483,63.6473865 51.1749758,64.9717674 C54.708662,66.1361189 63.3077567,66.7734771 73.705319,62.7368747 C85.3541087,58.2174251 94.4481945,45.6413253 91.7752428,35.1318115 C89.0582918,24.4429545 71.3926108,20.927827 54.6729126,26.8875408 C44.7098425,30.4357778 33.938287,36.0036956 26.1916769,43.2712355 C16.9820931,51.9128205 15.5136197,59.4369591 16.1186087,62.5796045 C18.2690699,73.7485496 33.6110429,81.0216077 39.754432,86.4101822 C39.4519374,86.578489 39.1659426,86.7357592 38.9074473,86.8792338 C35.8275029,88.40779 24.131964,94.5496062 21.2060169,101.036313 C17.8868268,108.394904 21.7340073,113.675873 24.2804614,114.387728 C32.1700689,116.589511 40.2659228,112.627405 44.6190942,106.115866 C48.9695156,99.6070855 48.4387752,91.128289 46.4423112,87.2599933 C46.4175617,87.2130881 46.3900622,87.166183 46.3653126,87.1165187 C47.1600483,86.644708 47.9712836,86.16462 48.7742691,85.6900502 C50.3417408,84.7657427 51.881713,83.9048952 53.2154389,83.1764857 C52.4674525,85.229276 51.9202123,87.6931762 51.6369674,91.2496906 C51.3014735,95.4270085 53.0091927,100.82662 55.2421524,102.951147 C56.2266346,103.886491 57.4091132,103.908564 58.1570997,103.908564 C60.7558028,103.908564 61.9410314,101.73989 63.2472578,99.1739026 C64.8477289,96.0284981 66.2694533,92.3643778 66.2694533,92.3643778 C66.2694533,92.3643778 64.4874854,102.258606 69.3438978,102.258606 C71.1148658,102.258606 72.8940837,99.9547355 73.6888193,98.7821066 C73.6915693,98.7959022 73.6915693,98.8014205 73.6915693,98.8014205 C73.6915693,98.8014205 73.7383184,98.7241649 73.8290668,98.572413 C74.0133134,98.290982 74.1178116,98.1116388 74.1178116,98.1116388 C74.1178116,98.1116388 74.1205615,98.0923249 74.1260614,98.0592154 C74.8382985,96.8203675 76.41677,93.9950217 78.7817274,89.3348566 C81.8396721,83.314442 84.7711192,75.7709895 84.7711192,75.7709895 C84.7711192,75.7709895 85.0433643,77.6140862 85.9370982,80.6656803 C86.4623387,82.4591127 87.5788185,84.4429249 88.4615526,86.3467223 C87.7520654,87.3344897 87.3175732,87.9001107 87.3175732,87.9001107 C87.3175732,87.9001107 87.3203232,87.9111472 87.328573,87.9304611 C86.7620833,88.6864618 86.1268447,89.5004042 85.4613568,90.2950327 C83.0469003,93.1783202 80.1732022,96.4727175 79.7882092,97.4218571 C79.3344674,98.5420626 79.4417154,99.3642824 80.3189496,100.029232 C80.959688,100.512079 82.0981675,100.589335 83.288896,100.50932 C85.4586068,100.363086 86.9820793,99.8222974 87.7355657,99.4939613 C88.9097945,99.0773332 90.2765198,98.4234201 91.5579967,97.4770397 C93.9257039,95.7305124 95.3529282,93.2335027 95.2154306,89.9225506 C95.138432,88.0987678 94.5609425,86.2915398 93.8267057,84.5863995 C94.0412018,84.2773773 94.255698,83.9628368 94.472944,83.6482964 C98.2046267,78.1741889 101.100324,72.1592926 101.100324,72.1592926 C101.100324,72.1592926 101.372569,74.0023892 102.266303,77.0539834 C102.717295,78.5963353 103.611029,80.2821617 104.414015,81.9321195 C100.905078,84.793334 98.7298672,88.1180817 97.9736308,90.2977918 C96.5766561,94.3316352 97.6711363,96.1581771 99.7225993,96.5748052 C100.652082,96.7624258 101.966559,96.3347612 102.953791,95.9153739 C104.183019,95.5070232 105.659742,94.8255188 107.040217,93.8074011 C109.407924,92.0608738 111.684883,89.6162875 111.547386,86.3080946 C111.484137,84.8016114 111.077144,83.3061647 110.524404,81.8714187 C113.499851,80.6270526 117.349781,79.9372709 122.255692,80.5111692 C132.779752,81.7444989 134.842215,88.3360527 134.448972,91.0951795 C134.052979,93.8543062 131.847519,95.3718259 131.107783,95.829841 C130.370796,96.287856 130.1453,96.4478854 130.205799,96.787258 C130.296547,97.2811417 130.637541,97.2645869 131.26728,97.1569809 C132.133514,97.0107472 136.79193,94.9138109 136.992676,89.8204629 C137.242922,83.3475516 131.069283,76.2455593 120.132731,76.303501 Z M39.0174453,103.740257 C35.5305082,107.55613 30.6630961,108.996394 28.5731339,107.782378 C26.3181746,106.471793 27.2119084,100.854211 31.4880812,96.8038127 C34.0950342,94.3371534 37.4609734,92.063633 39.6939331,90.6647557 C40.2026739,90.3584926 40.9479104,89.908755 41.8553941,89.3624479 C42.0066413,89.2769149 42.0918898,89.2300098 42.0918898,89.2300098 L42.0891398,89.2244915 C42.2651367,89.1196447 42.4438834,89.0120388 42.6281301,88.8989146 C44.187352,94.6627304 42.6776292,99.7367645 39.0174453,103.740257 Z M64.4132368,86.4212188 C63.2005087,89.3900391 60.6595545,96.9886742 59.1113325,96.5803235 C57.7831065,96.2299144 56.9746211,90.4550621 58.8473373,84.771261 C59.7878203,81.9100465 61.8007839,78.4914885 62.9832626,77.1643485 C64.8862282,75.0287844 66.9816904,74.3307253 67.4904312,75.1970911 C68.1366695,76.3007418 65.174973,84.5588082 64.4132368,86.4212188 Z M85.392608,96.4644401 C84.8783673,96.7348346 84.4053758,96.9031413 84.1881297,96.7734623 C84.0258827,96.6768929 84.3998759,96.3209655 84.3998759,96.3209655 C84.3998759,96.3209655 87.0233285,93.4873424 88.0573099,92.1988302 C88.659549,91.4483477 89.3552864,90.5571498 90.1142727,89.5638641 C90.1197726,89.6631927 90.1225226,89.7625213 90.1225226,89.8590907 C90.1170227,93.2528166 86.8500817,95.5428918 85.392608,96.4644401 Z M101.554066,92.7672103 C101.169073,92.4940567 101.235072,91.608377 102.497299,88.8464912 C102.99229,87.7621544 104.12527,85.9383716 106.088734,84.1946035 C106.31698,84.9119764 106.454478,85.598999 106.451768,86.2391164 C106.426978,90.5102446 103.391033,92.1050199 101.554066,92.7672103 Z" id="Shape" fill="#F06292" fill-rule="nonzero"></path>
                <rect id="BASE_TRANS" opacity="0.288334438" x="0" y="0" width="142" height="142"></rect>
            </g>
        </g>
    </g>
</svg>