<?xml version="1.0" encoding="UTF-8"?>
<svg width="142px" height="142px" viewBox="0 0 142 142" version="1.1" xmlns="http://www.w3.org/2000/svg" xmlns:xlink="http://www.w3.org/1999/xlink">
    <title>icon-workbox</title>
    <g id="_PWA---Local" stroke="none" stroke-width="1" fill="none" fill-rule="evenodd">
        <g id="PWA-Icon-Sets" transform="translate(-8543.000000, -918.000000)">
            <g id="icon-workbox" transform="translate(8543.000000, 918.000000)">
                <rect id="BASE_TRANS" opacity="0.288334438" x="0" y="0" width="142" height="142"></rect>
                <g id="google-workbox-seeklogo.com" transform="translate(36.000000, 29.000000)">
                    <path d="M31.0807872,30.9378896 L67,30.2804472 L66.968928,45.8868763 L31.1165199,57 M39.1517349,40.0951223 L39.1517349,44.0632565 L61.1538063,39.7820545 L61.1343863,37.3166457 M31.03884,1 L66.9044537,12.1178197 L66.9269808,27.7672956 L31,27.1020266 M39.0787157,13.9923131 L39.0787157,17.9447939 L61.062144,20.7232704 L61.062144,18.2578616" id="Shape" fill="#F57C00"></path>
                    <polyline id="Path" fill="#616161" fill-rule="nonzero" points="0 13.4358423 6.10081808 10.5021554 6.3033462 39.8908212 8.83982551 40.6697106 9.2300531 9.00785604 16.3247808 5.64694823 16.4882862 42.850601 19.6101069 43.8242127 19.8832662 3.9061304 27.9793179 0 28 58 0.0206820621 44.5641577"></polyline>
                </g>
                <g id="Workbox" transform="translate(33.000000, 98.398926)" fill="#616161" fill-rule="nonzero">
                    <path d="M17.1035156,0 L15.1860352,16.6010742 L9.79248047,16.6010742 C9.30029297,14.0512695 8.86621094,11.152832 8.49023438,7.90576172 C8.31933594,9.29345703 7.91943359,12.1918945 7.29052734,16.6010742 L1.92773437,16.6010742 L0,0 L4.19384766,0 L4.63476562,5.79345703 L5.0859375,11.3818359 C5.24316406,8.49023438 5.63964844,4.69628906 6.27539062,0 L10.7666016,0 C10.828125,0.485351562 10.9853516,2.31054688 11.2382812,5.47558594 L11.7099609,11.7817383 C11.9492188,7.76904297 12.3491211,3.84179688 12.909668,0 L17.1035156,0 Z" id="Path"></path>
                    <path d="M27.2138672,7.77246094 L27.2138672,11.1049805 C27.2138672,12.3286133 27.1523438,13.2258301 27.0292969,13.7966309 C26.90625,14.3674316 26.6430664,14.9006348 26.2397461,15.3962402 C25.8364258,15.8918457 25.3186035,16.2575684 24.6862793,16.4934082 C24.0539551,16.729248 23.3276367,16.847168 22.5073242,16.847168 C21.5913086,16.847168 20.8154297,16.7463379 20.1796875,16.5446777 C19.5439453,16.3430176 19.0500488,16.0388184 18.697998,15.6320801 C18.3459473,15.2253418 18.0947266,14.7331543 17.9443359,14.1555176 C17.7939453,13.5778809 17.71875,12.7114258 17.71875,11.5561523 L17.71875,8.06982422 C17.71875,6.80517578 17.8554688,5.81738281 18.1289062,5.10644531 C18.4023438,4.39550781 18.8945312,3.82470703 19.6054688,3.39404297 C20.3164062,2.96337891 21.2255859,2.74804688 22.3330078,2.74804688 C23.2626953,2.74804688 24.060791,2.88647461 24.7272949,3.16333008 C25.3937988,3.44018555 25.9082031,3.80078125 26.2705078,4.24511719 C26.6328125,4.68945312 26.8806152,5.14746094 27.013916,5.61914062 C27.1472168,6.09082031 27.2138672,6.80859375 27.2138672,7.77246094 Z M23.0712891,6.74707031 C23.0712891,6.04980469 23.0336914,5.6105957 22.9584961,5.42944336 C22.8833008,5.24829102 22.7226562,5.15771484 22.4765625,5.15771484 C22.2304688,5.15771484 22.0664062,5.24829102 21.984375,5.42944336 C21.9023438,5.6105957 21.8613281,6.04980469 21.8613281,6.74707031 L21.8613281,12.8891602 C21.8613281,13.5317383 21.9023438,13.9504395 21.984375,14.1452637 C22.0664062,14.3400879 22.2270508,14.4375 22.4663086,14.4375 C22.7124023,14.4375 22.8747559,14.3486328 22.9533691,14.1708984 C23.0319824,13.9931641 23.0712891,13.6103516 23.0712891,13.0224609 L23.0712891,6.74707031 Z" id="Shape"></path>
                    <path d="M32.7202148,2.99414062 L32.5561523,4.77832031 C33.1577148,3.5 34.0292969,2.82324219 35.1708984,2.74804688 L35.1708984,7.53662109 C34.4121094,7.53662109 33.8549805,7.63916016 33.4995117,7.84423828 C33.144043,8.04931641 32.925293,8.3347168 32.8432617,8.70043945 C32.7612305,9.06616211 32.7202148,9.90869141 32.7202148,11.2280273 L32.7202148,16.6010742 L28.5776367,16.6010742 L28.5776367,2.99414062 L32.7202148,2.99414062 Z" id="Path"></path>
                    <polygon id="Path" points="45.0146484 2.99414062 43.3330078 8.41845703 45.5170898 16.6010742 41.5283203 16.6010742 40.2363281 10.6743164 40.2363281 16.6010742 36.09375 16.6010742 36.09375 0 40.2363281 0 40.2363281 6.97265625 41.5283203 2.99414062"></polygon>
                    <path d="M50.2749023,0 L50.2749023,3.92724609 C50.6166992,3.53076172 50.9978027,3.23510742 51.4182129,3.0402832 C51.838623,2.84545898 52.2949219,2.74804688 52.7871094,2.74804688 C53.3544922,2.74804688 53.8466797,2.83691406 54.2636719,3.01464844 C54.6806641,3.19238281 54.9985352,3.44189453 55.2172852,3.76318359 C55.4360352,4.08447266 55.567627,4.39892578 55.6120605,4.70654297 C55.6564941,5.01416016 55.6787109,5.67041016 55.6787109,6.67529297 L55.6787109,12.8071289 C55.6787109,13.8051758 55.6120605,14.548584 55.4787598,15.0373535 C55.345459,15.526123 55.0327148,15.9499512 54.5405273,16.3088379 C54.0483398,16.6677246 53.4638672,16.847168 52.7871094,16.847168 C52.3017578,16.847168 51.848877,16.7412109 51.4284668,16.5292969 C51.0080566,16.3173828 50.6235352,15.9995117 50.2749023,15.5756836 L50.0083008,16.6010742 L46.1323242,16.6010742 L46.1323242,0 L50.2749023,0 Z M51.5361328,6.85986328 C51.5361328,6.15576172 51.4916992,5.69604492 51.402832,5.48071289 C51.3139648,5.26538086 51.1396484,5.15771484 50.8798828,5.15771484 C50.6269531,5.15771484 50.4628906,5.25170898 50.3876953,5.43969727 C50.3125,5.62768555 50.2749023,6.10107422 50.2749023,6.85986328 L50.2749023,12.7250977 C50.2749023,13.456543 50.317627,13.9248047 50.4030762,14.1298828 C50.4885254,14.3349609 50.6577148,14.4375 50.9106445,14.4375 C51.1704102,14.4375 51.3395996,14.331543 51.4182129,14.1196289 C51.4968262,13.9077148 51.5361328,13.3984375 51.5361328,12.5917969 L51.5361328,6.85986328 Z" id="Shape"></path>
                    <path d="M66.4145508,7.77246094 L66.4145508,11.1049805 C66.4145508,12.3286133 66.3530273,13.2258301 66.2299805,13.7966309 C66.1069336,14.3674316 65.84375,14.9006348 65.4404297,15.3962402 C65.0371094,15.8918457 64.5192871,16.2575684 63.8869629,16.4934082 C63.2546387,16.729248 62.5283203,16.847168 61.7080078,16.847168 C60.7919922,16.847168 60.0161133,16.7463379 59.3803711,16.5446777 C58.7446289,16.3430176 58.2507324,16.0388184 57.8986816,15.6320801 C57.5466309,15.2253418 57.2954102,14.7331543 57.1450195,14.1555176 C56.9946289,13.5778809 56.9194336,12.7114258 56.9194336,11.5561523 L56.9194336,8.06982422 C56.9194336,6.80517578 57.0561523,5.81738281 57.3295898,5.10644531 C57.6030273,4.39550781 58.0952148,3.82470703 58.8061523,3.39404297 C59.5170898,2.96337891 60.4262695,2.74804688 61.5336914,2.74804688 C62.4633789,2.74804688 63.2614746,2.88647461 63.9279785,3.16333008 C64.5944824,3.44018555 65.1088867,3.80078125 65.4711914,4.24511719 C65.8334961,4.68945312 66.0812988,5.14746094 66.2145996,5.61914062 C66.3479004,6.09082031 66.4145508,6.80859375 66.4145508,7.77246094 Z M62.2719727,6.74707031 C62.2719727,6.04980469 62.234375,5.6105957 62.1591797,5.42944336 C62.0839844,5.24829102 61.9233398,5.15771484 61.6772461,5.15771484 C61.4311523,5.15771484 61.2670898,5.24829102 61.1850586,5.42944336 C61.1030273,5.6105957 61.0620117,6.04980469 61.0620117,6.74707031 L61.0620117,12.8891602 C61.0620117,13.5317383 61.1030273,13.9504395 61.1850586,14.1452637 C61.2670898,14.3400879 61.4277344,14.4375 61.6669922,14.4375 C61.9130859,14.4375 62.0754395,14.3486328 62.1540527,14.1708984 C62.232666,13.9931641 62.2719727,13.6103516 62.2719727,13.0224609 L62.2719727,6.74707031 Z" id="Shape"></path>
                    <path d="M75.9814453,2.99414062 L74.3305664,9.49511719 L76.3300781,16.6010742 L72.300293,16.6010742 C71.9038086,14.8100586 71.6030273,13.2685547 71.3979492,11.9765625 C71.1245117,13.5898438 70.8271484,15.1313477 70.5058594,16.6010742 L67.0400391,16.6010742 L68.8242188,9.49511719 L67.0400391,2.99414062 L70.5058594,2.99414062 C71.0595703,5.76953125 71.3569336,7.34521484 71.3979492,7.72119141 C71.7944336,5.40380859 72.0952148,3.828125 72.300293,2.99414062 L75.9814453,2.99414062 Z" id="Path"></path>
                </g>
            </g>
        </g>
    </g>
</svg>