<?xml version="1.0" encoding="UTF-8"?>
<svg width="142px" height="142px" viewBox="0 0 142 142" version="1.1" xmlns="http://www.w3.org/2000/svg" xmlns:xlink="http://www.w3.org/1999/xlink">
    <title>icon-apollo-app</title>
    <defs>
        <linearGradient x1="100%" y1="43.6777074%" x2="0%" y2="43.6777074%" id="linearGradient-1">
            <stop stop-color="#046AA5" offset="0%"></stop>
            <stop stop-color="#250055" offset="100%"></stop>
        </linearGradient>
        <path d="M25.8972222,4.65909091 C29.8203704,5.19181818 33.5731481,6.24818182 37.0805556,7.75454545 C38.162963,6.68090909 39.1407407,5.50545455 39.9990741,4.24363636 C34.9018519,1.89363636 29.3064815,0.413636364 23.4111111,0 C24.0111111,1.67545455 24.8398148,3.22818182 25.8972222,4.65909091 Z M16.587963,0 C10.6925926,0.414545455 5.09722222,1.89363636 0,4.24363636 C0.858333333,5.50454545 1.83611111,6.68 2.91851852,7.75454545 C6.42592593,6.24818182 10.1787037,5.19181818 14.1018519,4.65909091 C15.1583333,3.22818182 15.987037,1.67545455 16.587963,0 Z" id="path-2"></path>
        <path d="M20,0 L20,0 L20,0 C20,0 0.00462962963,36.4954545 0,36.4890909 C5.09722222,34.1390909 10.6925926,32.66 16.587963,32.2454545 C17.3694444,30.0645455 17.7712963,27.3036364 17.7712963,25.0536364 C17.7712963,25.0536364 15.8601852,25.1245455 14.0574074,25.3381818 L15.5425926,21.1745455 C18.512963,21.1745455 17.7703704,15.2418182 19.9990741,12.4127273 L19.9990741,12.4127273 C19.9990741,12.4127273 19.9990741,12.4127273 19.9990741,12.4127273 C19.9990741,12.4127273 19.9990741,12.4127273 19.9990741,12.4127273 L19.9990741,12.4127273 C22.2268519,15.2418182 21.4842593,21.1745455 24.4555556,21.1745455 L25.9407407,25.3381818 C24.1388889,25.1254545 22.2268519,25.0536364 22.2268519,25.0536364 C22.2268519,27.3036364 22.6287037,30.0645455 23.4101852,32.2454545 C29.3055556,32.66 34.9009259,34.1390909 39.9981481,36.4890909 C39.9953704,36.4954545 20,0 20,0 Z" id="path-4"></path>
        <path d="M25.8972222,4.65909091 C29.8203704,5.19181818 33.5731481,6.24818182 37.0805556,7.75454545 C38.162963,6.68090909 39.1407407,5.50545455 39.9990741,4.24363636 C34.9018519,1.89363636 29.3064815,0.413636364 23.4111111,0 C24.0111111,1.67545455 24.8398148,3.22818182 25.8972222,4.65909091 Z M16.587963,0 C10.6925926,0.414545455 5.09722222,1.89363636 0,4.24363636 C0.858333333,5.50454545 1.83611111,6.68 2.91851852,7.75454545 C6.42592593,6.24818182 10.1787037,5.19181818 14.1018519,4.65909091 C15.1583333,3.22818182 15.987037,1.67545455 16.587963,0 Z" id="path-6"></path>
        <path d="M20,0 L20,0 L20,0 C20,0 0.00462962963,36.4954545 0,36.4890909 C5.09722222,34.1390909 10.6925926,32.66 16.587963,32.2454545 C17.3694444,30.0645455 17.7712963,27.3036364 17.7712963,25.0536364 C17.7712963,25.0536364 15.8601852,25.1245455 14.0574074,25.3381818 L15.5425926,21.1745455 C18.512963,21.1745455 17.7703704,15.2418182 19.9990741,12.4127273 L19.9990741,12.4127273 C19.9990741,12.4127273 19.9990741,12.4127273 19.9990741,12.4127273 C19.9990741,12.4127273 19.9990741,12.4127273 19.9990741,12.4127273 L19.9990741,12.4127273 C22.2268519,15.2418182 21.4842593,21.1745455 24.4555556,21.1745455 L25.9407407,25.3381818 C24.1388889,25.1254545 22.2268519,25.0536364 22.2268519,25.0536364 C22.2268519,27.3036364 22.6287037,30.0645455 23.4101852,32.2454545 C29.3055556,32.66 34.9009259,34.1390909 39.9981481,36.4890909 C39.9953704,36.4954545 20,0 20,0 Z" id="path-8"></path>
    </defs>
    <g id="_PWA---Local" stroke="none" stroke-width="1" fill="none" fill-rule="evenodd">
        <g id="PWA-Icon-Sets" transform="translate(-7894.000000, -1259.000000)">
            <g id="icon-apollo-app" transform="translate(7894.000000, 1259.000000)">
                <rect id="BASE_TRANS" opacity="0.288334438" x="0" y="0" width="142" height="142"></rect>
                <path d="M49.0152672,31 L92.9847328,31 C102.93429,31 111,39.0657099 111,49.0152672 L111,92.9847328 C111,102.93429 102.93429,111 92.9847328,111 L49.0152672,111 C39.0657099,111 31,102.93429 31,92.9847328 L31,49.0152672 C31,39.0657099 39.0657099,31 49.0152672,31 Z" id="Rectangle" fill="url(#linearGradient-1)"></path>
                <path d="M111,78 L111,92.4577725 C111,102.698362 102.977745,111 93.0819318,111 L49.3499752,111 C44.0462453,111 39.2807272,108.615355 36,104.825625 C54.6597343,104.950747 73.7055003,99.0913094 93.1374188,87.2487493 C99.1295765,83.5968974 105.08377,80.513981 111,78 Z" id="Path" fill="#FFFFFF" opacity="0.72" style="mix-blend-mode: soft-light;"></path>
                <path d="M31,85 C53.5131011,94.018952 78.0907272,100.060679 104.732878,94.7366982 L105.783568,94.5302421 C106.948459,94.3052414 108.68727,93.9403057 111,93.4354352 C111,102.458836 102.934315,111 92.9847877,111 L49.0154559,111 C39.0659289,111 31,102.462305 31,93.4354352 L31,85 Z" id="Path" fill="#FF9300" opacity="0.48"></path>
                <path d="M47.7672733,96.2242655 C69.2765413,106.591466 90.0207835,106.739931 110,98.3579995 C107.442416,105.248418 100.835401,111 93.0880882,111 L49.04545,111 C39.079335,111 31,102.879135 31,92.8615408 L31,90 C36.5346401,91.4293931 42.1237311,93.5041483 47.7672733,96.2242655 Z" id="Path" fill="#DF216D" opacity="0.719470796"></path>
                <g id="Group-2" transform="translate(50.000000, 44.000000)">
                    <g id="_logo/apollo" style="mix-blend-mode: overlay;">
                        <g id="bottom" transform="translate(0.000926, 32.245455)">
                            <mask id="mask-3" fill="white">
                                <use xlink:href="#path-2"></use>
                            </mask>
                            <use id="container" fill-opacity="0" fill="#000000" fill-rule="nonzero" xlink:href="#path-2"></use>
                            <g id="color" opacity="0.4" mask="url(#mask-3)" fill="#FFFFFF">
                                <g transform="translate(-1.088680, -33.164373)" id="Rectangle">
                                    <rect x="0" y="0" width="42.709376" height="41.9328419"></rect>
                                </g>
                            </g>
                        </g>
                        <g id="top">
                            <mask id="mask-5" fill="white">
                                <use xlink:href="#path-4"></use>
                            </mask>
                            <use id="container" fill-opacity="0" fill="#000000" fill-rule="nonzero" xlink:href="#path-4"></use>
                            <g id="color" mask="url(#mask-5)" fill="#FFFFFF">
                                <g transform="translate(-1.087754, -0.918919)" id="Rectangle">
                                    <rect x="0" y="0" width="42.709376" height="41.9328419"></rect>
                                </g>
                            </g>
                        </g>
                    </g>
                    <g id="_logo/apollo" opacity="0.972088481" style="mix-blend-mode: overlay;">
                        <g id="bottom" transform="translate(0.000926, 32.245455)">
                            <mask id="mask-7" fill="white">
                                <use xlink:href="#path-6"></use>
                            </mask>
                            <use id="container" fill-opacity="0" fill="#000000" fill-rule="nonzero" xlink:href="#path-6"></use>
                            <g id="color" opacity="0.4" mask="url(#mask-7)" fill="#FFFFFF">
                                <g transform="translate(-1.088680, -33.164373)" id="Rectangle">
                                    <rect x="0" y="0" width="42.709376" height="41.9328419"></rect>
                                </g>
                            </g>
                        </g>
                        <g id="top">
                            <mask id="mask-9" fill="white">
                                <use xlink:href="#path-8"></use>
                            </mask>
                            <use id="container" fill-opacity="0" fill="#000000" fill-rule="nonzero" xlink:href="#path-8"></use>
                            <g id="color" mask="url(#mask-9)" fill="#FFFFFF">
                                <g transform="translate(-1.087754, -0.918919)" id="Rectangle">
                                    <rect x="0" y="0" width="42.709376" height="41.9328419"></rect>
                                </g>
                            </g>
                        </g>
                    </g>
                </g>
                <path d="M66.0053152,104.149224 C81.4072347,97.1132095 92.8209185,93.0892666 111,94.1758879 C110.81045,103.420046 102.37544,111 93.1294304,111 L48.8832003,111 C47.9019742,111 46.9389555,110.925732 46,110.782774 C52.593714,109.440941 59.2620926,107.22971 66.0053152,104.149224 Z" id="Path" fill="#9E54B0" opacity="0.8"></path>
            </g>
        </g>
    </g>
</svg>