<?xml version="1.0" encoding="UTF-8"?>
<svg width="142px" height="142px" viewBox="0 0 142 142" version="1.1" xmlns="http://www.w3.org/2000/svg" xmlns:xlink="http://www.w3.org/1999/xlink">
    <title>icon-lottie</title>
    <g id="_PWA---Local" stroke="none" stroke-width="1" fill="none" fill-rule="evenodd">
        <g id="PWA-Icon-Sets" transform="translate(-8463.000000, -1253.000000)">
            <g id="icon-lottie" transform="translate(8463.000000, 1253.000000)">
                <rect id="BASE_TRANS" opacity="0.288334438" x="0" y="0" width="142" height="142"></rect>
                <g id="LOTTIE" transform="translate(46.550781, 102.929688)" fill="#717171" fill-rule="nonzero">
                    <polygon id="Path" points="0 0.15625 1.5625 0.15625 1.5625 9.6484375 6.4765625 9.6484375 6.4765625 11.0703125 0 11.0703125"></polygon>
                    <path d="M13.203125,0 C14.890625,0 16.2955729,0.533854167 17.4179688,1.6015625 C18.5403646,2.66927083 19.1015625,4.0078125 19.1015625,5.6171875 C19.1015625,7.2265625 18.5351562,8.55859375 17.4023438,9.61328125 C16.2695312,10.6679688 14.8411458,11.1953125 13.1171875,11.1953125 C11.4713542,11.1953125 10.1002604,10.6679688 9.00390625,9.61328125 C7.90755208,8.55859375 7.359375,7.23697917 7.359375,5.6484375 C7.359375,4.01822917 7.91145833,2.66927083 9.015625,1.6015625 C10.1197917,0.533854167 11.515625,0 13.203125,0 Z M13.265625,1.484375 C12.015625,1.484375 10.9882812,1.875 10.1835938,2.65625 C9.37890625,3.4375 8.9765625,4.43489583 8.9765625,5.6484375 C8.9765625,6.82552083 9.38020833,7.8046875 10.1875,8.5859375 C10.9947917,9.3671875 12.0052083,9.7578125 13.21875,9.7578125 C14.4375,9.7578125 15.4544271,9.359375 16.2695312,8.5625 C17.0846354,7.765625 17.4921875,6.7734375 17.4921875,5.5859375 C17.4921875,4.4296875 17.0846354,3.45703125 16.2695312,2.66796875 C15.4544271,1.87890625 14.453125,1.484375 13.265625,1.484375 Z" id="Shape"></path>
                    <polygon id="Path" points="19.046875 0.140625 28.1640625 0.140625 28.1640625 1.53125 24.359375 1.53125 24.359375 11.0703125 22.7890625 11.0703125 22.7890625 1.53125 19.046875 1.53125"></polygon>
                    <polygon id="Path" points="28.7109375 0.140625 37.828125 0.140625 37.828125 1.53125 34.0234375 1.53125 34.0234375 11.0703125 32.453125 11.0703125 32.453125 1.53125 28.7109375 1.53125"></polygon>
                    <polygon id="Path" points="39.3203125 0.15625 40.8828125 0.15625 40.8828125 11.0703125 39.3203125 11.0703125"></polygon>
                    <polygon id="Path" points="43.3046875 0.15625 49.4921875 0.15625 49.4921875 1.546875 44.8671875 1.546875 44.8671875 4.875 49.3359375 4.875 49.3359375 6.2734375 44.8671875 6.2734375 44.8671875 9.6640625 49.640625 9.6640625 49.640625 11.0546875 43.3046875 11.0546875"></polygon>
                </g>
                <g id="Group-3" transform="translate(42.000000, 29.000000)" fill-rule="nonzero">
                    <path d="M43.3249473,0 L14.6754246,0 C6.57038077,0 0,6.57038077 0,14.6754246 L0,43.3249473 C0,51.4296192 6.57038077,58 14.6754246,58 L43.3249473,58 C51.4296192,58 58,51.4296192 58,43.3249473 L58,14.6754246 C58,6.57038077 51.4296192,0 43.3249473,0 Z" id="Path" fill="#00DDB3"></path>
                    <path d="M44.1212151,13 C34.1121997,13 30.4031825,20.124325 27.4207584,25.8475698 L25.472117,29.5093316 C22.3144755,35.5789443 19.9546324,39.2685791 13.8742152,39.2685791 C13.1116904,39.2681126 12.3802952,39.5700262 11.8413204,40.1077405 C11.3024289,40.645123 11,41.3739261 11,42.1337772 C11,42.8936283 11.3032507,43.6222652 11.8424388,44.159352 C12.3814288,44.6965432 13.1120516,44.9988386 13.8742152,45 C23.8873314,45 27.5963486,37.8753034 30.5787727,32.1524302 L32.5233133,28.4906684 C35.6850557,22.420684 38.0448987,18.7314209 44.1212151,18.7314209 C44.8844588,18.7327514 45.6168526,18.4312143 46.1567196,17.8933744 C46.6966606,17.3558671 47,16.6263898 47,15.8657105 C46.9969168,14.2827613 45.7091239,13.0009834 44.1212151,13.0003716 L44.1212151,13 Z" id="Path" fill="#FFFFFF"></path>
                </g>
            </g>
        </g>
    </g>
</svg>