<?xml version="1.0" encoding="UTF-8"?>
<svg width="142px" height="142px" viewBox="0 0 142 142" version="1.1" xmlns="http://www.w3.org/2000/svg" xmlns:xlink="http://www.w3.org/1999/xlink">
    <title>icon-firebase</title>
    <g id="_PWA---Local" stroke="none" stroke-width="1" fill="none" fill-rule="evenodd">
        <g id="PWA-Icon-Sets" transform="translate(-8060.000000, -1259.000000)">
            <g id="icon-firebase" transform="translate(8060.000000, 1259.000000)">
                <rect id="BASE_TRANS" opacity="0.288334438" x="0" y="0" width="142" height="142"></rect>
                <g id="cdnlogo.com_firebase" transform="translate(43.000000, 18.000000)">
                    <path d="M0,56 L8.63062109,1.33518403 C8.73600957,0.664768472 9.262417,0.136273429 9.93861517,0.022419286 C10.6142784,-0.0914348566 11.2878017,0.235829609 11.6103867,0.834225801 L20.5357746,17.3123623 L24.0933045,10.6076772 C24.3688125,10.0892437 24.9118039,9.76462701 25.5040123,9.76462701 C26.0956856,9.76462701 26.6386771,10.0892437 26.914185,10.6076772 L51,56 L0,56 Z" id="Path" fill="#FFA000"></path>
                    <polygon id="Path" fill="#F57C00" points="30 34.5380447 20.6586762 17 0 56"></polygon>
                    <path d="M51,56.4021273 L44.3900183,15.3329637 C44.2899805,14.7431998 43.8705708,14.2587124 43.3029769,14.0760897 C42.735383,13.893467 42.1142929,14.0454735 41.6922084,14.4687286 L0,56.4015902 L23.0696708,69.3908995 C24.518346,70.2030335 26.2826484,70.2030335 27.7313236,69.3908995 L51,56.4015902 L51,56.4021273 Z" id="Path" fill="#FFCA28"></path>
                    <g id="Group">
                        <path d="M44.3936217,15.6425242 C44.2936385,15.0560653 43.8744575,14.5742931 43.307173,14.3926938 C42.7398885,14.2110945 42.1186023,14.3622492 41.6972826,14.7831323 L33.4270123,23.0656624 L26.9238253,10.6976823 C26.6484704,10.1747831 26.1052461,9.84737028 25.5139014,9.84737028 C24.9225568,9.84737028 24.3793324,10.1747831 24.1039775,10.6976823 L20.5484243,17.4606536 L11.6279957,0.840579402 C11.3045206,0.236494691 10.6308368,-0.0925205008 9.95447969,0.0228484626 C9.27812258,0.138217426 8.75361164,0.672867112 8.64935106,1.34959154 L0.0278028222,56.4815349 L0,56.4815349 L0.0278028222,56.5130477 L0.255037427,56.6246779 L41.6855199,15.1890601 C42.1068396,14.7665747 42.7291951,14.6143517 43.2980836,14.7954169 C43.8669721,14.9764821 44.2866878,15.4603908 44.3856017,16.0484521 L50.9358396,56.5210594 L51,56.4815349 L44.3936217,15.6425242 Z M0.103725914,56.4056905 L8.65362842,1.73949591 C8.75735433,1.06277148 9.28346927,0.528121793 9.95929172,0.412752829 C10.6345795,0.297383866 11.3087979,0.626399058 11.6328077,1.23048377 L20.552167,17.850558 L24.1077202,11.0881207 C24.3830751,10.5652216 24.9257648,10.2378088 25.5176441,10.2378088 C26.1089887,10.2378088 26.6516784,10.5652216 26.9270333,11.0881207 L33.2986916,23.193316 L0.103191244,56.4056905 L0.103725914,56.4056905 Z" id="Shape" fill="#FFFFFF"></path>
                        <path d="M27.7440086,69.0081474 C26.2961231,69.8157301 24.5327826,69.8157301 23.0848972,69.0081474 L0.0839431363,56.1274163 L0.0278028222,56.4815349 L23.0848972,69.3943129 C24.5327826,70.2018957 26.2961231,70.2018957 27.7440086,69.3943129 L51,56.4815349 L50.940117,56.1156657 L27.7440086,69.0081474 Z" id="Path" fill="#A52714"></path>
                    </g>
                </g>
                <g id="Firebase" transform="translate(34.000000, 96.000000)" fill="#7D7D7D" fill-rule="nonzero">
                    <polygon id="Path" points="8 4.12759067 2.41763943 4.12759067 2.41763943 7.73186528 7.80285344 7.73186528 7.80285344 9.85945596 2.41763943 9.85945596 2.41763943 17 0 17 0 2 8 2"></polygon>
                    <path d="M11.6518771,7.41338583 L11.6518771,17 L9.34812287,17 L9.34812287,7.41338583 L11.6518771,7.41338583 Z M9,3.42716535 C9,3.04002625 9.14675768,2.70538058 9.44027304,2.42322835 C9.7337884,2.14107612 10.0853242,2 10.4948805,2 C10.9112628,2 11.2662116,2.14107612 11.559727,2.42322835 C11.8532423,2.6988189 12,3.03674541 12,3.43700787 C12,3.83727034 11.8532423,4.17847769 11.559727,4.46062992 C11.2730375,4.74278215 10.9215017,4.88385827 10.5051195,4.88385827 C10.0887372,4.88385827 9.7337884,4.74278215 9.44027304,4.46062992 C9.14675768,4.17847769 9,3.8339895 9,3.42716535 Z" id="Shape"></path>
                    <path d="M14,7.26973027 L16.1193093,7.26973027 L16.1193093,8.13886114 C16.5086342,7.70596071 16.8540031,7.40959041 17.155416,7.24975025 C17.4631083,7.08325008 17.8273155,7 18.2480377,7 C18.8069074,7 19.3908948,7.19314019 20,7.57942058 L19.0298273,9.63736264 C18.6279435,9.33100233 18.2354788,9.17782218 17.8524333,9.17782218 C16.6970173,9.17782218 16.1193093,10.1035631 16.1193093,11.955045 L16.1193093,17 L14,17 L14,7.26973027 Z" id="Path"></path>
                    <path d="M28.9140127,12.5102041 L22.2452229,12.5102041 C22.3025478,13.2876579 22.5509554,13.9063816 22.9904459,14.3663751 C23.4299363,14.8198899 23.9936306,15.0466472 24.6815287,15.0466472 C25.2165605,15.0466472 25.6592357,14.9170716 26.0095541,14.6579203 C26.3535032,14.398769 26.7452229,13.9193392 27.1847134,13.2196307 L29,14.249757 C28.7197452,14.7356657 28.4235669,15.1519274 28.111465,15.4985423 C27.7993631,15.8451571 27.4649682,16.1302235 27.1082803,16.3537415 C26.7515924,16.5772595 26.366242,16.7408487 25.9522293,16.8445092 C25.5382166,16.9481697 25.089172,17 24.6050955,17 C23.2165605,17 22.1019108,16.5464853 21.2611465,15.6394558 C20.4203822,14.7259475 20,13.5144153 20,12.0048591 C20,10.5082604 20.4076433,9.29672822 21.2229299,8.37026239 C22.044586,7.45675413 23.133758,7 24.4904459,7 C25.8598726,7 26.9426752,7.44379657 27.7388535,8.3313897 C28.5286624,9.21250405 28.9235669,10.4337545 28.9235669,11.9951409 L28.9140127,12.5102041 Z M26.7070064,10.7220603 C26.4076433,9.55587949 25.6847134,8.97278912 24.5382166,8.97278912 C24.2770701,8.97278912 24.0318471,9.0132815 23.8025478,9.09426628 C23.5732484,9.17525105 23.3646497,9.29186913 23.1767516,9.44412051 C22.9888535,9.59637188 22.8280255,9.77939747 22.6942675,9.99319728 C22.5605096,10.2069971 22.4585987,10.4499514 22.388535,10.7220603 L26.7070064,10.7220603 Z" id="Shape"></path>
                    <path d="M33.2727273,0 L33.2727273,8.1980198 C34.1818182,7.27392739 35.2121212,6.81188119 36.3636364,6.81188119 C37.6902357,6.81188119 38.7946128,7.2970297 39.6767677,8.26732673 C40.5589226,9.2310231 41,10.4323432 41,11.8712871 C41,13.3564356 40.5555556,14.5841584 39.6666667,15.5544554 C38.7845118,16.5181518 37.6700337,17 36.3232323,17 C35.1851852,17 34.1683502,16.5709571 33.2727273,15.7128713 L33.2727273,16.7227723 L31,16.7227723 L31,0 L33.2727273,0 Z M38.6767677,11.970297 C38.6767677,11.0462046 38.4208754,10.2937294 37.9090909,9.71287129 C37.3905724,9.11881188 36.7407407,8.82178218 35.959596,8.82178218 C35.1245791,8.82178218 34.4444444,9.10891089 33.9191919,9.68316832 C33.4006734,10.2508251 33.1414141,10.990099 33.1414141,11.9009901 C33.1414141,12.8382838 33.3973064,13.5874587 33.9090909,14.1485149 C34.4208754,14.7227723 35.0942761,15.009901 35.9292929,15.009901 C36.7171717,15.009901 37.3703704,14.7227723 37.8888889,14.1485149 C38.4141414,13.5676568 38.6767677,12.8415842 38.6767677,11.970297 Z" id="Shape"></path>
                    <path d="M49.7171717,7.26239067 L52,7.26239067 L52,16.7278912 L49.7171717,16.7278912 L49.7171717,15.7366375 C48.7811448,16.5788792 47.7744108,17 46.6969697,17 C45.3367003,17 44.2121212,16.5270489 43.3232323,15.5811467 C42.4410774,14.6158082 42,13.4107548 42,11.9659864 C42,10.5471331 42.4410774,9.36475543 43.3232323,8.41885326 C44.2053872,7.47295109 45.3097643,7 46.6363636,7 C47.7811448,7 48.8080808,7.45351474 49.7171717,8.36054422 L49.7171717,7.26239067 Z M44.3232323,11.9659864 C44.3232323,12.8730159 44.5757576,13.611597 45.0808081,14.1817298 C45.5993266,14.7583414 46.2525253,15.0466472 47.040404,15.0466472 C47.8821549,15.0466472 48.5622896,14.7680596 49.0808081,14.2108844 C49.5993266,13.6342728 49.8585859,12.9021704 49.8585859,12.0145773 C49.8585859,11.1269841 49.5993266,10.3948818 49.0808081,9.81827017 C48.5622896,9.25461613 47.8888889,8.97278912 47.0606061,8.97278912 C46.2794613,8.97278912 45.6262626,9.25785552 45.1010101,9.82798834 C44.5824916,10.4045999 44.3232323,11.117266 44.3232323,11.9659864 Z" id="Shape"></path>
                    <path d="M59.3654676,8.87560739 L57.4920863,9.83770651 C57.1966427,9.25461613 56.8306954,8.96307094 56.3942446,8.96307094 C56.1860911,8.96307094 56.0081535,9.02947846 55.8604317,9.16229349 C55.7127098,9.29510852 55.6388489,9.46517655 55.6388489,9.67249757 C55.6388489,10.0353094 56.0752998,10.3948818 56.9482014,10.7512148 C58.1501199,11.250081 58.9592326,11.7100745 59.3755396,12.1311953 C59.7918465,12.5523162 60,13.1192096 60,13.8318756 C60,14.7453839 59.6508393,15.5098801 58.952518,16.1253644 C58.2743405,16.7084548 57.4551559,17 56.494964,17 C54.8498801,17 53.6848921,16.2257856 53,14.6773567 L54.9338129,13.8124393 C55.2023981,14.265954 55.4071942,14.5542598 55.5482014,14.6773567 C55.8235012,14.9235504 56.152518,15.0466472 56.5352518,15.0466472 C57.3007194,15.0466472 57.6834532,14.7097506 57.6834532,14.0359572 C57.6834532,13.6472303 57.3880096,13.2844185 56.7971223,12.9475219 C56.5688249,12.8373826 56.3405276,12.7304827 56.1122302,12.6268222 C55.8839329,12.5231616 55.6522782,12.4162617 55.4172662,12.3061224 C54.7592326,11.9951409 54.2959233,11.6841594 54.0273381,11.3731778 C53.6848921,10.9779721 53.5136691,10.4693878 53.5136691,9.84742468 C53.5136691,9.02461937 53.8057554,8.34434726 54.3899281,7.80660836 C54.98753,7.26886945 55.7127098,7 56.5654676,7 C57.8211031,7 58.7544365,7.62520246 59.3654676,8.87560739 Z" id="Path"></path>
                    <path d="M68.9140127,12.5102041 L62.2452229,12.5102041 C62.3025478,13.2876579 62.5509554,13.9063816 62.9904459,14.3663751 C63.4299363,14.8198899 63.9936306,15.0466472 64.6815287,15.0466472 C65.2165605,15.0466472 65.6592357,14.9170716 66.0095541,14.6579203 C66.3535032,14.398769 66.7452229,13.9193392 67.1847134,13.2196307 L69,14.249757 C68.7197452,14.7356657 68.4235669,15.1519274 68.111465,15.4985423 C67.7993631,15.8451571 67.4649682,16.1302235 67.1082803,16.3537415 C66.7515924,16.5772595 66.366242,16.7408487 65.9522293,16.8445092 C65.5382166,16.9481697 65.089172,17 64.6050955,17 C63.2165605,17 62.1019108,16.5464853 61.2611465,15.6394558 C60.4203822,14.7259475 60,13.5144153 60,12.0048591 C60,10.5082604 60.4076433,9.29672822 61.2229299,8.37026239 C62.044586,7.45675413 63.133758,7 64.4904459,7 C65.8598726,7 66.9426752,7.44379657 67.7388535,8.3313897 C68.5286624,9.21250405 68.9235669,10.4337545 68.9235669,11.9951409 L68.9140127,12.5102041 Z M66.7070064,10.7220603 C66.4076433,9.55587949 65.6847134,8.97278912 64.5382166,8.97278912 C64.2770701,8.97278912 64.0318471,9.0132815 63.8025478,9.09426628 C63.5732484,9.17525105 63.3646497,9.29186913 63.1767516,9.44412051 C62.9888535,9.59637188 62.8280255,9.77939747 62.6942675,9.99319728 C62.5605096,10.2069971 62.4585987,10.4499514 62.388535,10.7220603 L66.7070064,10.7220603 Z" id="Shape"></path>
                </g>
            </g>
        </g>
    </g>
</svg>