<?xml version="1.0" encoding="UTF-8"?>
<svg width="142px" height="142px" viewBox="0 0 142 142" version="1.1" xmlns="http://www.w3.org/2000/svg" xmlns:xlink="http://www.w3.org/1999/xlink">
    <title>icon-mui</title>
    <g id="_PWA---Local" stroke="none" stroke-width="1" fill="none" fill-rule="evenodd">
        <g id="PWA-Icon-Sets" transform="translate(-7894.000000, -1082.000000)">
            <g id="icon-mui" transform="translate(7894.000000, 1082.000000)">
                <rect id="BASE_TRANS" opacity="0.288334438" x="0" y="0" width="142" height="142"></rect>
                <g id="Group" transform="translate(33.360000, 27.000000)" fill="#007FFF">
                    <path d="M66.5856813,46.431228 C67.2649798,46.042796 67.6848319,45.3232725 67.6873229,44.5432845 L67.726824,31.8979959 C67.729315,31.1180079 68.149167,30.3984843 68.8284656,30.0100523 L75.7126282,26.0724663 C76.3916687,25.6841766 77.2270474,25.6855795 77.9047686,26.0761478 C78.5824898,26.4667162 79.0000031,27.187267 79.0000031,27.9669652 L79.0000031,50.9566113 C79.0000031,51.7389431 78.5796894,52.4615089 77.8983553,52.8511102 L51.9176089,67.7099252 C51.2423701,68.0959102 50.4122882,68.0967417 49.7362708,67.7121104 L29.3471235,56.1003834 C28.6634187,55.7115104 28.2413469,54.9877177 28.2410929,54.2036994 L28.2410929,42.6116385 C28.2410929,42.5985278 28.2564544,42.5897873 28.2696215,42.5963427 C28.280594,42.6028981 28.2959555,42.5963427 28.2959555,42.5810469 L28.2959555,42.5679361 C28.2959555,42.5591957 28.3003445,42.5504552 28.3091226,42.5460849 L45.1014759,32.940298 C45.1168375,32.9315576 45.110254,32.9075212 45.0926979,32.9075212 C45.083002,32.9075212 45.0751419,32.8996947 45.0751419,32.8900403 L45.1080594,21.5252319 C45.1111854,20.743013 44.69415,20.0187966 44.0145946,19.6263401 C43.3350392,19.2338836 42.4966346,19.2330589 41.8163017,19.6241776 L29.336151,26.7848154 C28.658285,27.1734696 27.8239008,27.1734696 27.1460348,26.7848154 L14.626383,19.6066966 C13.9475453,19.2174851 13.1118252,19.2180802 12.4335472,19.6082581 C11.7552693,19.9984359 11.3372912,20.7190278 11.3368198,21.4990104 L11.3368198,42.0391371 C11.33735,42.8182694 10.9212001,43.5387411 10.2445907,43.9300906 C9.56798129,44.3214402 8.73328401,44.3244562 8.05384007,43.9380063 L1.10603678,39.9829393 C0.420968302,39.5932921 -0.00131664004,38.8674653 3.08427138e-06,38.0818851 L0.0614523271,2.18036576 C0.0631542774,1.40144822 0.481140717,0.682324639 1.15857668,0.292821281 C1.83601265,-0.0966820777 2.67045993,-0.0976666146 3.34882104,0.290237083 L27.1482293,13.9013487 C27.8249773,14.2883275 28.6572085,14.2883275 29.3339565,13.9013487 L53.1267813,0.290237083 C53.8061617,-0.0982473976 54.6420073,-0.0966357882 55.3198717,0.294465621 C55.997736,0.685567031 56.4147949,1.4068326 56.41415,2.18692112 L56.41415,38.0971809 C56.4144625,38.879061 55.9951921,39.6015217 55.3147029,39.9916798 L42.8543027,47.1370218 C42.1730515,47.5280671 41.7539962,48.2521666 41.7558091,49.035145 C41.757622,49.8181234 42.180026,50.5402913 42.8630807,50.9282047 L49.7362708,54.8242734 C50.4121159,55.2073946 51.2411247,55.205732 51.9154144,54.8199032 L66.5856813,46.431228 Z M68.0274712,14.2181911 C68.0280954,15.0048939 68.4533776,15.7305352 69.1409483,16.1180702 C69.828519,16.5056052 70.6722275,16.4952044 71.349952,16.0908388 L77.9334674,12.157623 C78.5945513,11.7631867 78.9993878,11.0523614 78.9999969,10.2849753 L78.9999969,2.26995568 C78.998584,1.48364366 78.5729914,0.758722148 77.8855669,0.371721612 C77.1981424,-0.015278924 76.3549042,-0.00467320782 75.6775161,0.399493076 L69.0940007,4.33270882 C68.4329168,4.72714516 68.0280803,5.43797045 68.0274712,6.20535654 L68.0274712,14.2203762 L68.0274712,14.2181911 Z" id="Shape"></path>
                </g>
                <g id="Material-UI-5" transform="translate(24.914062, 107.351562)" fill="#007FFF" fill-rule="nonzero">
                    <path d="M3.96875,9.921875 L2.1328125,2.625 L2.1328125,10.53125 C2.1328125,10.96875 2.03515625,11.296875 1.83984375,11.515625 C1.64453125,11.734375 1.38541667,11.84375 1.0625,11.84375 C0.75,11.84375 0.494791667,11.7356771 0.296875,11.5195312 C0.0989583333,11.3033854 0,10.9739583 0,10.53125 L0,1.46875 C0,0.96875 0.130208333,0.631510417 0.390625,0.45703125 C0.651041667,0.282552083 1.00260417,0.1953125 1.4453125,0.1953125 L2.1640625,0.1953125 C2.59635417,0.1953125 2.91015625,0.234375 3.10546875,0.3125 C3.30078125,0.390625 3.4453125,0.53125 3.5390625,0.734375 C3.6328125,0.9375 3.73958333,1.26822917 3.859375,1.7265625 L5.5234375,8 L7.1875,1.7265625 C7.30729167,1.26822917 7.4140625,0.9375 7.5078125,0.734375 C7.6015625,0.53125 7.74609375,0.390625 7.94140625,0.3125 C8.13671875,0.234375 8.45052083,0.1953125 8.8828125,0.1953125 L9.6015625,0.1953125 C10.0442708,0.1953125 10.3958333,0.282552083 10.65625,0.45703125 C10.9166667,0.631510417 11.046875,0.96875 11.046875,1.46875 L11.046875,10.53125 C11.046875,10.96875 10.9492188,11.296875 10.7539062,11.515625 C10.5585938,11.734375 10.296875,11.84375 9.96875,11.84375 C9.66145833,11.84375 9.40885417,11.734375 9.2109375,11.515625 C9.01302083,11.296875 8.9140625,10.96875 8.9140625,10.53125 L8.9140625,2.625 L7.078125,9.921875 C6.95833333,10.3958333 6.86067708,10.7434896 6.78515625,10.9648438 C6.70963542,11.1861979 6.5703125,11.3880208 6.3671875,11.5703125 C6.1640625,11.7526042 5.8828125,11.84375 5.5234375,11.84375 C5.25260417,11.84375 5.0234375,11.7851562 4.8359375,11.6679688 C4.6484375,11.5507812 4.50260417,11.4010417 4.3984375,11.21875 C4.29427083,11.0364583 4.21223958,10.8346354 4.15234375,10.6132812 C4.09244792,10.3919271 4.03125,10.1614583 3.96875,9.921875 Z" id="Path"></path>
                    <path d="M18.671875,10.640625 C18.15625,11.0416667 17.6575521,11.3424479 17.1757812,11.5429688 C16.6940104,11.7434896 16.1536458,11.84375 15.5546875,11.84375 C15.0078125,11.84375 14.5273438,11.7356771 14.1132812,11.5195312 C13.6992188,11.3033854 13.3802083,11.0104167 13.15625,10.640625 C12.9322917,10.2708333 12.8203125,9.86979167 12.8203125,9.4375 C12.8203125,8.85416667 13.0052083,8.35677083 13.375,7.9453125 C13.7447917,7.53385417 14.2526042,7.2578125 14.8984375,7.1171875 C15.0338542,7.0859375 15.3697917,7.015625 15.90625,6.90625 C16.4427083,6.796875 16.9023438,6.69661458 17.2851562,6.60546875 C17.6679688,6.51432292 18.0833333,6.40364583 18.53125,6.2734375 C18.5052083,5.7109375 18.3919271,5.29817708 18.1914062,5.03515625 C17.9908854,4.77213542 17.5755208,4.640625 16.9453125,4.640625 C16.4036458,4.640625 15.9960938,4.71614583 15.7226562,4.8671875 C15.4492188,5.01822917 15.2148438,5.24479167 15.0195312,5.546875 C14.8242188,5.84895833 14.6861979,6.04817708 14.6054688,6.14453125 C14.5247396,6.24088542 14.3515625,6.2890625 14.0859375,6.2890625 C13.8463542,6.2890625 13.6393229,6.21223958 13.4648438,6.05859375 C13.2903646,5.90494792 13.203125,5.70833333 13.203125,5.46875 C13.203125,5.09375 13.3359375,4.72916667 13.6015625,4.375 C13.8671875,4.02083333 14.28125,3.72916667 14.84375,3.5 C15.40625,3.27083333 16.1067708,3.15625 16.9453125,3.15625 C17.8828125,3.15625 18.6197917,3.26692708 19.15625,3.48828125 C19.6927083,3.70963542 20.0716146,4.05989583 20.2929688,4.5390625 C20.5143229,5.01822917 20.625,5.65364583 20.625,6.4453125 C20.625,6.9453125 20.6236979,7.36979167 20.6210938,7.71875 C20.6184896,8.06770833 20.6145833,8.45572917 20.609375,8.8828125 C20.609375,9.28385417 20.6757812,9.70182292 20.8085938,10.1367188 C20.9414062,10.5716146 21.0078125,10.8515625 21.0078125,10.9765625 C21.0078125,11.1953125 20.9049479,11.3945312 20.6992188,11.5742188 C20.4934896,11.7539062 20.2604167,11.84375 20,11.84375 C19.78125,11.84375 19.5651042,11.7408854 19.3515625,11.5351562 C19.1380208,11.3294271 18.9114583,11.03125 18.671875,10.640625 Z M18.53125,7.5546875 C18.21875,7.66927083 17.7643229,7.79036458 17.1679688,7.91796875 C16.5716146,8.04557292 16.1588542,8.13932292 15.9296875,8.19921875 C15.7005208,8.25911458 15.4817708,8.37630208 15.2734375,8.55078125 C15.0651042,8.72526042 14.9609375,8.96875 14.9609375,9.28125 C14.9609375,9.60416667 15.0833333,9.87890625 15.328125,10.1054688 C15.5729167,10.3320312 15.8932292,10.4453125 16.2890625,10.4453125 C16.7109375,10.4453125 17.1002604,10.3528646 17.4570312,10.1679688 C17.8138021,9.98307292 18.0755208,9.74479167 18.2421875,9.453125 C18.4348958,9.13020833 18.53125,8.59895833 18.53125,7.859375 L18.53125,7.5546875 Z" id="Shape"></path>
                    <path d="M22.5078125,3.359375 L22.7421875,3.359375 L22.7421875,2.078125 C22.7421875,1.734375 22.7513021,1.46484375 22.7695312,1.26953125 C22.7877604,1.07421875 22.8385417,0.90625 22.921875,0.765625 C23.0052083,0.619791667 23.125,0.501302083 23.28125,0.41015625 C23.4375,0.319010417 23.6119792,0.2734375 23.8046875,0.2734375 C24.0755208,0.2734375 24.3203125,0.375 24.5390625,0.578125 C24.6848958,0.713541667 24.7773438,0.87890625 24.8164062,1.07421875 C24.8554688,1.26953125 24.875,1.546875 24.875,1.90625 L24.875,3.359375 L25.65625,3.359375 C25.9583333,3.359375 26.1888021,3.43098958 26.3476562,3.57421875 C26.5065104,3.71744792 26.5859375,3.90104167 26.5859375,4.125 C26.5859375,4.41145833 26.4726562,4.61197917 26.2460938,4.7265625 C26.0195312,4.84114583 25.6953125,4.8984375 25.2734375,4.8984375 L24.875,4.8984375 L24.875,8.8203125 C24.875,9.15364583 24.8867188,9.41015625 24.9101562,9.58984375 C24.9335938,9.76953125 24.9960938,9.91536458 25.0976562,10.0273438 C25.1992188,10.1393229 25.3645833,10.1953125 25.59375,10.1953125 C25.71875,10.1953125 25.8880208,10.1731771 26.1015625,10.1289062 C26.3151042,10.0846354 26.4817708,10.0625 26.6015625,10.0625 C26.7734375,10.0625 26.9283854,10.1315104 27.0664062,10.2695312 C27.2044271,10.4075521 27.2734375,10.578125 27.2734375,10.78125 C27.2734375,11.125 27.0859375,11.3880208 26.7109375,11.5703125 C26.3359375,11.7526042 25.796875,11.84375 25.09375,11.84375 C24.4270833,11.84375 23.921875,11.7317708 23.578125,11.5078125 C23.234375,11.2838542 23.0091146,10.9739583 22.9023438,10.578125 C22.7955729,10.1822917 22.7421875,9.65364583 22.7421875,8.9921875 L22.7421875,4.8984375 L22.4609375,4.8984375 C22.1536458,4.8984375 21.9192708,4.82552083 21.7578125,4.6796875 C21.5963542,4.53385417 21.515625,4.34895833 21.515625,4.125 C21.515625,3.90104167 21.6002604,3.71744792 21.7695312,3.57421875 C21.9388021,3.43098958 22.1848958,3.359375 22.5078125,3.359375 Z" id="Path"></path>
                    <path d="M34.0078125,8.03125 L29.8359375,8.03125 C29.8411458,8.515625 29.9388021,8.94270833 30.1289062,9.3125 C30.3190104,9.68229167 30.5716146,9.9609375 30.8867188,10.1484375 C31.2018229,10.3359375 31.5494792,10.4296875 31.9296875,10.4296875 C32.1848958,10.4296875 32.4179688,10.3997396 32.6289062,10.3398438 C32.8398438,10.2799479 33.0442708,10.1861979 33.2421875,10.0585938 C33.4401042,9.93098958 33.6223958,9.79427083 33.7890625,9.6484375 C33.9557292,9.50260417 34.171875,9.3046875 34.4375,9.0546875 C34.546875,8.9609375 34.703125,8.9140625 34.90625,8.9140625 C35.125,8.9140625 35.3020833,8.97395833 35.4375,9.09375 C35.5729167,9.21354167 35.640625,9.3828125 35.640625,9.6015625 C35.640625,9.79427083 35.5651042,10.0195312 35.4140625,10.2773438 C35.2630208,10.5351562 35.0351562,10.7825521 34.7304688,11.0195312 C34.4257812,11.2565104 34.0429688,11.453125 33.5820312,11.609375 C33.1210938,11.765625 32.5911458,11.84375 31.9921875,11.84375 C30.6223958,11.84375 29.5572917,11.453125 28.796875,10.671875 C28.0364583,9.890625 27.65625,8.83072917 27.65625,7.4921875 C27.65625,6.86197917 27.75,6.27734375 27.9375,5.73828125 C28.125,5.19921875 28.3984375,4.73697917 28.7578125,4.3515625 C29.1171875,3.96614583 29.5598958,3.67057292 30.0859375,3.46484375 C30.6119792,3.25911458 31.1953125,3.15625 31.8359375,3.15625 C32.6692708,3.15625 33.3841146,3.33203125 33.9804688,3.68359375 C34.5768229,4.03515625 35.0234375,4.48958333 35.3203125,5.046875 C35.6171875,5.60416667 35.765625,6.171875 35.765625,6.75 C35.765625,7.28645833 35.6119792,7.63411458 35.3046875,7.79296875 C34.9973958,7.95182292 34.5651042,8.03125 34.0078125,8.03125 Z M29.8359375,6.8203125 L33.703125,6.8203125 C33.6510417,6.09114583 33.4544271,5.54557292 33.1132812,5.18359375 C32.7721354,4.82161458 32.3229167,4.640625 31.765625,4.640625 C31.234375,4.640625 30.7981771,4.82421875 30.4570312,5.19140625 C30.1158854,5.55859375 29.9088542,6.1015625 29.8359375,6.8203125 Z" id="Shape"></path>
                    <path d="M39.6796875,8.765625 L39.6796875,10.546875 C39.6796875,10.9791667 39.578125,11.3033854 39.375,11.5195312 C39.171875,11.7356771 38.9140625,11.84375 38.6015625,11.84375 C38.2942708,11.84375 38.0416667,11.734375 37.84375,11.515625 C37.6458333,11.296875 37.546875,10.9739583 37.546875,10.546875 L37.546875,4.609375 C37.546875,3.65104167 37.8932292,3.171875 38.5859375,3.171875 C38.9401042,3.171875 39.1953125,3.28385417 39.3515625,3.5078125 C39.5078125,3.73177083 39.59375,4.0625 39.609375,4.5 C39.8645833,4.0625 40.1263021,3.73177083 40.3945312,3.5078125 C40.6627604,3.28385417 41.0208333,3.171875 41.46875,3.171875 C41.9166667,3.171875 42.3515625,3.28385417 42.7734375,3.5078125 C43.1953125,3.73177083 43.40625,4.02864583 43.40625,4.3984375 C43.40625,4.65885417 43.3164062,4.87369792 43.1367188,5.04296875 C42.9570312,5.21223958 42.7630208,5.296875 42.5546875,5.296875 C42.4765625,5.296875 42.2877604,5.24869792 41.9882812,5.15234375 C41.6888021,5.05598958 41.4244792,5.0078125 41.1953125,5.0078125 C40.8828125,5.0078125 40.6276042,5.08984375 40.4296875,5.25390625 C40.2317708,5.41796875 40.078125,5.66145833 39.96875,5.984375 C39.859375,6.30729167 39.7838542,6.69140625 39.7421875,7.13671875 C39.7005208,7.58203125 39.6796875,8.125 39.6796875,8.765625 Z" id="Path"></path>
                    <path d="M46.703125,4.3828125 L46.703125,10.546875 C46.703125,10.9739583 46.6015625,11.296875 46.3984375,11.515625 C46.1953125,11.734375 45.9375,11.84375 45.625,11.84375 C45.3125,11.84375 45.0585938,11.7317708 44.8632812,11.5078125 C44.6679688,11.2838542 44.5703125,10.9635417 44.5703125,10.546875 L44.5703125,4.4453125 C44.5703125,4.0234375 44.6679688,3.70572917 44.8632812,3.4921875 C45.0585938,3.27864583 45.3125,3.171875 45.625,3.171875 C45.9375,3.171875 46.1953125,3.27864583 46.3984375,3.4921875 C46.6015625,3.70572917 46.703125,4.00260417 46.703125,4.3828125 Z M45.6484375,2.1796875 C45.3515625,2.1796875 45.0976562,2.08854167 44.8867188,1.90625 C44.6757812,1.72395833 44.5703125,1.46614583 44.5703125,1.1328125 C44.5703125,0.830729167 44.6783854,0.58203125 44.8945312,0.38671875 C45.1106771,0.19140625 45.3619792,0.09375 45.6484375,0.09375 C45.9244792,0.09375 46.1692708,0.182291667 46.3828125,0.359375 C46.5963542,0.536458333 46.703125,0.794270833 46.703125,1.1328125 C46.703125,1.4609375 46.5989583,1.71744792 46.390625,1.90234375 C46.1822917,2.08723958 45.9348958,2.1796875 45.6484375,2.1796875 Z" id="Shape"></path>
                    <path d="M54.296875,10.640625 C53.78125,11.0416667 53.2825521,11.3424479 52.8007812,11.5429688 C52.3190104,11.7434896 51.7786458,11.84375 51.1796875,11.84375 C50.6328125,11.84375 50.1523438,11.7356771 49.7382812,11.5195312 C49.3242188,11.3033854 49.0052083,11.0104167 48.78125,10.640625 C48.5572917,10.2708333 48.4453125,9.86979167 48.4453125,9.4375 C48.4453125,8.85416667 48.6302083,8.35677083 49,7.9453125 C49.3697917,7.53385417 49.8776042,7.2578125 50.5234375,7.1171875 C50.6588542,7.0859375 50.9947917,7.015625 51.53125,6.90625 C52.0677083,6.796875 52.5273438,6.69661458 52.9101562,6.60546875 C53.2929688,6.51432292 53.7083333,6.40364583 54.15625,6.2734375 C54.1302083,5.7109375 54.0169271,5.29817708 53.8164062,5.03515625 C53.6158854,4.77213542 53.2005208,4.640625 52.5703125,4.640625 C52.0286458,4.640625 51.6210938,4.71614583 51.3476562,4.8671875 C51.0742188,5.01822917 50.8398438,5.24479167 50.6445312,5.546875 C50.4492188,5.84895833 50.3111979,6.04817708 50.2304688,6.14453125 C50.1497396,6.24088542 49.9765625,6.2890625 49.7109375,6.2890625 C49.4713542,6.2890625 49.2643229,6.21223958 49.0898438,6.05859375 C48.9153646,5.90494792 48.828125,5.70833333 48.828125,5.46875 C48.828125,5.09375 48.9609375,4.72916667 49.2265625,4.375 C49.4921875,4.02083333 49.90625,3.72916667 50.46875,3.5 C51.03125,3.27083333 51.7317708,3.15625 52.5703125,3.15625 C53.5078125,3.15625 54.2447917,3.26692708 54.78125,3.48828125 C55.3177083,3.70963542 55.6966146,4.05989583 55.9179688,4.5390625 C56.1393229,5.01822917 56.25,5.65364583 56.25,6.4453125 C56.25,6.9453125 56.2486979,7.36979167 56.2460938,7.71875 C56.2434896,8.06770833 56.2395833,8.45572917 56.234375,8.8828125 C56.234375,9.28385417 56.3007812,9.70182292 56.4335938,10.1367188 C56.5664062,10.5716146 56.6328125,10.8515625 56.6328125,10.9765625 C56.6328125,11.1953125 56.5299479,11.3945312 56.3242188,11.5742188 C56.1184896,11.7539062 55.8854167,11.84375 55.625,11.84375 C55.40625,11.84375 55.1901042,11.7408854 54.9765625,11.5351562 C54.7630208,11.3294271 54.5364583,11.03125 54.296875,10.640625 Z M54.15625,7.5546875 C53.84375,7.66927083 53.3893229,7.79036458 52.7929688,7.91796875 C52.1966146,8.04557292 51.7838542,8.13932292 51.5546875,8.19921875 C51.3255208,8.25911458 51.1067708,8.37630208 50.8984375,8.55078125 C50.6901042,8.72526042 50.5859375,8.96875 50.5859375,9.28125 C50.5859375,9.60416667 50.7083333,9.87890625 50.953125,10.1054688 C51.1979167,10.3320312 51.5182292,10.4453125 51.9140625,10.4453125 C52.3359375,10.4453125 52.7252604,10.3528646 53.0820312,10.1679688 C53.4388021,9.98307292 53.7005208,9.74479167 53.8671875,9.453125 C54.0598958,9.13020833 54.15625,8.59895833 54.15625,7.859375 L54.15625,7.5546875 Z" id="Shape"></path>
                    <path d="M58.4140625,10.546875 L58.4140625,1.296875 C58.4140625,0.869791667 58.5091146,0.546875 58.6992188,0.328125 C58.8893229,0.109375 59.1458333,0 59.46875,0 C59.7916667,0 60.0520833,0.108072917 60.25,0.32421875 C60.4479167,0.540364583 60.546875,0.864583333 60.546875,1.296875 L60.546875,10.546875 C60.546875,10.9791667 60.4466146,11.3033854 60.2460938,11.5195312 C60.0455729,11.7356771 59.7864583,11.84375 59.46875,11.84375 C59.15625,11.84375 58.9023438,11.7317708 58.7070312,11.5078125 C58.5117188,11.2838542 58.4140625,10.9635417 58.4140625,10.546875 Z" id="Path"></path>
                    <path d="M66.9140625,6.9140625 L66.9140625,1.40625 C66.9140625,0.9375 67.0195312,0.5859375 67.2304688,0.3515625 C67.4414062,0.1171875 67.71875,0 68.0625,0 C68.421875,0 68.7070312,0.1171875 68.9179688,0.3515625 C69.1289062,0.5859375 69.234375,0.9375 69.234375,1.40625 L69.234375,7.0390625 C69.234375,7.6796875 69.3059896,8.21484375 69.4492188,8.64453125 C69.5924479,9.07421875 69.8463542,9.40755208 70.2109375,9.64453125 C70.5755208,9.88151042 71.0859375,10 71.7421875,10 C72.6484375,10 73.2890625,9.75911458 73.6640625,9.27734375 C74.0390625,8.79557292 74.2265625,8.06510417 74.2265625,7.0859375 L74.2265625,1.40625 C74.2265625,0.932291667 74.3307292,0.579427083 74.5390625,0.34765625 C74.7473958,0.115885417 75.0260417,0 75.375,0 C75.7239583,0 76.0065104,0.115885417 76.2226562,0.34765625 C76.4388021,0.579427083 76.546875,0.932291667 76.546875,1.40625 L76.546875,6.9140625 C76.546875,7.80989583 76.4596354,8.55729167 76.2851562,9.15625 C76.1106771,9.75520833 75.78125,10.28125 75.296875,10.734375 C74.8802083,11.1197917 74.3958333,11.4010417 73.84375,11.578125 C73.2916667,11.7552083 72.6458333,11.84375 71.90625,11.84375 C71.0260417,11.84375 70.2682292,11.7486979 69.6328125,11.5585938 C68.9973958,11.3684896 68.4791667,11.0742188 68.078125,10.6757812 C67.6770833,10.2773438 67.3828125,9.76692708 67.1953125,9.14453125 C67.0078125,8.52213542 66.9140625,7.77864583 66.9140625,6.9140625 Z" id="Path"></path>
                    <path d="M79.1484375,10.4296875 L79.1484375,1.40625 C79.1484375,0.9375 79.2552083,0.5859375 79.46875,0.3515625 C79.6822917,0.1171875 79.9583333,0 80.296875,0 C80.6458333,0 80.9283854,0.115885417 81.1445312,0.34765625 C81.3606771,0.579427083 81.46875,0.932291667 81.46875,1.40625 L81.46875,10.4296875 C81.46875,10.9036458 81.3606771,11.2578125 81.1445312,11.4921875 C80.9283854,11.7265625 80.6458333,11.84375 80.296875,11.84375 C79.9635417,11.84375 79.6888021,11.7252604 79.4726562,11.4882812 C79.2565104,11.2513021 79.1484375,10.8984375 79.1484375,10.4296875 Z" id="Path"></path>
                    <path d="M94.21875,2.125 L90.5078125,2.125 L90.0625,4.65625 C90.8020833,4.26041667 91.484375,4.0625 92.109375,4.0625 C92.609375,4.0625 93.0768229,4.15625 93.5117188,4.34375 C93.9466146,4.53125 94.328125,4.79036458 94.65625,5.12109375 C94.984375,5.45182292 95.2421875,5.84375 95.4296875,6.296875 C95.6171875,6.75 95.7109375,7.23697917 95.7109375,7.7578125 C95.7109375,8.51302083 95.5416667,9.20052083 95.203125,9.8203125 C94.8645833,10.4401042 94.3763021,10.9322917 93.7382812,11.296875 C93.1002604,11.6614583 92.3645833,11.84375 91.53125,11.84375 C90.5989583,11.84375 89.8424479,11.671875 89.2617188,11.328125 C88.6809896,10.984375 88.2695312,10.5898438 88.0273438,10.1445312 C87.7851562,9.69921875 87.6640625,9.30989583 87.6640625,8.9765625 C87.6640625,8.7734375 87.7486979,8.58072917 87.9179688,8.3984375 C88.0872396,8.21614583 88.2994792,8.125 88.5546875,8.125 C88.9921875,8.125 89.3177083,8.37760417 89.53125,8.8828125 C89.7395833,9.34635417 90.0208333,9.70703125 90.375,9.96484375 C90.7291667,10.2226562 91.125,10.3515625 91.5625,10.3515625 C91.9635417,10.3515625 92.3151042,10.2473958 92.6171875,10.0390625 C92.9192708,9.83072917 93.1523438,9.54427083 93.3164062,9.1796875 C93.4804688,8.81510417 93.5625,8.40104167 93.5625,7.9375 C93.5625,7.4375 93.4739583,7.01041667 93.296875,6.65625 C93.1197917,6.30208333 92.8828125,6.03776042 92.5859375,5.86328125 C92.2890625,5.68880208 91.9583333,5.6015625 91.59375,5.6015625 C91.1458333,5.6015625 90.8255208,5.65625 90.6328125,5.765625 C90.4401042,5.875 90.1627604,6.06640625 89.8007812,6.33984375 C89.4388021,6.61328125 89.140625,6.75 88.90625,6.75 C88.6510417,6.75 88.4244792,6.65755208 88.2265625,6.47265625 C88.0286458,6.28776042 87.9296875,6.078125 87.9296875,5.84375 C87.9296875,5.81770833 87.9583333,5.640625 88.015625,5.3125 L88.671875,1.5703125 C88.7447917,1.12239583 88.8802083,0.796875 89.078125,0.59375 C89.2760417,0.390625 89.5989583,0.2890625 90.046875,0.2890625 L94.171875,0.2890625 C94.984375,0.2890625 95.390625,0.598958333 95.390625,1.21875 C95.390625,1.48958333 95.2916667,1.70833333 95.09375,1.875 C94.8958333,2.04166667 94.6041667,2.125 94.21875,2.125 Z" id="Path"></path>
                </g>
            </g>
        </g>
    </g>
</svg>