<?xml version="1.0" encoding="UTF-8"?>
<svg width="142px" height="142px" viewBox="0 0 142 142" version="1.1" xmlns="http://www.w3.org/2000/svg" xmlns:xlink="http://www.w3.org/1999/xlink">
    <title>icon-css-modules</title>
    <g id="_PWA---Local" stroke="none" stroke-width="1" fill="none" fill-rule="evenodd">
        <g id="PWA-Icon-Sets" transform="translate(-8453.000000, -744.000000)">
            <g id="icon-css-modules" transform="translate(8453.000000, 744.000000)">
                <rect id="BASE_TRANS" opacity="0.288334438" x="0" y="0" width="142" height="142"></rect>
                <rect id="Rectangle" fill="#7EB9F3" x="17.6641221" y="70" width="104" height="31"></rect>
                <rect id="Rectangle" fill="#E5F5FF" x="17.6641221" y="42" width="104" height="28"></rect>
                <path d="M123,39 L123,103 L16,103 L16,39 L123,39 Z M120,42 L19,42 L19,100 L120,100 L120,42 Z" id="Rectangle" fill="#7EB9F3" fill-rule="nonzero"></path>
                <g id="CSS-MODULES" transform="translate(26.000000, 51.000000)" fill-rule="nonzero">
                    <path d="M6.73817035,12 C9.50157729,12 11.1104101,10.5913043 12,9.14782609 L9.69085174,8.12173913 C9.16088328,9.06086957 8.02523659,9.80869565 6.73817035,9.80869565 C4.42902208,9.80869565 2.76340694,8.19130435 2.76340694,6 C2.76340694,3.80869565 4.42902208,2.19130435 6.73817035,2.19130435 C8.02523659,2.19130435 9.16088328,2.93913043 9.69085174,3.87826087 L12,2.83478261 C11.1104101,1.37391304 9.50157729,0 6.73817035,0 C2.93375394,0 0,2.4173913 0,6 C0,9.56521739 2.93375394,12 6.73817035,12 Z" id="Path" fill="#7EB9F3"></path>
                    <path d="M17.154265,12 C20.4029038,12 22,10.3976778 22,8.27285922 C22,3.93613933 15.0490018,5.17271408 15.0490018,3.34397678 C15.0490018,2.64731495 15.6660617,2.19448476 16.7549909,2.19448476 C17.9891107,2.19448476 19.2958258,2.59506531 20.2758621,3.4658926 L21.7096189,1.61973875 C20.5117967,0.557329463 18.9147005,0 16.9909256,0 C14.1415608,0 12.399274,1.60232221 12.399274,3.53555878 C12.399274,7.90711176 19.3684211,6.49637155 19.3684211,8.51669086 C19.3684211,9.19593614 18.6969147,9.80551524 17.2631579,9.80551524 C15.5934664,9.80551524 14.2686025,9.07402032 13.415608,8.22060958 L12,10.1538462 C13.1433757,11.2510885 14.8130672,12 17.154265,12 Z" id="Path" fill="#7EB9F3"></path>
                    <path d="M28.154265,12 C31.4029038,12 33,10.3976778 33,8.27285922 C33,3.93613933 26.0490018,5.17271408 26.0490018,3.34397678 C26.0490018,2.64731495 26.6660617,2.19448476 27.7549909,2.19448476 C28.9891107,2.19448476 30.2958258,2.59506531 31.2758621,3.4658926 L32.7096189,1.61973875 C31.5117967,0.557329463 29.9147005,0 27.9909256,0 C25.1415608,0 23.399274,1.60232221 23.399274,3.53555878 C23.399274,7.90711176 30.3684211,6.49637155 30.3684211,8.51669086 C30.3684211,9.19593614 29.6969147,9.80551524 28.2631579,9.80551524 C26.5934664,9.80551524 25.2686025,9.07402032 24.415608,8.22060958 L23,10.1538462 C24.1433757,11.2510885 25.8130672,12 28.154265,12 Z" id="Path" fill="#7EB9F3"></path>
                    <polygon id="Path" fill="#FFFFFF" points="14 41 14 29 10.4038728 29 7.49100968 36.5022489 4.57814661 29 1 29 1 41 3.55325035 41 3.55325035 32.3463268 6.93360996 41 8.04840941 41 11.428769 32.3463268 11.428769 41"></polygon>
                    <path d="M21.0086083,41 C24.4691535,41 27,38.4956522 27,35 C27,31.5043478 24.4691535,29 21.0086083,29 C17.5308465,29 15,31.5043478 15,35 C15,38.4956522 17.5308465,41 21.0086083,41 Z M21.0086083,38.8086957 C18.8737446,38.8086957 17.5136298,37.1565217 17.5136298,35 C17.5136298,32.826087 18.8737446,31.1913043 21.0086083,31.1913043 C23.1262554,31.1913043 24.4863702,32.826087 24.4863702,35 C24.4863702,37.1565217 23.1262554,38.8086957 21.0086083,38.8086957 Z" id="Shape" fill="#FFFFFF"></path>
                    <path d="M33.7066451,41 C37.4149109,41 40,38.6251874 40,34.9910045 C40,31.3928036 37.4149109,29 33.6888169,29 L29,29 L29,41 L33.7066451,41 Z M33.6888169,38.7511244 L31.5316045,38.7511244 L31.5316045,31.2488756 L33.7066451,31.2488756 C36.1312804,31.2488756 37.4149109,32.886057 37.4149109,34.9910045 C37.4149109,37.041979 36.0421394,38.7511244 33.6888169,38.7511244 Z" id="Shape" fill="#FFFFFF"></path>
                    <path d="M46.5,41 C50.2093023,41 52,38.9852725 52,36.0692194 L52,29 L49.3504983,29 L49.3504983,35.9985272 C49.3504983,37.6421208 48.3820598,38.7731959 46.5,38.7731959 C44.6179402,38.7731959 43.6312292,37.6421208 43.6312292,35.9985272 L43.6312292,29 L41,29 L41,36.0692194 C41,38.9852725 42.7906977,41 46.5,41 Z" id="Path" fill="#FFFFFF"></path>
                    <polygon id="Path" fill="#FFFFFF" points="61 41 61 38.7511244 56.3552941 38.7511244 56.3552941 29 54 29 54 41"></polygon>
                    <polygon id="Path" fill="#FFFFFF" points="71 41 71 38.7511244 65.4067797 38.7511244 65.4067797 36.0164918 70.8813559 36.0164918 70.8813559 33.7676162 65.4067797 33.7676162 65.4067797 31.2488756 71 31.2488756 71 29 63 29 63 41"></polygon>
                    <path d="M78.154265,41 C81.4029038,41 83,39.3976778 83,37.2728592 C83,32.9361393 76.0490018,34.1727141 76.0490018,32.3439768 C76.0490018,31.6473149 76.6660617,31.1944848 77.7549909,31.1944848 C78.9891107,31.1944848 80.2958258,31.5950653 81.2758621,32.4658926 L82.7096189,30.6197388 C81.5117967,29.5573295 79.9147005,29 77.9909256,29 C75.1415608,29 73.399274,30.6023222 73.399274,32.5355588 C73.399274,36.9071118 80.3684211,35.4963716 80.3684211,37.5166909 C80.3684211,38.1959361 79.6969147,38.8055152 78.2631579,38.8055152 C76.5934664,38.8055152 75.2686025,38.0740203 74.415608,37.2206096 L73,39.1538462 C74.1433757,40.2510885 75.8130672,41 78.154265,41 Z" id="Path" fill="#FFFFFF"></path>
                </g>
            </g>
        </g>
    </g>
</svg>