<?xml version="1.0" encoding="UTF-8"?>
<svg width="142px" height="142px" viewBox="0 0 142 142" version="1.1" xmlns="http://www.w3.org/2000/svg" xmlns:xlink="http://www.w3.org/1999/xlink">
    <title>icon-pwa</title>
    <g id="_PWA---Local" stroke="none" stroke-width="1" fill="none" fill-rule="evenodd">
        <g id="PWA-Icon-Sets" transform="translate(-8678.000000, -744.000000)">
            <g id="icon-pwa" transform="translate(8678.000000, 744.000000)">
                <rect id="BASE_TRANS" opacity="0.288334438" x="0" y="0" width="142" height="142"></rect>
                <polygon id="Path" fill="#FB8C00" fill-rule="nonzero" points="88.4965153 91.9995218 107 46 94.7333882 46 82.0767932 75.7259684 73.0752781 46 63.6461625 46 53.9827713 75.7259684 47.1673521 62.1802965 41 81.227164 47.2616337 92 59.3339682 92 68.0669235 65.3424199 76.3932297 92"></polygon>
                <path d="M21.6247891,76.2088267 L29.1673438,76.2088267 C31.4524609,76.2088267 33.4869063,75.9529656 35.2711563,75.4407652 L37.2222031,69.4062692 L42.6740781,52.5414358 C42.2552095,51.8760216 41.7790503,51.2487161 41.2510625,50.6667152 C38.4526875,47.5557311 34.3566328,46 28.9643281,46 L10,46 L10,92 L21.6247891,92 L21.6247891,76.2088267 Z M31.6087734,56.5826064 C32.7024844,57.6873525 33.2491016,59.1660862 33.2491016,61.0188075 C33.2491016,62.8853979 32.7677734,64.3655664 31.8065469,65.459791 C30.7523906,66.6754899 28.8113516,67.2833394 25.9834297,67.2833394 L21.6247891,67.2833394 L21.6247891,54.9254873 L26.0158359,54.9254873 C28.6512266,54.9254873 30.5155391,55.4778604 31.60925,56.5826064 L31.6087734,56.5826064 Z M99.7953359,83.7612725 L103.319516,74.8357852 L113.493172,74.8357852 L108.665117,61.2966679 L114.704117,46 L132,92 L119.244328,92 L116.289164,83.7612725 L99.7953359,83.7612725 Z" id="Shape" fill="#616161" fill-rule="nonzero"></path>
            </g>
        </g>
    </g>
</svg>