<?xml version="1.0" encoding="UTF-8"?>
<svg width="142px" height="142px" viewBox="0 0 142 142" version="1.1" xmlns="http://www.w3.org/2000/svg" xmlns:xlink="http://www.w3.org/1999/xlink">
    <title>icon-axios-rtg</title>
    <g id="_PWA---Local" stroke="none" stroke-width="1" fill="none" fill-rule="evenodd">
        <g id="PWA-Icon-Sets" transform="translate(-8166.000000, -918.000000)">
            <g id="icon-axios-rtg" transform="translate(8166.000000, 918.000000)">
                <rect id="BASE_TRANS" opacity="0.288334438" x="0" y="0" width="142" height="142"></rect>
                <g id="Group-6" transform="translate(2.000000, 85.000000)" fill="#0946FF">
                    <polygon id="Path" fill-rule="nonzero" points="69.1860465 2.4 64.3023256 6.54063228 67.4917001 6.54063228 67.4917001 20 69.1860465 18.5797934"></polygon>
                    <polygon id="Path" fill-rule="nonzero" points="70.8139535 17.6 75.6976744 13.3057587 72.4756359 13.3057587 72.4756359 0 70.8139535 1.23957563"></polygon>
                    <path d="M136.066459,4.87718296 C136.66245,5.181276 137.091564,5.43858549 137.3538,5.64911143 L139.213292,2.17543332 C138.283546,1.61403079 137.163083,1.1111077 135.851902,0.666664035 C134.564562,0.222224025 133.169943,0 131.668045,0 C130.237667,0 128.914567,0.233917718 127.698745,0.701751693 C126.506763,1.16958713 125.553177,1.8596444 124.837988,2.7719235 C124.146638,3.6842026 123.800963,4.81870353 123.800963,6.1754263 C123.800963,7.69592802 124.289676,8.86551661 125.267101,9.68422862 C126.268366,10.4795489 127.794103,11.1345185 129.844313,11.6491375 C131.489248,12.0701894 132.812348,12.4561536 133.813613,12.8070302 C134.838718,13.134515 135.35127,13.6842216 135.35127,14.4561501 C135.35127,15.6023469 134.254646,16.1754453 132.061399,16.1754453 C130.964776,16.1754453 129.927751,16.0467906 128.950326,15.7894811 C127.972901,15.5321716 127.114674,15.2163827 126.375645,14.8421143 C125.660455,14.467846 125.147903,14.1286653 124.837988,13.8245722 L122.906977,17.5087763 C124.146638,18.2807048 125.565097,18.8888908 127.162353,19.3333345 C128.759609,19.7777782 130.368785,20 131.98988,20 C133.396419,20 134.707599,19.8128658 135.923421,19.4385975 C137.139243,19.0409374 138.116668,18.4093595 138.855697,17.543864 C139.618566,16.6549766 140,15.4853149 140,14.0350251 C140,12.8420447 139.713924,11.8830552 139.141773,11.1579102 C138.593461,10.4093736 137.794833,9.81288337 136.745889,9.3684397 C135.720784,8.92399604 134.504963,8.52633592 133.098424,8.17545934 C131.501168,7.80119099 130.285346,7.4620103 129.450958,7.15791727 C128.640411,6.85378768 128.235137,6.3391687 128.235137,5.61402378 C128.235137,4.37425987 129.3556,3.75437792 131.596526,3.75437792 C132.430914,3.75437792 133.241462,3.87133678 134.02817,4.10525449 C134.814878,4.31578044 135.494308,4.57308993 136.066459,4.87718296 Z" id="Path" fill-rule="nonzero"></path>
                    <path d="M98.470782,20 C96.8899163,20 95.4527658,19.7290936 94.1593303,19.1872807 C92.8658947,18.6219107 91.7513545,17.8680841 90.8172067,16.9258008 C89.8830588,15.9599605 89.1644835,14.8763347 88.6614808,13.6749235 C88.1592266,12.4735124 87.9069767,11.2367656 87.9069767,9.96468315 C87.9069767,8.66904365 88.1704543,7.42051831 88.6974096,6.21907033 C89.2243648,5.01765916 89.9676411,3.95759784 90.9257415,3.03886429 C91.8838418,2.09658102 93.0088613,1.35453294 94.3022968,0.812720059 C95.5957323,0.270909385 97.0089304,0 98.541891,0 C100.122757,0 101.560656,0.294465731 102.854091,0.883391304 C104.147527,1.44876127 105.249342,2.21436643 106.159538,3.18020678 C107.093685,4.12249005 107.811512,5.19433728 108.314515,6.39574845 C108.817518,7.59719643 109.069767,8.82209107 109.069767,10.0706164 C109.069767,11.3662559 108.80629,12.6148549 108.279335,13.816266 C107.752379,14.9941201 107.009103,16.0541888 106.051003,16.9964721 C105.116855,17.9151983 104.003812,18.6454678 102.710376,19.1872807 C101.416941,19.7290936 100.003743,20 98.470782,20 Z M92.290286,10.0000188 C92.290286,11.0600875 92.5425359,12.073042 93.0455386,13.0388823 C93.5477927,13.9811656 94.2543918,14.7467708 95.1645871,15.3356978 C96.098735,15.9246248 97.2125267,16.2190884 98.5059622,16.2190884 C99.8233502,16.2190884 100.937142,15.9128463 101.847337,15.3003622 C102.758281,14.664321 103.452155,13.8751587 103.931206,12.9328018 C104.410256,11.9669615 104.650529,10.9776377 104.650529,9.96468315 C104.650529,8.90461447 104.399028,7.90336488 103.896025,6.96111841 C103.393023,6.01883514 102.674447,5.26500852 101.739551,4.69963856 C100.829356,4.11071151 99.740265,3.81624799 98.470782,3.81624799 C97.1533939,3.81624799 96.0268775,4.12249005 95.0927296,4.73497418 C94.1825342,5.34745831 93.4879115,6.12484937 93.0088613,7.06713264 C92.5298111,8.00944536 92.290286,8.98706425 92.290286,10.0000188 Z" id="Shape"></path>
                    <path d="M0,19.2 L8.81181046,0 L12.3870942,0 L21.1627907,19.2 L16.5402016,19.2 L14.5178189,14.7005444 L6.6810858,14.7005444 L4.65870307,19.2 L0,19.2 Z M10.6175093,5.04900458 L7.65616319,11.0941105 L13.4705135,11.0941105 L10.6175093,5.04900458 Z" id="Shape"></path>
                    <polygon id="Path" fill-rule="nonzero" points="38.0762025 0 43.5643302 6.80070104 49.0524579 0 53.7209302 0 45.8451106 9.72023092 53.4714699 19.2 48.8029976 19.2 43.5643302 12.674072 38.3613 19.2 33.6215534 19.2 41.2835499 9.72023092 33.372093 0"></polygon>
                </g>
                <g id="Group-8" transform="translate(1.000000, 36.000000)">
                    <rect id="Rectangle" fill="#444444" x="0" y="0" width="140" height="24"></rect>
                    <g id="React-Transition-Gro" transform="translate(10.000000, 8.000000)" fill="#FFFFFF" fill-rule="nonzero">
                        <path d="M6.43796332,8.67356322 L4.64104565,5.46206897 C5.49785408,5.24712644 6.39036286,4.43793103 6.39036286,2.95862069 C6.39036286,1.3908046 5.36695279,0.240229885 3.71283652,0.240229885 L0,0.240229885 L0,8.67356322 L1.68981662,8.67356322 L1.68981662,5.67701149 L2.92742879,5.67701149 L4.48634413,8.67356322 L6.43796332,8.67356322 Z M3.47483418,4.09655172 L1.68981662,4.09655172 L1.68981662,1.82068966 L3.47483418,1.82068966 C4.14124073,1.82068966 4.65294577,2.25057471 4.65294577,2.94597701 C4.65294577,3.66666667 4.14124073,4.09655172 3.47483418,4.09655172 Z" id="Shape"></path>
                        <path d="M9.96039797,8.82528736 C10.8529067,8.82528736 11.7573156,8.53448276 12.3285213,7.97816092 L11.6502146,6.91609195 C11.281311,7.2954023 10.6149044,7.51034483 10.1269996,7.51034483 C9.15119001,7.51034483 8.57998439,6.8908046 8.47288334,6.14482759 L12.7450254,6.14482759 L12.7450254,5.76551724 C12.7450254,3.78045977 11.590714,2.41494253 9.86519703,2.41494253 C8.12777995,2.41494253 6.89016777,3.84367816 6.89016777,5.6137931 C6.89016777,7.57356322 8.21108076,8.82528736 9.96039797,8.82528736 Z M11.2932111,5.03218391 L8.46098322,5.03218391 C8.52048381,4.42528736 8.92508779,3.72988506 9.86519703,3.72988506 C10.8648069,3.72988506 11.2456106,4.45057471 11.2932111,5.03218391 Z" id="Shape"></path>
                        <path d="M18.8140851,8.67356322 L18.8140851,4.72873563 C18.8140851,2.97126437 17.6121732,2.41494253 16.2912602,2.41494253 C15.3868513,2.41494253 14.4824425,2.70574713 13.7803355,3.37586207 L14.3753414,4.50114943 C14.8513461,4.03333333 15.4225517,3.78045977 16.0294577,3.78045977 C16.7910652,3.78045977 17.2908701,4.18505747 17.2908701,4.8045977 L17.2908701,5.57586207 C16.9100663,5.0954023 16.2436598,4.82988506 15.4701522,4.82988506 C14.5538432,4.82988506 13.4828326,5.36091954 13.4828326,6.80229885 C13.4828326,8.16781609 14.5538432,8.82528736 15.4701522,8.82528736 C16.2198595,8.82528736 16.8981662,8.53448276 17.2908701,8.02873563 L17.2908701,8.67356322 L18.8140851,8.67356322 Z M16.0770581,7.73793103 C15.4820523,7.73793103 14.9941475,7.4091954 14.9941475,6.82758621 C14.9941475,6.24597701 15.4820523,5.9045977 16.0770581,5.9045977 C16.5649629,5.9045977 17.0409676,6.09425287 17.2908701,6.44827586 L17.2908701,7.20689655 C17.0409676,7.56091954 16.5649629,7.73793103 16.0770581,7.73793103 Z" id="Shape"></path>
                        <path d="M22.979126,8.82528736 C24.1572376,8.82528736 24.8712446,8.26896552 25.2520484,7.71264368 L24.2643387,6.72643678 C23.990636,7.14367816 23.5741319,7.39655172 23.0505267,7.39655172 C22.1342177,7.39655172 21.4916114,6.67586207 21.4916114,5.6137931 C21.4916114,4.55172414 22.1342177,3.84367816 23.0505267,3.84367816 C23.5741319,3.84367816 23.990636,4.07126437 24.2643387,4.50114943 L25.2520484,3.51494253 C24.8712446,2.95862069 24.1572376,2.41494253 22.979126,2.41494253 C21.2179087,2.41494253 19.9326961,3.74252874 19.9326961,5.6137931 C19.9326961,7.49770115 21.2179087,8.82528736 22.979126,8.82528736 Z" id="Path"></path>
                        <path d="M28.1675771,8.82528736 C28.7982833,8.82528736 29.2028872,8.64827586 29.4289895,8.43333333 L29.1076863,7.20689655 C29.0243855,7.30804598 28.8101834,7.39655172 28.5840812,7.39655172 C28.2508779,7.39655172 28.060476,7.10574713 28.060476,6.7137931 L28.060476,3.97011494 L29.2266875,3.97011494 L29.2266875,2.56666667 L28.060476,2.56666667 L28.060476,0.897701149 L26.5491611,0.897701149 L26.5491611,2.56666667 L25.5971518,2.56666667 L25.5971518,3.97011494 L26.5491611,3.97011494 L26.5491611,7.14367816 C26.5491611,8.24367816 27.1084666,8.82528736 28.1675771,8.82528736 Z" id="Path"></path>
                        <polygon id="Path" points="36.8903629 8.67356322 36.8903629 1.82068966 39.1989856 1.82068966 39.1989856 0.240229885 32.8681233 0.240229885 32.8681233 1.82068966 35.1886461 1.82068966 35.1886461 8.67356322"></polygon>
                        <path d="M40.9483028,8.67356322 L40.9483028,4.64022989 C41.1982052,4.24827586 41.8646118,3.94482759 42.3644167,3.94482759 C42.5429185,3.94482759 42.6738197,3.95747126 42.7809208,3.98275862 L42.7809208,2.41494253 C42.0669138,2.41494253 41.3648069,2.85747126 40.9483028,3.38850575 L40.9483028,2.56666667 L39.4369879,2.56666667 L39.4369879,8.67356322 L40.9483028,8.67356322 Z" id="Path"></path>
                        <path d="M48.695279,8.67356322 L48.695279,4.72873563 C48.695279,2.97126437 47.4933671,2.41494253 46.1724542,2.41494253 C45.2680453,2.41494253 44.3636364,2.70574713 43.6615295,3.37586207 L44.2565353,4.50114943 C44.73254,4.03333333 45.3037456,3.78045977 45.9106516,3.78045977 C46.6722591,3.78045977 47.172064,4.18505747 47.172064,4.8045977 L47.172064,5.57586207 C46.7912602,5.0954023 46.1248537,4.82988506 45.3513461,4.82988506 C44.4350371,4.82988506 43.3640265,5.36091954 43.3640265,6.80229885 C43.3640265,8.16781609 44.4350371,8.82528736 45.3513461,8.82528736 C46.1010535,8.82528736 46.7793601,8.53448276 47.172064,8.02873563 L47.172064,8.67356322 L48.695279,8.67356322 Z M45.958252,7.73793103 C45.3632462,7.73793103 44.8753414,7.4091954 44.8753414,6.82758621 C44.8753414,6.24597701 45.3632462,5.9045977 45.958252,5.9045977 C46.4461568,5.9045977 46.9221615,6.09425287 47.172064,6.44827586 L47.172064,7.20689655 C46.9221615,7.56091954 46.4461568,7.73793103 45.958252,7.73793103 Z" id="Shape"></path>
                        <path d="M55.5854467,8.67356322 L55.5854467,4.36206897 C55.5854467,3.17356322 54.9785408,2.41494253 53.7052282,2.41494253 C52.7770191,2.41494253 52.0630121,2.8954023 51.6941085,3.35057471 L51.6941085,2.56666667 L50.1827936,2.56666667 L50.1827936,8.67356322 L51.6941085,8.67356322 L51.6941085,4.55172414 C51.955911,4.19770115 52.4081155,3.84367816 53.0031213,3.84367816 C53.6457277,3.84367816 54.0622318,4.13448276 54.0622318,4.9816092 L54.0622318,8.67356322 L55.5854467,8.67356322 Z" id="Path"></path>
                        <path d="M59.1435817,8.82528736 C60.7381974,8.82528736 61.6426063,8.00344828 61.6426063,6.87816092 C61.6426063,4.41264368 58.2272727,5.17126437 58.2272727,4.27356322 C58.2272727,3.93218391 58.5842762,3.67931034 59.1316816,3.67931034 C59.8337885,3.67931034 60.488295,4.00804598 60.8333984,4.38735632 L61.4403043,3.24942529 C60.8690987,2.76896552 60.0955911,2.41494253 59.1316816,2.41494253 C57.6084666,2.41494253 56.7754584,3.31264368 56.7754584,4.33678161 C56.7754584,6.73908046 60.1788919,5.91724138 60.1788919,6.91609195 C60.1788919,7.2954023 59.8694889,7.56091954 59.2149824,7.56091954 C58.5009754,7.56091954 57.6560671,7.14367816 57.2276629,6.7137931 L56.5731565,7.87701149 C57.1800624,8.47126437 58.1439719,8.82528736 59.1435817,8.82528736 Z" id="Path"></path>
                        <path d="M63.4990246,1.9091954 C63.9988295,1.9091954 64.4034335,1.47931034 64.4034335,0.948275862 C64.4034335,0.417241379 63.9988295,0 63.4990246,0 C63.0111198,0 62.6065158,0.417241379 62.6065158,0.948275862 C62.6065158,1.47931034 63.0111198,1.9091954 63.4990246,1.9091954 Z M64.2606321,8.67356322 L64.2606321,2.56666667 L62.7493172,2.56666667 L62.7493172,8.67356322 L64.2606321,8.67356322 Z" id="Shape"></path>
                        <path d="M67.6878658,8.82528736 C68.318572,8.82528736 68.723176,8.64827586 68.9492782,8.43333333 L68.627975,7.20689655 C68.5446742,7.30804598 68.3304721,7.39655172 68.1043699,7.39655172 C67.7711666,7.39655172 67.5807647,7.10574713 67.5807647,6.7137931 L67.5807647,3.97011494 L68.7469762,3.97011494 L68.7469762,2.56666667 L67.5807647,2.56666667 L67.5807647,0.897701149 L66.0694499,0.897701149 L66.0694499,2.56666667 L65.1174405,2.56666667 L65.1174405,3.97011494 L66.0694499,3.97011494 L66.0694499,7.14367816 C66.0694499,8.24367816 66.6287554,8.82528736 67.6878658,8.82528736 Z" id="Path"></path>
                        <path d="M70.5319938,1.9091954 C71.0317987,1.9091954 71.4364027,1.47931034 71.4364027,0.948275862 C71.4364027,0.417241379 71.0317987,0 70.5319938,0 C70.044089,0 69.639485,0.417241379 69.639485,0.948275862 C69.639485,1.47931034 70.044089,1.9091954 70.5319938,1.9091954 Z M71.2936012,8.67356322 L71.2936012,2.56666667 L69.7822864,2.56666667 L69.7822864,8.67356322 L71.2936012,8.67356322 Z" id="Shape"></path>
                        <path d="M75.4586422,8.82528736 C77.3626609,8.82528736 78.5050722,7.34597701 78.5050722,5.6137931 C78.5050722,3.8816092 77.3626609,2.41494253 75.4586422,2.41494253 C73.5665236,2.41494253 72.4241124,3.8816092 72.4241124,5.6137931 C72.4241124,7.34597701 73.5665236,8.82528736 75.4586422,8.82528736 Z M75.4586422,7.39655172 C74.518533,7.39655172 73.9949278,6.57471264 73.9949278,5.6137931 C73.9949278,4.66551724 74.518533,3.84367816 75.4586422,3.84367816 C76.4106516,3.84367816 76.9342567,4.66551724 76.9342567,5.6137931 C76.9342567,6.57471264 76.4106516,7.39655172 75.4586422,7.39655172 Z" id="Shape"></path>
                        <path d="M85.0382364,8.67356322 L85.0382364,4.36206897 C85.0382364,3.17356322 84.4313305,2.41494253 83.1580179,2.41494253 C82.2298088,2.41494253 81.5158018,2.8954023 81.1468982,3.35057471 L81.1468982,2.56666667 L79.6355833,2.56666667 L79.6355833,8.67356322 L81.1468982,8.67356322 L81.1468982,4.55172414 C81.4087007,4.19770115 81.8609052,3.84367816 82.455911,3.84367816 C83.0985174,3.84367816 83.5150215,4.13448276 83.5150215,4.9816092 L83.5150215,8.67356322 L85.0382364,8.67356322 Z" id="Path"></path>
                        <path d="M93.4754194,8.82528736 C94.9034335,8.82528736 96.0339446,8.20574713 96.8431526,7.24482759 L96.8431526,4.00804598 L93.0589153,4.00804598 L93.0589153,5.57586207 L95.1533359,5.57586207 L95.1533359,6.58735632 C94.8320328,6.90344828 94.1775263,7.23218391 93.4754194,7.23218391 C92.0236052,7.23218391 90.9763948,6.05632184 90.9763948,4.46321839 C90.9763948,2.87011494 92.0236052,1.69425287 93.4754194,1.69425287 C94.3084276,1.69425287 94.9867343,2.2 95.3556379,2.79425287 L96.7479516,1.98505747 C96.1529458,0.986206897 95.1176356,0.101149425 93.4754194,0.101149425 C91.1429965,0.101149425 89.2389778,1.7954023 89.2389778,4.46321839 C89.2389778,7.1183908 91.1429965,8.82528736 93.4754194,8.82528736 Z" id="Path"></path>
                        <path d="M99.6634803,8.67356322 L99.6634803,4.64022989 C99.9133828,4.24827586 100.579789,3.94482759 101.079594,3.94482759 C101.258096,3.94482759 101.388997,3.95747126 101.496098,3.98275862 L101.496098,2.41494253 C100.782091,2.41494253 100.079984,2.85747126 99.6634803,3.38850575 L99.6634803,2.56666667 L98.1521654,2.56666667 L98.1521654,8.67356322 L99.6634803,8.67356322 Z" id="Path"></path>
                        <path d="M105.101834,8.82528736 C107.005853,8.82528736 108.148264,7.34597701 108.148264,5.6137931 C108.148264,3.8816092 107.005853,2.41494253 105.101834,2.41494253 C103.209715,2.41494253 102.067304,3.8816092 102.067304,5.6137931 C102.067304,7.34597701 103.209715,8.82528736 105.101834,8.82528736 Z M105.101834,7.39655172 C104.161725,7.39655172 103.638119,6.57471264 103.638119,5.6137931 C103.638119,4.66551724 104.161725,3.84367816 105.101834,3.84367816 C106.053843,3.84367816 106.577448,4.66551724 106.577448,5.6137931 C106.577448,6.57471264 106.053843,7.39655172 105.101834,7.39655172 Z" id="Shape"></path>
                        <path d="M114.669528,8.67356322 L114.669528,2.56666667 L113.158213,2.56666667 L113.158213,6.70114943 C112.89641,7.05517241 112.432306,7.39655172 111.8492,7.39655172 C111.206594,7.39655172 110.79009,7.1183908 110.79009,6.27126437 L110.79009,2.56666667 L109.278775,2.56666667 L109.278775,6.90344828 C109.278775,8.09195402 109.873781,8.82528736 111.135193,8.82528736 C112.075302,8.82528736 112.765509,8.35747126 113.158213,7.90229885 L113.158213,8.67356322 L114.669528,8.67356322 Z" id="Path"></path>
                        <path d="M119.453375,8.82528736 C120.928989,8.82528736 122,7.64942529 122,5.6137931 C122,3.57816092 120.928989,2.41494253 119.453375,2.41494253 C118.751268,2.41494253 118.120562,2.74367816 117.680258,3.33793103 L117.680258,2.56666667 L116.168943,2.56666667 L116.168943,11 L117.680258,11 L117.680258,7.88965517 C118.156262,8.52183908 118.775068,8.82528736 119.453375,8.82528736 Z M118.97737,7.39655172 C118.489465,7.39655172 117.93016,7.08045977 117.680258,6.68850575 L117.680258,4.53908046 C117.94206,4.13448276 118.489465,3.84367816 118.97737,3.84367816 C119.846079,3.84367816 120.441085,4.56436782 120.441085,5.6137931 C120.441085,6.67586207 119.846079,7.39655172 118.97737,7.39655172 Z" id="Shape"></path>
                    </g>
                </g>
            </g>
        </g>
    </g>
</svg>