<?xml version="1.0" encoding="UTF-8"?>
<svg width="142px" height="142px" viewBox="0 0 142 142" version="1.1" xmlns="http://www.w3.org/2000/svg" xmlns:xlink="http://www.w3.org/1999/xlink">
    <title>icon-reactrouter</title>
    <g id="_PWA---Local" stroke="none" stroke-width="1" fill="none" fill-rule="evenodd">
        <g id="PWA-Icon-Sets" transform="translate(-8060.000000, -744.000000)">
            <g id="icon-reactrouter" transform="translate(8060.000000, 744.000000)">
                <rect id="BASE_TRANS" opacity="0.288334438" x="0" y="0" width="142" height="142"></rect>
                <g id="logo-circle-KLN3BE4B" transform="translate(12.330000, 16.000000)" fill-rule="nonzero">
                    <path d="M58.17,85 C81.6411842,85 100.67,65.9711842 100.67,42.5 C100.67,19.0288158 81.6411842,0 58.17,0 C34.6988158,0 15.67,19.0288158 15.67,42.5 C15.67,65.9711842 34.6988158,85 58.17,85 Z" id="Path" fill="#121212"></path>
                    <g id="REACT-ROUTER" transform="translate(-0.000000, 96.750000)" fill="#F44250">
                        <path d="M4.74,3.87 C5.1,3.87 5.4,3.8425 5.64,3.7875 C5.88,3.7325 6.07,3.655 6.21,3.555 C6.35,3.455 6.45,3.3375 6.51,3.2025 C6.57,3.0675 6.6,2.92 6.6,2.76 C6.6,2.6 6.57,2.4525 6.51,2.3175 C6.45,2.1825 6.35,2.065 6.21,1.965 C6.07,1.865 5.88,1.7875 5.64,1.7325 C5.4,1.6775 5.1,1.65 4.74,1.65 L2.145,1.65 L2.145,3.87 L4.74,3.87 Z M5.13,0.36 C5.61,0.36 6.045,0.4025 6.435,0.4875 C6.825,0.5725 7.16,0.7075 7.44,0.8925 C7.72,1.0775 7.935,1.3175 8.085,1.6125 C8.235,1.9075 8.31,2.27 8.31,2.7 C8.31,3.36 8.115,3.865 7.725,4.215 C7.335,4.565 6.81,4.8 6.15,4.92 L8.145,7.77 C8.215,7.87 8.2975,7.93 8.3925,7.95 C8.4875,7.97 8.575,7.98 8.655,7.98 L8.655,8.25 L5.85,8.25 L5.85,7.98 C5.94,7.98 6.0175,7.965 6.0825,7.935 C6.1475,7.905 6.18,7.865 6.18,7.815 C6.18,7.765 6.16,7.7075 6.12,7.6425 C6.08,7.5775 6.02,7.49 5.94,7.38 L4.29,5.04 L2.145,5.04 L2.145,7.71 C2.145,7.8 2.1775,7.8675 2.2425,7.9125 C2.3075,7.9575 2.425,7.98 2.595,7.98 L2.595,8.25 L0,8.25 L0,7.98 C0.29,7.98 0.435,7.89 0.435,7.71 L0.435,0.9 C0.435,0.72 0.29,0.63 0,0.63 L0,0.36 L5.13,0.36 Z" id="Shape"></path>
                        <path d="M18.33,1.98 C18.33,1.87 18.2875,1.7875 18.2025,1.7325 C18.1175,1.6775 17.97,1.65 17.76,1.65 L12.9,1.65 L12.9,3.51 L15.84,3.51 C16.04,3.51 16.195,3.4825 16.305,3.4275 C16.415,3.3725 16.47,3.23 16.47,3 L16.74,3 L16.74,5.34 L16.47,5.34 C16.47,5.11 16.415,4.9625 16.305,4.8975 C16.195,4.8325 16.04,4.8 15.84,4.8 L12.9,4.8 L12.9,6.87 L17.91,6.87 C18.06,6.87 18.1825,6.835 18.2775,6.765 C18.3725,6.695 18.42,6.6 18.42,6.48 L18.69,6.48 L18.69,8.535 L18.42,8.535 C18.42,8.385 18.3725,8.3 18.2775,8.28 C18.1825,8.26 18.06,8.25 17.91,8.25 L10.92,8.25 L10.92,7.98 C10.99,7.98 11.0525,7.9575 11.1075,7.9125 C11.1625,7.8675 11.19,7.8 11.19,7.71 L11.19,0.9 C11.19,0.81 11.1625,0.7425 11.1075,0.6975 C11.0525,0.6525 10.99,0.63 10.92,0.63 L10.92,0.36 L17.76,0.36 C17.97,0.36 18.1175,0.3275 18.2025,0.2625 C18.2875,0.1975 18.33,0.11 18.33,0 L18.6,0 L18.6,1.98 L18.33,1.98 Z" id="Path"></path>
                        <path d="M25.605,5.19 L24.345,2.4 L22.935,5.19 L25.605,5.19 Z M19.95,7.98 C20.08,7.96 20.1825,7.895 20.2575,7.785 C20.3325,7.675 20.405,7.55 20.475,7.41 L23.25,1.575 C23.32,1.445 23.3825,1.325 23.4375,1.215 C23.4925,1.105 23.52,1.01 23.52,0.93 C23.52,0.83 23.485,0.76 23.415,0.72 C23.345,0.68 23.27,0.65 23.19,0.63 L23.19,0.36 L25.725,0.36 L25.725,0.63 C25.655,0.65 25.585,0.6775 25.515,0.7125 C25.445,0.7475 25.41,0.82 25.41,0.93 C25.41,1.01 25.4275,1.09 25.4625,1.17 C25.4975,1.25 25.55,1.355 25.62,1.485 L28.74,7.59 C28.79,7.7 28.8575,7.78 28.9425,7.83 C29.0275,7.88 29.125,7.93 29.235,7.98 L29.235,8.25 L26.595,8.25 L26.595,7.98 C26.635,7.98 26.685,7.965 26.745,7.935 C26.805,7.905 26.835,7.86 26.835,7.8 C26.835,7.7 26.795,7.57 26.715,7.41 L26.145,6.3 L22.485,6.3 L21.945,7.365 C21.845,7.575 21.795,7.725 21.795,7.815 C21.795,7.925 21.89,7.98 22.08,7.98 L22.08,8.25 L19.95,8.25 L19.95,7.98 Z" id="Shape"></path>
                        <path d="M39.255,7.17 C39.225,7.17 39.1975,7.1675 39.1725,7.1625 C39.1475,7.1575 39.12,7.155 39.09,7.155 C39.03,7.155 38.8875,7.215 38.6625,7.335 C38.4375,7.455 38.1525,7.59 37.8075,7.74 C37.4625,7.89 37.07,8.02 36.63,8.13 C36.19,8.24 35.73,8.295 35.25,8.295 C34.62,8.295 34.015,8.215 33.435,8.055 C32.855,7.895 32.3425,7.6475 31.8975,7.3125 C31.4525,6.9775 31.1,6.56 30.84,6.06 C30.58,5.56 30.45,4.975 30.45,4.305 C30.45,3.645 30.58,3.0625 30.84,2.5575 C31.1,2.0525 31.4525,1.63 31.8975,1.29 C32.3425,0.95 32.855,0.695 33.435,0.525 C34.015,0.355 34.62,0.27 35.25,0.27 C35.76,0.27 36.2225,0.31 36.6375,0.39 C37.0525,0.47 37.415,0.555 37.725,0.645 C38.035,0.735 38.28,0.82 38.46,0.9 C38.64,0.98 38.75,1.02 38.79,1.02 C38.84,1.02 38.8825,0.995 38.9175,0.945 C38.9525,0.895 38.98,0.855 39,0.825 L39.225,1.005 L38.055,2.82 L37.905,2.715 C37.905,2.685 37.9025,2.655 37.8975,2.625 C37.8925,2.595 37.885,2.56 37.875,2.52 C37.855,2.41 37.755,2.2975 37.575,2.1825 C37.395,2.0675 37.1725,1.965 36.9075,1.875 C36.6425,1.785 36.3625,1.71 36.0675,1.65 C35.7725,1.59 35.5,1.56 35.25,1.56 C34.83,1.56 34.4275,1.62 34.0425,1.74 C33.6575,1.86 33.3225,2.035 33.0375,2.265 C32.7525,2.495 32.525,2.7775 32.355,3.1125 C32.185,3.4475 32.1,3.83 32.1,4.26 C32.1,4.69 32.185,5.0725 32.355,5.4075 C32.525,5.7425 32.7525,6.025 33.0375,6.255 C33.3225,6.485 33.6575,6.66 34.0425,6.78 C34.4275,6.9 34.83,6.96 35.25,6.96 C35.57,6.96 35.905,6.9225 36.255,6.8475 C36.605,6.7725 36.925,6.6775 37.215,6.5625 C37.505,6.4475 37.7475,6.3175 37.9425,6.1725 C38.1375,6.0275 38.235,5.89 38.235,5.76 C38.235,5.69 38.215,5.63 38.175,5.58 L38.385,5.46 L39.375,7.05 L39.255,7.17 Z" id="Path"></path>
                        <path d="M45.9,7.71 C45.9,7.89 46.01,7.98 46.23,7.98 L46.23,8.25 L43.92,8.25 L43.92,7.98 C43.99,7.98 44.0525,7.9575 44.1075,7.9125 C44.1625,7.8675 44.19,7.8 44.19,7.71 L44.19,1.74 L41.715,1.74 C41.625,1.74 41.5375,1.765 41.4525,1.815 C41.3675,1.865 41.325,1.96 41.325,2.1 L41.055,2.1 L41.055,0 L41.325,0 C41.325,0.14 41.3675,0.235 41.4525,0.285 C41.5375,0.335 41.625,0.36 41.715,0.36 L48.375,0.36 C48.465,0.36 48.5525,0.335 48.6375,0.285 C48.7225,0.235 48.765,0.14 48.765,0 L49.035,0 L49.035,2.1 L48.765,2.1 C48.765,1.96 48.7225,1.865 48.6375,1.815 C48.5525,1.765 48.465,1.74 48.375,1.74 L45.9,1.74 L45.9,7.71 Z" id="Path"></path>
                        <path d="M60.15,3.87 C60.51,3.87 60.81,3.8425 61.05,3.7875 C61.29,3.7325 61.48,3.655 61.62,3.555 C61.76,3.455 61.86,3.3375 61.92,3.2025 C61.98,3.0675 62.01,2.92 62.01,2.76 C62.01,2.6 61.98,2.4525 61.92,2.3175 C61.86,2.1825 61.76,2.065 61.62,1.965 C61.48,1.865 61.29,1.7875 61.05,1.7325 C60.81,1.6775 60.51,1.65 60.15,1.65 L57.555,1.65 L57.555,3.87 L60.15,3.87 Z M60.54,0.36 C61.02,0.36 61.455,0.4025 61.845,0.4875 C62.235,0.5725 62.57,0.7075 62.85,0.8925 C63.13,1.0775 63.345,1.3175 63.495,1.6125 C63.645,1.9075 63.72,2.27 63.72,2.7 C63.72,3.36 63.525,3.865 63.135,4.215 C62.745,4.565 62.22,4.8 61.56,4.92 L63.555,7.77 C63.625,7.87 63.7075,7.93 63.8025,7.95 C63.8975,7.97 63.985,7.98 64.065,7.98 L64.065,8.25 L61.26,8.25 L61.26,7.98 C61.35,7.98 61.4275,7.965 61.4925,7.935 C61.5575,7.905 61.59,7.865 61.59,7.815 C61.59,7.765 61.57,7.7075 61.53,7.6425 C61.49,7.5775 61.43,7.49 61.35,7.38 L59.7,5.04 L57.555,5.04 L57.555,7.71 C57.555,7.8 57.5875,7.8675 57.6525,7.9125 C57.7175,7.9575 57.835,7.98 58.005,7.98 L58.005,8.25 L55.41,8.25 L55.41,7.98 C55.7,7.98 55.845,7.89 55.845,7.71 L55.845,0.9 C55.845,0.72 55.7,0.63 55.41,0.63 L55.41,0.36 L60.54,0.36 Z" id="Shape"></path>
                        <path d="M70.875,1.65 C70.495,1.65 70.115,1.71 69.735,1.83 C69.355,1.95 69.0125,2.1225 68.7075,2.3475 C68.4025,2.5725 68.155,2.85 67.965,3.18 C67.775,3.51 67.68,3.885 67.68,4.305 C67.68,4.725 67.775,5.1 67.965,5.43 C68.155,5.76 68.4025,6.0375 68.7075,6.2625 C69.0125,6.4875 69.355,6.66 69.735,6.78 C70.115,6.9 70.495,6.96 70.875,6.96 C71.255,6.96 71.635,6.9 72.015,6.78 C72.395,6.66 72.7375,6.4875 73.0425,6.2625 C73.3475,6.0375 73.595,5.76 73.785,5.43 C73.975,5.1 74.07,4.725 74.07,4.305 C74.07,3.885 73.975,3.51 73.785,3.18 C73.595,2.85 73.3475,2.5725 73.0425,2.3475 C72.7375,2.1225 72.395,1.95 72.015,1.83 C71.635,1.71 71.255,1.65 70.875,1.65 Z M70.875,0.27 C71.425,0.27 71.985,0.3525 72.555,0.5175 C73.125,0.6825 73.645,0.93 74.115,1.26 C74.585,1.59 74.97,2.0075 75.27,2.5125 C75.57,3.0175 75.72,3.615 75.72,4.305 C75.72,4.995 75.57,5.5925 75.27,6.0975 C74.97,6.6025 74.585,7.02 74.115,7.35 C73.645,7.68 73.125,7.92 72.555,8.07 C71.985,8.22 71.425,8.295 70.875,8.295 C70.325,8.295 69.765,8.22 69.195,8.07 C68.625,7.92 68.105,7.68 67.635,7.35 C67.165,7.02 66.78,6.6025 66.48,6.0975 C66.18,5.5925 66.03,4.995 66.03,4.305 C66.03,3.615 66.18,3.0175 66.48,2.5125 C66.78,2.0075 67.165,1.59 67.635,1.26 C68.105,0.93 68.625,0.6825 69.195,0.5175 C69.765,0.3525 70.325,0.27 70.875,0.27 Z" id="Shape"></path>
                        <path d="M80.16,0.63 C79.94,0.63 79.83,0.72 79.83,0.9 L79.83,5.4 C79.83,6.03 80.0325,6.4625 80.4375,6.6975 C80.8425,6.9325 81.435,7.05 82.215,7.05 C82.995,7.05 83.5875,6.9325 83.9925,6.6975 C84.3975,6.4625 84.6,6.03 84.6,5.4 L84.6,0.9 C84.6,0.72 84.45,0.63 84.15,0.63 L84.15,0.36 L86.55,0.36 L86.55,0.63 C86.31,0.63 86.19,0.72 86.19,0.9 L86.19,5.325 C86.19,5.915 86.105,6.4025 85.935,6.7875 C85.765,7.1725 85.51,7.48 85.17,7.71 C84.83,7.94 84.4075,8.095 83.9025,8.175 C83.3975,8.255 82.815,8.295 82.155,8.295 C81.495,8.295 80.9125,8.255 80.4075,8.175 C79.9025,8.095 79.48,7.94 79.14,7.71 C78.8,7.48 78.545,7.1725 78.375,6.7875 C78.205,6.4025 78.12,5.915 78.12,5.325 L78.12,0.9 C78.12,0.72 77.98,0.63 77.7,0.63 L77.7,0.36 L80.16,0.36 L80.16,0.63 Z" id="Path"></path>
                        <path d="M92.97,7.71 C92.97,7.89 93.08,7.98 93.3,7.98 L93.3,8.25 L90.99,8.25 L90.99,7.98 C91.06,7.98 91.1225,7.9575 91.1775,7.9125 C91.2325,7.8675 91.26,7.8 91.26,7.71 L91.26,1.74 L88.785,1.74 C88.695,1.74 88.6075,1.765 88.5225,1.815 C88.4375,1.865 88.395,1.96 88.395,2.1 L88.125,2.1 L88.125,0 L88.395,0 C88.395,0.14 88.4375,0.235 88.5225,0.285 C88.6075,0.335 88.695,0.36 88.785,0.36 L95.445,0.36 C95.535,0.36 95.6225,0.335 95.7075,0.285 C95.7925,0.235 95.835,0.14 95.835,0 L96.105,0 L96.105,2.1 L95.835,2.1 C95.835,1.96 95.7925,1.865 95.7075,1.815 C95.6225,1.765 95.535,1.74 95.445,1.74 L92.97,1.74 L92.97,7.71 Z" id="Path"></path>
                        <path d="M105.405,1.98 C105.405,1.87 105.3625,1.7875 105.2775,1.7325 C105.1925,1.6775 105.045,1.65 104.835,1.65 L99.975,1.65 L99.975,3.51 L102.915,3.51 C103.115,3.51 103.27,3.4825 103.38,3.4275 C103.49,3.3725 103.545,3.23 103.545,3 L103.815,3 L103.815,5.34 L103.545,5.34 C103.545,5.11 103.49,4.9625 103.38,4.8975 C103.27,4.8325 103.115,4.8 102.915,4.8 L99.975,4.8 L99.975,6.87 L104.985,6.87 C105.135,6.87 105.2575,6.835 105.3525,6.765 C105.4475,6.695 105.495,6.6 105.495,6.48 L105.765,6.48 L105.765,8.535 L105.495,8.535 C105.495,8.385 105.4475,8.3 105.3525,8.28 C105.2575,8.26 105.135,8.25 104.985,8.25 L97.995,8.25 L97.995,7.98 C98.065,7.98 98.1275,7.9575 98.1825,7.9125 C98.2375,7.8675 98.265,7.8 98.265,7.71 L98.265,0.9 C98.265,0.81 98.2375,0.7425 98.1825,0.6975 C98.1275,0.6525 98.065,0.63 97.995,0.63 L97.995,0.36 L104.835,0.36 C105.045,0.36 105.1925,0.3275 105.2775,0.2625 C105.3625,0.1975 105.405,0.11 105.405,0 L105.675,0 L105.675,1.98 L105.405,1.98 Z" id="Path"></path>
                        <path d="M112.65,3.87 C113.01,3.87 113.31,3.8425 113.55,3.7875 C113.79,3.7325 113.98,3.655 114.12,3.555 C114.26,3.455 114.36,3.3375 114.42,3.2025 C114.48,3.0675 114.51,2.92 114.51,2.76 C114.51,2.6 114.48,2.4525 114.42,2.3175 C114.36,2.1825 114.26,2.065 114.12,1.965 C113.98,1.865 113.79,1.7875 113.55,1.7325 C113.31,1.6775 113.01,1.65 112.65,1.65 L110.055,1.65 L110.055,3.87 L112.65,3.87 Z M113.04,0.36 C113.52,0.36 113.955,0.4025 114.345,0.4875 C114.735,0.5725 115.07,0.7075 115.35,0.8925 C115.63,1.0775 115.845,1.3175 115.995,1.6125 C116.145,1.9075 116.22,2.27 116.22,2.7 C116.22,3.36 116.025,3.865 115.635,4.215 C115.245,4.565 114.72,4.8 114.06,4.92 L116.055,7.77 C116.125,7.87 116.2075,7.93 116.3025,7.95 C116.3975,7.97 116.485,7.98 116.565,7.98 L116.565,8.25 L113.76,8.25 L113.76,7.98 C113.85,7.98 113.9275,7.965 113.9925,7.935 C114.0575,7.905 114.09,7.865 114.09,7.815 C114.09,7.765 114.07,7.7075 114.03,7.6425 C113.99,7.5775 113.93,7.49 113.85,7.38 L112.2,5.04 L110.055,5.04 L110.055,7.71 C110.055,7.8 110.0875,7.8675 110.1525,7.9125 C110.2175,7.9575 110.335,7.98 110.505,7.98 L110.505,8.25 L107.91,8.25 L107.91,7.98 C108.2,7.98 108.345,7.89 108.345,7.71 L108.345,0.9 C108.345,0.72 108.2,0.63 107.91,0.63 L107.91,0.36 L113.04,0.36 Z" id="Shape"></path>
                    </g>
                    <path d="M46.6692931,45.1559685 C43.5510336,45.1559685 41.0093155,42.6500448 41.0093155,39.5779842 C41.0093155,36.5059237 43.5510336,34 46.6692931,34 C49.7875527,34 52.3292707,36.5059237 52.3292707,39.5779842 C52.3292707,42.6478505 49.7853093,45.1559685 46.6692931,45.1559685 L46.6692931,45.1559685 Z M33.0790656,56.2307468 C29.9652927,56.2241638 27.4303047,53.7072685 27.4392544,50.6352079 C27.4429807,47.5674814 29.9831876,45.0808222 33.1194459,45.0747783 C36.2354621,45.0813613 38.7704501,47.5982566 38.7592704,50.6725115 C38.7530662,53.7388818 36.2139385,56.2235036 33.0790656,56.2307468 L33.0790656,56.2307468 Z M84.5909186,56.230758 C81.4551351,56.236843 78.9046008,53.7616656 78.8860011,50.6944548 C78.8703705,47.6180056 81.3941417,45.0923329 84.5056712,45.0769654 C87.63971,45.0720803 90.1885189,47.5455755 90.2083675,50.6110703 C90.2262193,53.6853252 87.7002047,56.2131922 84.5909186,56.230758 L84.5909186,56.230758 Z" id="Shape" fill="#FFFFFF"></path>
                    <path d="M73.3351527,35.2297552 C71.7728727,34.7515507 70.1035561,34.5526712 68.4661228,34.3783723 C65.9336806,34.1102203 64.9248031,33.1404036 64.4966564,30.6510584 C64.2552545,29.2611368 63.9182029,27.8354616 63.3055887,26.5729122 C62.1372948,24.1707165 59.3998889,23.093639 56.651096,23.7081542 C54.3281725,24.2288161 52.399235,26.4969358 52.2921983,28.8253897 C52.16922,31.4800953 53.7178357,33.748215 56.3778109,34.5303252 C57.6417546,34.9035035 58.9854064,35.0889754 60.3040071,35.1850632 C62.7248578,35.3571274 63.5333263,36.0654958 64.1869332,37.1470426 C64.6014157,37.8308304 64.9999565,38.5034452 64.9999565,40.5369318 C64.9999565,42.572653 64.5968609,43.2452678 64.1869332,43.926821 C63.5333263,45.0083677 62.7248578,45.7145015 60.3040071,45.8910349 C58.9831291,45.9848882 57.6394772,46.1725946 56.3778109,46.5457729 C53.7178357,47.3301178 52.16922,49.5937682 52.2921983,52.252943 C52.399235,54.5791623 54.3304499,56.847282 56.651096,57.3679439 C59.3998889,57.9846937 62.1372948,56.9053816 63.3055887,54.5031859 C63.9204802,53.2428711 64.2552545,51.8149613 64.4966564,50.4250397 C64.9270804,47.9356945 65.935958,46.9681125 68.4661228,46.6977258 C70.1058335,46.5234269 71.7728727,46.3223129 73.3351527,45.8441083 C75.7059011,45.1178631 77.1315385,42.9480659 77.1315385,40.5369318 C77.1315385,38.1280323 75.7059011,35.9604696 73.3351527,35.2297552 L73.3351527,35.2297552 Z" id="Path" fill="#F44250"></path>
                </g>
            </g>
        </g>
    </g>
</svg>